<svg width="290.000000" height="194.000000" viewBox="0 0 290 194" fill="none" xmlns="http://www.w3.org/2000/svg" xmlns:xlink="http://www.w3.org/1999/xlink">
	<desc>
			Created with Pixso.
	</desc>
	<defs/>
	<path id="Vector" d="M2.51 190.48C2.49 190.48 2.48 190.48 2.46 190.48C2.34 190.45 2.26 190.33 2.28 190.2L25.9 73C25.92 72.88 26.04 72.79 26.17 72.82C26.29 72.85 26.38 72.97 26.35 73.1L2.74 190.29C2.71 190.4 2.62 190.48 2.51 190.48Z" fill="#40506F" fill-opacity="1.000000" fill-rule="nonzero"/>
	<path id="Vector" d="M2.8 187.76C4.18 187.92 5.17 189.17 5 190.55C4.84 191.93 3.59 192.92 2.21 192.75C0.83 192.59 -0.16 191.34 0.01 189.96C0.17 188.58 1.42 187.59 2.8 187.76Z" fill="#40506F" fill-opacity="1.000000" fill-rule="evenodd"/>
	<path id="Vector" d="M62.37 190.48C62.26 190.48 62.17 190.4 62.14 190.29L38.53 73.1C38.5 72.97 38.59 72.85 38.71 72.82C38.84 72.8 38.96 72.88 38.98 73L62.6 190.2C62.62 190.33 62.54 190.45 62.42 190.48C62.4 190.48 62.39 190.48 62.37 190.48L62.37 190.48Z" fill="#40506F" fill-opacity="1.000000" fill-rule="nonzero"/>
	<path id="Vector" d="M62.95 187.82C64.3 188.14 65.14 189.49 64.82 190.84C64.5 192.2 63.14 193.03 61.79 192.71C60.44 192.39 59.6 191.03 59.92 189.68C60.24 188.33 61.6 187.49 62.95 187.82Z" fill="#40506F" fill-opacity="1.000000" fill-rule="evenodd"/>
	<path id="Vector" d="M36.13 153.08L11.18 153.08C11.05 153.08 10.95 152.97 10.95 152.85C10.95 152.72 11.05 152.61 11.18 152.61L36.13 152.61C36.26 152.61 36.36 152.72 36.36 152.85C36.36 152.97 36.26 153.08 36.13 153.08Z" fill="#40506F" fill-opacity="1.000000" fill-rule="nonzero"/>
	<path id="Vector" d="M36.42 158.52L13.3 158.52C13.17 158.52 13.06 158.42 13.06 158.29C13.06 158.16 13.17 158.06 13.3 158.06L36.42 158.06C36.55 158.06 36.66 158.16 36.66 158.29C36.66 158.42 36.55 158.52 36.42 158.52Z" fill="#40506F" fill-opacity="1.000000" fill-rule="nonzero"/>
	<path id="Vector" d="M26.31 88.61L87.6 189.73C88.74 191.61 90.79 192.76 92.99 192.76L127.32 192.76C128.42 192.76 128.85 191.34 127.94 190.73L114.46 181.68C114.46 181.68 71.16 109.93 56.31 80.16L26.32 88.61L26.31 88.61Z" fill="#1B2539" fill-opacity="1.000000" fill-rule="nonzero"/>
	<path id="Vector" d="M127.32 193L92.99 193C90.72 193 88.58 191.79 87.41 189.85L26.12 88.74C26.08 88.67 26.07 88.6 26.1 88.53C26.13 88.46 26.18 88.41 26.25 88.39L56.25 79.93C56.35 79.9 56.47 79.95 56.52 80.05C71.04 109.18 113.34 179.39 114.62 181.52L128.07 190.53C128.57 190.87 128.78 191.46 128.61 192.04C128.43 192.62 127.93 192.99 127.32 192.99L127.32 193ZM26.67 88.76L87.8 189.61C88.9 191.41 90.88 192.53 92.99 192.53L127.32 192.53C127.8 192.53 128.07 192.21 128.16 191.91C128.25 191.6 128.21 191.19 127.81 190.92L114.32 181.88C114.3 181.86 114.27 181.83 114.25 181.81C113.82 181.09 70.95 109.98 56.19 80.43L26.67 88.76Z" fill="#40506F" fill-opacity="1.000000" fill-rule="nonzero"/>
	<path id="Vector" d="M88.24 187.02C88.12 187.02 88.03 186.94 88.01 186.82C87.99 186.7 88.07 186.58 88.2 186.56L112.95 182.44C113.08 182.42 113.2 182.5 113.22 182.63C113.24 182.76 113.15 182.88 113.03 182.9L88.27 187.01C88.26 187.01 88.25 187.02 88.24 187.02L88.24 187.02Z" fill="#40506F" fill-opacity="1.000000" fill-rule="nonzero"/>
	<path id="Vector" d="M87.8 107.95C74.8 94.42 55.94 75.36 52.61 71.99C48.03 74.52 24.5 85.46 24.5 85.46L64.61 122.94L40.53 154.41C38.89 156.55 39.09 159.57 40.98 161.47L59.47 180.07C60.58 181.18 62.48 180.35 62.42 178.78L61.88 165.58C66.68 161.24 80.05 143.87 89.22 131.69C94.64 124.5 94.04 114.44 87.8 107.94L87.8 107.95Z" fill="#1B2539" fill-opacity="1.000000" fill-rule="nonzero"/>
	<path id="Vector" d="M60.68 180.82C60.18 180.82 59.69 180.62 59.31 180.23L40.82 161.64C38.86 159.66 38.65 156.5 40.35 154.28L64.3 122.97L24.34 85.63C24.29 85.58 24.26 85.5 24.27 85.43C24.29 85.35 24.33 85.28 24.41 85.25C24.64 85.14 47.97 74.28 52.5 71.78C52.59 71.73 52.7 71.75 52.77 71.82C56.38 75.47 75.04 94.33 87.97 107.79C91.03 110.96 92.85 115.14 93.12 119.54C93.38 123.95 92.07 128.31 89.41 131.84C79.58 144.88 66.9 161.31 62.11 165.68L62.65 178.77C62.69 179.6 62.24 180.32 61.48 180.65C61.22 180.76 60.95 180.82 60.68 180.82ZM24.91 85.53L64.77 122.77C64.86 122.85 64.86 122.98 64.79 123.08L40.71 154.56C39.15 156.59 39.34 159.49 41.15 161.31L59.63 179.9C60.17 180.44 60.84 180.41 61.29 180.22C61.74 180.02 62.21 179.54 62.18 178.79L61.64 165.59C61.64 165.52 61.67 165.45 61.72 165.41C66.41 161.17 79.16 144.66 89.04 131.55C94.41 124.41 93.82 114.55 87.63 108.11C74.84 94.8 56.45 76.2 52.56 72.27C47.99 74.76 27.68 84.24 24.91 85.53L24.91 85.53Z" fill="#40506F" fill-opacity="1.000000" fill-rule="nonzero"/>
	<path id="Vector" d="M59.84 165.45C59.82 165.45 59.79 165.44 59.77 165.43C52.98 163.03 47.29 157.94 44.15 151.46C44.09 151.35 44.14 151.21 44.26 151.15C44.37 151.1 44.51 151.15 44.57 151.26C47.65 157.63 53.25 162.63 59.92 164.99C60.04 165.04 60.1 165.17 60.06 165.29C60.03 165.39 59.94 165.45 59.84 165.45Z" fill="#40506F" fill-opacity="1.000000" fill-rule="nonzero"/>
	<path id="Vector" d="M59.65 44.91C59.71 49.92 58.52 54.86 57.28 59.7C56.04 64.54 54.73 69.42 54.54 74.44C48.44 76.73 42.34 79.03 36.24 81.32C36.16 72.03 37.21 62.68 40.02 53.89C41.73 48.52 44.12 43.38 47.2 38.75C48.6 36.65 50.36 33.62 52.45 32.24C54.93 30.6 56.64 33.31 57.64 35.46C59.01 38.37 59.61 41.66 59.65 44.91Z" fill="#1B2539" fill-opacity="1.000000" fill-rule="nonzero"/>
	<path id="Vector" d="M36.24 81.55C36.19 81.55 36.14 81.54 36.1 81.51C36.04 81.47 36 81.4 36 81.32C35.92 71.19 37.2 61.94 39.8 53.82C41.58 48.25 44 43.14 47.01 38.63C47.22 38.31 47.43 37.98 47.66 37.64C48.93 35.68 50.5 33.24 52.32 32.05C53.09 31.54 53.85 31.39 54.58 31.6C55.75 31.93 56.82 33.16 57.85 35.36C59.14 38.11 59.84 41.41 59.88 44.9C59.94 49.83 58.84 54.55 57.5 59.76L57.32 60.46C56.16 65 54.95 69.7 54.77 74.45C54.77 74.54 54.71 74.62 54.62 74.66L36.31 81.54C36.29 81.55 36.26 81.55 36.23 81.55L36.24 81.55ZM53.93 31.97C53.5 31.97 53.05 32.12 52.58 32.43C50.84 33.58 49.29 35.97 48.05 37.89C47.82 38.24 47.6 38.57 47.39 38.88C44.41 43.36 42.01 48.44 40.24 53.97C37.68 61.95 36.41 71.04 36.46 80.99L54.31 74.28C54.51 69.53 55.71 64.86 56.87 60.35L57.05 59.64C58.38 54.46 59.47 49.78 59.41 44.91C59.37 41.48 58.68 38.24 57.43 35.56C56.46 33.48 55.48 32.33 54.45 32.04C54.28 31.99 54.1 31.97 53.93 31.97L53.93 31.97Z" fill="#40506F" fill-opacity="1.000000" fill-rule="nonzero"/>
	<path id="Vector" d="M47.46 27.41C47.46 27.41 53.91 30.12 55.36 35.39C56.81 40.66 36.24 118.36 36.24 118.36L13 99.06C8.56 95.36 7.1 89.17 9.43 83.88L31.68 33.34C31.68 33.34 41.4 25.24 47.46 27.41L47.46 27.41Z" fill="#0478FE" fill-opacity="1.000000" fill-rule="nonzero"/>
	<path id="Vector" d="M92.53 54.11C83.8 54.43 74.54 54.63 73.31 53.81C70.95 52.23 63.33 46.84 59.86 39.19C56.39 31.55 47.46 27.41 47.46 27.41L37.15 47.25C37.15 47.25 60.11 69.09 73.31 68.82C79.67 68.69 86.53 68.09 92.1 67.47C91.16 63.07 91.32 58.44 92.53 54.11L92.53 54.11Z" fill="#0478FE" fill-opacity="1.000000" fill-rule="nonzero"/>
	<path id="Vector" d="M118.41 60.93C118.17 60.01 117.58 59.22 117.01 58.46C115.37 56.28 113.57 53.98 110.97 53.16C109.28 52.62 107.45 52.79 105.69 52.97C103.58 53.17 94.37 54.21 92.54 54.41C90.94 54.57 90.16 62.93 91.03 66C91.18 66.51 91.37 67.05 91.77 67.4C92.5 68.05 93.63 67.87 94.56 67.59C97.98 66.58 101.17 64.78 103.79 62.35C104.43 61.76 105.12 61.1 105.99 61.06C107.11 61.01 107.96 62 108.67 62.86C109.3 63.62 109.99 64.37 110.89 64.74C111.8 65.12 112.97 65.02 113.6 64.27C113.93 63.87 114 63.3 113.86 62.81C114.23 63.16 114.64 63.47 115.09 63.69C115.93 64.09 117.01 64.14 117.74 63.55C118.48 62.95 118.66 61.85 118.41 60.93L118.41 60.93Z" fill="#1B2539" fill-opacity="1.000000" fill-rule="nonzero"/>
	<path id="Vector" d="M94.56 67.59C97.98 66.58 101.17 64.78 103.79 62.35C104.43 61.76 105.12 61.1 105.99 61.06C107.11 61.01 107.96 62 108.67 62.86C109.3 63.62 109.99 64.37 110.89 64.74C111.8 65.12 112.97 65.02 113.6 64.27C113.93 63.87 114 63.3 113.86 62.81C114.23 63.16 114.64 63.46 115.09 63.69C115.93 64.09 117.01 64.14 117.74 63.55C118.48 62.95 118.66 61.85 118.41 60.93C118.16 60 117.58 59.21 117 58.45C115.37 56.27 113.56 53.98 110.97 53.16C109.28 52.62 107.45 52.79 105.68 52.96C103.58 53.17 94.37 54.21 92.53 54.4L94.56 67.59L94.56 67.59Z" fill="#1B2539" fill-opacity="1.000000" fill-rule="nonzero"/>
	<path id="Vector" d="M94.56 67.82C94.46 67.82 94.37 67.76 94.34 67.66C94.3 67.53 94.37 67.4 94.5 67.37C97.88 66.37 101.04 64.58 103.63 62.18L103.69 62.12C104.33 61.54 105.05 60.86 105.98 60.82C107.25 60.76 108.18 61.89 108.85 62.71C109.42 63.4 110.1 64.16 110.99 64.53C111.76 64.85 112.85 64.81 113.43 64.12C113.69 63.81 113.77 63.32 113.64 62.88C113.61 62.78 113.65 62.67 113.74 62.61C113.83 62.56 113.95 62.57 114.02 62.64C114.44 63.03 114.82 63.29 115.2 63.47C115.9 63.81 116.92 63.91 117.6 63.37C118.3 62.81 118.4 61.77 118.19 60.99C117.96 60.1 117.35 59.3 116.82 58.59C115.02 56.19 113.33 54.14 110.91 53.38C109.23 52.85 107.36 53.03 105.71 53.19C104.41 53.32 100.35 53.77 97.08 54.14C95.04 54.36 93.26 54.56 92.56 54.63C92.44 54.65 92.32 54.56 92.31 54.43C92.29 54.3 92.39 54.19 92.51 54.17C93.21 54.1 94.99 53.9 97.03 53.67C100.3 53.31 104.36 52.86 105.67 52.73C107.36 52.56 109.28 52.38 111.05 52.93C113.6 53.74 115.34 55.85 117.2 58.31C117.75 59.05 118.38 59.89 118.64 60.87C118.89 61.79 118.75 63.04 117.89 63.73C117.15 64.32 116.02 64.38 115 63.89C114.72 63.76 114.45 63.59 114.17 63.37C114.16 63.76 114.03 64.13 113.79 64.41C113.07 65.28 111.75 65.34 110.81 64.95C109.83 64.55 109.1 63.73 108.5 63C107.88 62.26 107.04 61.24 106.01 61.28C105.25 61.32 104.62 61.9 104.01 62.46L103.95 62.52C101.31 64.97 98.09 66.79 94.63 67.81C94.61 67.82 94.59 67.82 94.57 67.82L94.56 67.82Z" fill="#40506F" fill-opacity="1.000000" fill-rule="nonzero"/>
	<path id="Vector" d="M113.46 62.42C113.38 62.42 113.3 62.37 113.26 62.3C112.13 60.32 110.85 58.08 108.77 56.82C108.24 56.5 106.89 55.82 105.74 56.41C105.62 56.47 105.48 56.42 105.42 56.31C105.37 56.19 105.41 56.05 105.53 55.99C106.89 55.3 108.42 56.06 109.01 56.42C111.19 57.74 112.5 60.04 113.66 62.06C113.72 62.18 113.69 62.32 113.58 62.38C113.54 62.4 113.5 62.41 113.46 62.41L113.46 62.42Z" fill="#40506F" fill-opacity="1.000000" fill-rule="nonzero"/>
	<path id="Vector" d="M27.86 31.04C26.46 32.47 25.22 34.15 24.81 36.11C24.39 38.07 24.98 40.33 26.63 41.47C27.82 42.3 29.39 42.43 30.81 42.15C32.24 41.87 33.56 41.23 34.86 40.6C38.32 38.93 41.82 37.31 45.53 36.34C49.24 35.38 53.2 35.11 56.89 36.14C57.48 36.3 58.12 36.5 58.7 36.31C59.4 36.07 59.82 35.3 59.84 34.57C59.87 33.83 59.57 33.12 59.23 32.46C54.77 23.86 42.63 22.8 34.62 26.38C32.11 27.5 29.79 29.08 27.86 31.04L27.86 31.04Z" fill="#1B2539" fill-opacity="1.000000" fill-rule="nonzero"/>
	<path id="Vector" d="M27.58 42.2C27.56 42.2 27.53 42.19 27.5 42.18C27.14 42.05 26.8 41.87 26.49 41.66C24.63 40.37 24.19 37.92 24.58 36.06C24.94 34.34 25.96 32.64 27.7 30.88C29.63 28.91 31.92 27.33 34.53 26.17C43.04 22.37 55.08 23.95 59.44 32.36C59.75 32.96 60.1 33.75 60.07 34.58C60.04 35.48 59.51 36.28 58.77 36.53C58.65 36.57 58.52 36.5 58.48 36.38C58.44 36.26 58.5 36.13 58.62 36.09C59.27 35.87 59.59 35.14 59.61 34.56C59.63 33.84 59.33 33.15 59.03 32.57C54.78 24.4 43.03 22.88 34.71 26.59C32.17 27.73 29.92 29.28 28.03 31.2C26.36 32.9 25.38 34.52 25.03 36.16C24.61 38.18 25.32 40.28 26.76 41.28C27.04 41.47 27.34 41.63 27.67 41.75C27.79 41.79 27.85 41.93 27.8 42.05C27.77 42.14 27.68 42.2 27.59 42.2L27.58 42.2Z" fill="#40506F" fill-opacity="1.000000" fill-rule="nonzero"/>
	<path id="Vector" d="M54.76 14.86L47.46 27.41C50.73 28.88 53.38 30.53 54.84 32.49L60.99 21.22C60.85 20.42 58.08 10.95 54.76 14.86Z" fill="#1B2539" fill-opacity="1.000000" fill-rule="nonzero"/>
	<path id="Vector" d="M54.84 32.73C54.77 32.73 54.7 32.69 54.66 32.63C53.36 30.89 50.98 29.25 47.36 27.62C47.3 27.59 47.26 27.54 47.24 27.48C47.22 27.42 47.23 27.35 47.26 27.29L54.56 14.74C54.57 14.73 54.58 14.72 54.59 14.71C55.31 13.86 56.08 13.54 56.86 13.75C59.36 14.42 61.1 20.51 61.22 21.17C61.23 21.23 61.22 21.28 61.19 21.33L55.05 32.6C55.01 32.67 54.94 32.72 54.86 32.72C54.85 32.72 54.85 32.72 54.84 32.72L54.84 32.73ZM47.79 27.3C51.15 28.84 53.46 30.4 54.81 32.07L60.74 21.18C60.51 20.05 58.8 14.75 56.74 14.2C56.14 14.03 55.55 14.29 54.95 14.99L47.79 27.3L47.79 27.3Z" fill="#40506F" fill-opacity="1.000000" fill-rule="nonzero"/>
	<path id="Vector" d="M55.59 33.6C55.52 33.6 55.46 33.57 55.41 33.51C51.39 28.36 45.12 26.84 45.06 26.82C44.93 26.79 44.85 26.67 44.88 26.54C44.91 26.42 45.04 26.34 45.16 26.37C45.23 26.39 51.65 27.95 55.78 33.23C55.86 33.33 55.84 33.47 55.74 33.55C55.7 33.59 55.64 33.6 55.6 33.6L55.59 33.6Z" fill="#40506F" fill-opacity="1.000000" fill-rule="nonzero"/>
	<path id="Vector" d="M70.08 4.92C68.67 1.47 64.59 -0.65 60.96 0.17C55.57 1.4 52.58 7.79 47.2 9.03C47.48 9.8 48.21 10.39 49.02 10.51C47.6 11.25 46.92 13.05 47.31 14.59C47.69 16.14 49.01 17.36 50.52 17.84C52.04 18.33 53.71 18.14 55.19 17.54L66.9 14.69C70.07 12.74 71.49 8.37 70.08 4.92Z" fill="#40506F" fill-opacity="1.000000" fill-rule="nonzero"/>
	<path id="Vector" d="M55.11 15.83C55.11 15.83 55.1 15.83 55.09 15.83C54.96 15.82 54.87 15.7 54.88 15.58C54.9 15.26 54.78 14.93 54.55 14.67C54.32 14.4 54.01 14.24 53.7 14.22C53.57 14.21 53.47 14.1 53.48 13.97C53.49 13.84 53.6 13.75 53.73 13.75C54.17 13.78 54.59 14 54.9 14.36C55.21 14.72 55.37 15.17 55.34 15.61C55.33 15.73 55.23 15.83 55.11 15.83Z" fill="#40506F" fill-opacity="1.000000" fill-rule="nonzero"/>
	<path id="Vector" d="M57.03 13.85C56.94 13.25 56.89 12.65 56.58 12.1C56.13 11.3 55.29 10.75 54.35 10.73C53.25 10.71 52.19 11.43 51.71 12.43C51.24 13.42 51.34 14.65 51.91 15.6C52.47 16.55 53.46 17.22 54.54 17.47C54.54 17.54 54.55 17.6 54.56 17.67C55.06 17.28 55.49 16.79 55.84 16.26C56.33 15.51 56.69 14.68 57.03 13.85L57.03 13.85Z" fill="#1B2539" fill-opacity="1.000000" fill-rule="nonzero"/>
	<path id="Vector" d="M54.56 17.9C54.53 17.9 54.49 17.89 54.47 17.88C54.39 17.85 54.34 17.78 54.33 17.69L54.32 17.66C53.21 17.35 52.26 16.65 51.71 15.72C51.09 14.67 51.01 13.37 51.5 12.32C52.03 11.21 53.18 10.48 54.36 10.5C55.34 10.52 56.27 11.09 56.78 11.99C57.08 12.5 57.16 13.05 57.23 13.59L57.26 13.81C57.27 13.86 57.26 13.9 57.25 13.94C56.91 14.75 56.55 15.61 56.03 16.39C55.64 16.98 55.19 17.47 54.7 17.86C54.66 17.89 54.61 17.9 54.56 17.9L54.56 17.9ZM54.31 10.96C53.33 10.96 52.36 11.6 51.92 12.52C51.49 13.43 51.56 14.57 52.1 15.48C52.61 16.34 53.54 17 54.59 17.24C54.61 17.25 54.64 17.26 54.66 17.28C55.02 16.96 55.34 16.58 55.64 16.13C56.12 15.41 56.47 14.59 56.79 13.82L56.77 13.65C56.69 13.14 56.62 12.66 56.38 12.22C55.95 11.46 55.17 10.98 54.35 10.97C54.33 10.97 54.32 10.97 54.3 10.97L54.31 10.96Z" fill="#40506F" fill-opacity="1.000000" fill-rule="nonzero"/>
	<path id="Vector" d="M67.15 12C67.01 11.07 60.68 11.6 61.01 13.58C61.39 15.9 59.14 15.77 59.17 15.91C59.76 18.26 58.71 21.55 60.81 22.74C62.02 23.41 65.91 22.61 67.26 22.4C67.35 21.83 67.41 21.25 67.46 20.68C67.67 18.09 67.54 14.56 67.15 12Z" fill="#1B2539" fill-opacity="1.000000" fill-rule="nonzero"/>
	<path id="Vector" d="M65.55 12.02C66.24 12.02 66.58 12.11 66.71 12.17C67.08 14.71 67.2 18.17 67 20.64C66.95 21.15 66.91 21.59 66.85 21.99C66.73 22.02 66.59 22.04 66.44 22.06C65.33 22.25 63.65 22.53 62.38 22.53C61.57 22.53 61.21 22.42 61.04 22.33C59.89 21.68 59.87 20.21 59.86 18.51C59.85 17.75 59.84 16.97 59.72 16.23C61.12 15.87 61.71 14.95 61.46 13.5C61.45 13.41 61.45 13.29 61.59 13.12C62.17 12.44 64.09 12.02 65.55 12.02L65.55 12.02ZM65.55 11.56C63.65 11.56 60.78 12.23 61.01 13.58C61.39 15.9 59.14 15.77 59.17 15.91C59.76 18.26 58.71 21.55 60.81 22.74C61.16 22.93 61.72 23 62.38 23C64.03 23 66.29 22.55 67.26 22.4C67.35 21.83 67.41 21.25 67.46 20.68C67.67 18.09 67.54 14.56 67.15 12C67.11 11.71 66.43 11.56 65.55 11.56Z" fill="#40506F" fill-opacity="1.000000" fill-rule="nonzero"/>
	<path id="Vector" d="M61.75 21.06C59.64 19.88 59.76 18.25 59.17 15.91C59.14 15.77 59.12 15.63 59.09 15.49C59.01 15.57 58.92 15.64 58.81 15.69C58.19 15.98 57.47 15.41 57.24 14.76C57.13 14.46 57.08 14.16 57.03 13.85C56.69 14.68 56.33 15.51 55.83 16.26C55.48 16.79 55.06 17.28 54.56 17.67C54.76 19.59 55.24 21.49 55.99 23.27C56.59 24.7 57.38 26.08 58.55 27.09C59.73 28.11 61.33 28.7 62.85 28.39C64.43 28.06 66.1 27.96 66.81 26.51C67.26 25.58 67.27 22.07 67.42 21.04C65.78 20.68 62.95 21.74 61.74 21.06L61.75 21.06Z" fill="#40506F" fill-opacity="1.000000" fill-rule="nonzero"/>
	<path id="Vector" d="M54.9 15.52C54.79 15.52 54.69 15.44 54.67 15.33C54.56 14.71 54.16 14.14 53.62 13.81C53.51 13.74 53.48 13.6 53.55 13.49C53.61 13.38 53.76 13.34 53.87 13.41C54.52 13.81 54.99 14.5 55.12 15.25C55.15 15.37 55.06 15.49 54.94 15.52C54.92 15.52 54.91 15.52 54.9 15.52L54.9 15.52Z" fill="#40506F" fill-opacity="1.000000" fill-rule="nonzero"/>
	<path id="Vector" d="M50.35 67.53L168.93 67.53L168.93 71.71L50.35 71.71L50.35 67.53Z" fill="#1B2539" fill-opacity="1.000000" fill-rule="evenodd"/>
	<path id="Vector" d="M168.46 67.99L168.46 71.25L50.81 71.25L50.81 67.99L168.46 67.99ZM168.93 67.53L50.35 67.53L50.35 71.71L168.93 71.71L168.93 67.53Z" fill="#40506F" fill-opacity="1.000000" fill-rule="nonzero"/>
	<path id="Vector" d="M34.55 190.48C34.54 190.48 34.52 190.48 34.51 190.48C34.38 190.45 34.3 190.33 34.33 190.2L39.62 163.94C39.64 163.81 39.77 163.73 39.89 163.75C40.02 163.78 40.1 163.9 40.07 164.03L34.78 190.29C34.76 190.4 34.66 190.48 34.55 190.48Z" fill="#40506F" fill-opacity="1.000000" fill-rule="nonzero"/>
	<path id="Vector" d="M43.22 147.49C43.2 147.49 43.19 147.49 43.17 147.48C43.04 147.46 42.96 147.34 42.99 147.21L57.94 73C57.96 72.88 58.09 72.79 58.21 72.82C58.34 72.85 58.42 72.97 58.39 73.1L43.44 147.3C43.42 147.41 43.32 147.49 43.21 147.49L43.22 147.49Z" fill="#40506F" fill-opacity="1.000000" fill-rule="nonzero"/>
	<path id="Vector" d="M36.99 189.62C37.34 190.97 36.53 192.34 35.18 192.69C33.83 193.03 32.46 192.22 32.12 190.87C31.77 189.53 32.59 188.16 33.93 187.81C35.28 187.47 36.65 188.28 36.99 189.62Z" fill="#40506F" fill-opacity="1.000000" fill-rule="evenodd"/>
	<path id="Vector" d="M183.96 190.48C183.85 190.48 183.76 190.4 183.74 190.29L160.12 73.1C160.1 72.97 160.18 72.85 160.3 72.82C160.43 72.8 160.55 72.88 160.58 73L184.19 190.2C184.22 190.33 184.13 190.45 184.01 190.48C183.99 190.48 183.98 190.48 183.96 190.48L183.96 190.48Z" fill="#40506F" fill-opacity="1.000000" fill-rule="nonzero"/>
	<path id="Vector" d="M186.48 190.25C186.48 191.64 185.35 192.76 183.96 192.76C182.57 192.76 181.45 191.64 181.45 190.25C181.45 188.86 182.57 187.73 183.96 187.73C185.35 187.73 186.48 188.86 186.48 190.25Z" fill="#40506F" fill-opacity="1.000000" fill-rule="nonzero"/>
	<path id="Vector" d="M124.68 67.59L93.94 67.59C93.94 65.98 95.24 64.67 96.85 64.67L127.6 64.67C127.6 66.29 126.29 67.59 124.68 67.59Z" fill="#40506F" fill-opacity="1.000000" fill-rule="nonzero"/>
	<path id="Vector" d="M124.12 65.88L138.23 35.32C139.69 36 140.33 37.73 139.65 39.19L127.33 65.88L124.12 65.88L124.12 65.88Z" fill="#40506F" fill-opacity="1.000000" fill-rule="nonzero"/>
	<path id="Vector" d="M116.1 82.24L200.72 82.24L200.72 166.86L116.1 166.86L116.1 82.24Z" fill="#1B2539" fill-opacity="1.000000" fill-rule="evenodd"/>
	<path id="Vector" d="M200.72 167.09L116.1 167.09C115.97 167.09 115.87 166.99 115.87 166.86L115.87 82.24C115.87 82.11 115.97 82 116.1 82L200.72 82C200.85 82 200.96 82.11 200.96 82.24L200.96 166.86C200.96 166.99 200.85 167.09 200.72 167.09ZM116.33 166.63L200.49 166.63L200.49 82.47L116.33 82.47L116.33 166.63Z" fill="#40506F" fill-opacity="1.000000" fill-rule="nonzero"/>
	<path id="Vector" d="M195.81 124.55C195.81 145.2 179.06 161.94 158.41 161.94C137.76 161.94 121.02 145.2 121.02 124.55C121.02 103.9 137.76 87.15 158.41 87.15C179.06 87.15 195.81 103.9 195.81 124.55Z" fill="#0478FE" fill-opacity="0.100000" fill-rule="evenodd"/>
	<path id="Vector" d="M158.41 118.15C158.28 118.15 158.18 118.05 158.18 117.92L158.18 106.07C158.18 103.48 156.88 101.09 154.69 99.7C152.5 98.3 149.79 98.12 147.44 99.21C147.32 99.26 147.19 99.21 147.13 99.09C147.07 98.98 147.13 98.84 147.24 98.79C149.74 97.63 152.62 97.82 154.94 99.31C157.26 100.79 158.65 103.32 158.65 106.07L158.65 117.92C158.65 118.05 158.54 118.15 158.42 118.15L158.41 118.15Z" fill="#0478FE" fill-opacity="1.000000" fill-rule="nonzero"/>
	<path id="Vector" d="M166.2 151.06C164.7 151.06 163.2 150.63 161.89 149.79C159.57 148.31 158.18 145.78 158.18 143.02L158.18 131.17C158.18 131.05 158.28 130.94 158.41 130.94C158.54 130.94 158.64 131.05 158.64 131.17L158.64 143.02C158.64 145.62 159.95 148 162.13 149.39C164.32 150.79 167.03 150.97 169.38 149.89C169.5 149.83 169.64 149.88 169.69 150C169.75 150.12 169.7 150.25 169.58 150.31C168.5 150.81 167.35 151.06 166.2 151.06L166.2 151.06Z" fill="#0478FE" fill-opacity="1.000000" fill-rule="nonzero"/>
	<path id="Vector" d="M155.1 119.04C155.02 119.04 154.94 119 154.9 118.92L148.97 108.66C147.68 106.42 145.35 105.01 142.76 104.89C140.17 104.78 137.73 105.97 136.24 108.09C136.16 108.2 136.02 108.22 135.92 108.15C135.81 108.07 135.78 107.93 135.86 107.82C137.45 105.57 140.03 104.3 142.78 104.43C145.53 104.55 148 106.05 149.38 108.43L155.3 118.69C155.37 118.81 155.33 118.95 155.22 119.01C155.18 119.03 155.14 119.04 155.1 119.04L155.1 119.04Z" fill="#0478FE" fill-opacity="1.000000" fill-rule="nonzero"/>
	<path id="Vector" d="M174.41 144.68C174.29 144.68 174.16 144.67 174.04 144.67C171.29 144.55 168.83 143.05 167.45 140.66L161.53 130.4C161.46 130.29 161.5 130.15 161.61 130.08C161.72 130.02 161.86 130.06 161.93 130.17L167.85 140.43C169.15 142.68 171.47 144.09 174.06 144.2C176.66 144.32 179.1 143.12 180.59 141C180.66 140.9 180.81 140.87 180.91 140.95C181.02 141.02 181.04 141.16 180.97 141.27C179.45 143.42 177.02 144.67 174.41 144.67L174.41 144.68Z" fill="#0478FE" fill-opacity="1.000000" fill-rule="nonzero"/>
	<path id="Vector" d="M130.75 121.59C130.75 121.59 130.74 121.59 130.73 121.59C130.6 121.58 130.5 121.47 130.52 121.34C130.76 118.6 132.37 116.2 134.82 114.93C137.26 113.67 140.14 113.73 142.53 115.11L152.79 121.03C152.9 121.1 152.94 121.24 152.87 121.35C152.81 121.46 152.67 121.5 152.56 121.44L142.3 115.51C140.05 114.22 137.33 114.15 135.03 115.35C132.73 116.55 131.21 118.8 130.98 121.38C130.97 121.5 130.87 121.59 130.75 121.59L130.75 121.59Z" fill="#0478FE" fill-opacity="1.000000" fill-rule="nonzero"/>
	<path id="Vector" d="M178.31 135.07C176.93 135.07 175.54 134.71 174.3 133.99L164.04 128.06C163.92 128 163.89 127.86 163.95 127.74C164.02 127.63 164.16 127.6 164.27 127.66L174.53 133.58C176.78 134.88 179.49 134.94 181.79 133.75C184.1 132.55 185.61 130.29 185.84 127.71C185.86 127.58 185.97 127.49 186.1 127.5C186.23 127.51 186.32 127.63 186.31 127.75C186.06 130.5 184.46 132.89 182.01 134.16C180.84 134.77 179.58 135.07 178.31 135.07Z" fill="#0478FE" fill-opacity="1.000000" fill-rule="nonzero"/>
	<path id="Vector" d="M132.86 135.85C132.78 135.85 132.69 135.8 132.65 135.72C131.5 133.22 131.69 130.34 133.17 128.02C134.65 125.7 137.18 124.31 139.94 124.31L151.78 124.31C151.91 124.31 152.02 124.42 152.02 124.55C152.02 124.67 151.91 124.78 151.78 124.78L139.94 124.78C137.34 124.78 134.96 126.08 133.56 128.27C132.17 130.45 131.99 133.17 133.07 135.52C133.13 135.64 133.08 135.78 132.96 135.83C132.93 135.84 132.89 135.85 132.86 135.85L132.86 135.85Z" fill="#0478FE" fill-opacity="1.000000" fill-rule="nonzero"/>
	<path id="Vector" d="M176.89 124.78L165.04 124.78C164.91 124.78 164.81 124.67 164.81 124.55C164.81 124.42 164.91 124.31 165.04 124.31L176.89 124.31C179.48 124.31 181.87 123.01 183.26 120.82C184.66 118.64 184.84 115.93 183.75 113.57C183.7 113.46 183.75 113.32 183.87 113.26C183.98 113.21 184.12 113.26 184.17 113.38C185.33 115.88 185.14 118.75 183.65 121.07C182.17 123.39 179.64 124.78 176.89 124.78L176.89 124.78Z" fill="#0478FE" fill-opacity="1.000000" fill-rule="nonzero"/>
	<path id="Vector" d="M141.82 147.14C141.77 147.14 141.73 147.13 141.69 147.1C139.44 145.52 138.17 142.93 138.29 140.18C138.41 137.43 139.91 134.96 142.3 133.59L152.56 127.66C152.67 127.6 152.81 127.64 152.87 127.75C152.94 127.86 152.9 128 152.79 128.07L142.53 133.99C140.28 135.29 138.87 137.61 138.75 140.2C138.64 142.79 139.83 145.23 141.96 146.72C142.06 146.8 142.09 146.94 142.01 147.05C141.97 147.11 141.89 147.14 141.82 147.14Z" fill="#0478FE" fill-opacity="1.000000" fill-rule="nonzero"/>
	<path id="Vector" d="M164.15 121.46C164.07 121.46 163.99 121.42 163.95 121.35C163.89 121.24 163.92 121.1 164.04 121.03L174.3 115.11C176.54 113.81 177.95 111.49 178.07 108.9C178.19 106.3 176.99 103.87 174.87 102.37C174.76 102.3 174.74 102.15 174.81 102.05C174.89 101.94 175.03 101.92 175.14 101.99C177.39 103.58 178.66 106.17 178.53 108.92C178.41 111.67 176.91 114.14 174.53 115.51L164.27 121.43C164.23 121.46 164.19 121.46 164.15 121.46L164.15 121.46Z" fill="#0478FE" fill-opacity="1.000000" fill-rule="nonzero"/>
	<path id="Vector" d="M155.23 152.44C155.23 152.44 155.21 152.44 155.21 152.44C152.46 152.2 150.07 150.59 148.8 148.14C147.53 145.7 147.6 142.82 148.97 140.43L154.9 130.17C154.96 130.06 155.11 130.02 155.22 130.09C155.33 130.15 155.37 130.29 155.3 130.4L149.38 140.66C148.08 142.91 148.02 145.63 149.22 147.93C150.41 150.23 152.67 151.75 155.25 151.98C155.38 151.99 155.47 152.11 155.46 152.23C155.45 152.35 155.35 152.44 155.23 152.44L155.23 152.44Z" fill="#0478FE" fill-opacity="1.000000" fill-rule="nonzero"/>
	<path id="Vector" d="M161.73 119.04C161.69 119.04 161.65 119.03 161.61 119.01C161.5 118.94 161.46 118.8 161.53 118.69L167.45 108.43C168.75 106.18 168.81 103.47 167.61 101.17C166.42 98.86 164.16 97.35 161.58 97.11C161.45 97.1 161.36 96.99 161.37 96.86C161.38 96.73 161.49 96.64 161.62 96.65C164.36 96.9 166.76 98.5 168.03 100.95C169.29 103.39 169.23 106.28 167.85 108.66L161.93 118.92C161.88 119 161.81 119.04 161.73 119.04L161.73 119.04Z" fill="#0478FE" fill-opacity="1.000000" fill-rule="nonzero"/>
	<path id="Vector" d="M168.59 124.55C168.59 130.17 164.04 134.73 158.41 134.73C152.79 134.73 148.23 130.17 148.23 124.55C148.23 118.92 152.79 114.37 158.41 114.37C164.04 114.37 168.59 118.92 168.59 124.55Z" fill="#1B2539" fill-opacity="1.000000" fill-rule="evenodd"/>
	<path id="Vector" d="M204.52 82.24L289.15 82.24L289.15 166.86L204.52 166.86L204.52 82.24Z" fill="#1B2539" fill-opacity="1.000000" fill-rule="evenodd"/>
	<path id="Vector" d="M289.15 167.09L204.52 167.09C204.4 167.09 204.29 166.99 204.29 166.86L204.29 82.24C204.29 82.11 204.4 82 204.52 82L289.15 82C289.27 82 289.38 82.11 289.38 82.24L289.38 166.86C289.38 166.99 289.27 167.09 289.15 167.09ZM204.76 166.63L288.91 166.63L288.91 82.47L204.76 82.47L204.76 166.63Z" fill="#40506F" fill-opacity="1.000000" fill-rule="nonzero"/>
	<path id="Vector" d="M284.23 124.55C284.23 145.2 267.49 161.94 246.84 161.94C226.18 161.94 209.44 145.2 209.44 124.55C209.44 103.9 226.18 87.15 246.84 87.15C267.49 87.15 284.23 103.9 284.23 124.55Z" fill="#0478FE" fill-opacity="0.100000" fill-rule="evenodd"/>
	<path id="Vector" d="M246.84 118.15C246.71 118.15 246.6 118.05 246.6 117.92L246.6 106.07C246.6 103.48 245.3 101.09 243.11 99.7C240.92 98.3 238.22 98.12 235.86 99.21C235.75 99.26 235.61 99.21 235.55 99.09C235.5 98.98 235.55 98.84 235.67 98.79C238.17 97.63 241.04 97.82 243.36 99.31C245.68 100.79 247.07 103.32 247.07 106.07L247.07 117.92C247.07 118.05 246.97 118.15 246.84 118.15L246.84 118.15Z" fill="#0478FE" fill-opacity="1.000000" fill-rule="nonzero"/>
	<path id="Vector" d="M254.63 151.06C253.12 151.06 251.62 150.63 250.31 149.79C247.99 148.31 246.6 145.78 246.6 143.02L246.6 131.17C246.6 131.05 246.71 130.94 246.83 130.94C246.96 130.94 247.07 131.05 247.07 131.17L247.07 143.02C247.07 145.62 248.37 148 250.56 149.39C252.74 150.79 255.45 150.97 257.81 149.89C257.92 149.83 258.06 149.88 258.12 150C258.17 150.12 258.12 150.25 258 150.31C256.92 150.81 255.77 151.06 254.62 151.06L254.63 151.06Z" fill="#0478FE" fill-opacity="1.000000" fill-rule="nonzero"/>
	<path id="Vector" d="M243.52 119.04C243.44 119.04 243.36 119 243.32 118.92L237.39 108.66C236.1 106.42 233.78 105.01 231.18 104.89C228.59 104.78 226.15 105.97 224.66 108.09C224.59 108.2 224.44 108.22 224.34 108.15C224.23 108.07 224.21 107.93 224.28 107.82C225.87 105.57 228.46 104.3 231.21 104.43C233.96 104.55 236.42 106.05 237.8 108.43L243.72 118.69C243.79 118.81 243.75 118.95 243.64 119.01C243.6 119.03 243.56 119.04 243.52 119.04L243.52 119.04Z" fill="#0478FE" fill-opacity="1.000000" fill-rule="nonzero"/>
	<path id="Vector" d="M262.83 144.68C262.71 144.68 262.59 144.67 262.47 144.67C259.72 144.55 257.25 143.05 255.87 140.66L249.95 130.4C249.88 130.29 249.92 130.15 250.04 130.08C250.15 130.02 250.29 130.06 250.35 130.17L256.28 140.43C257.57 142.68 259.9 144.09 262.49 144.2C265.08 144.32 267.52 143.12 269.01 141C269.09 140.9 269.23 140.87 269.34 140.95C269.44 141.02 269.47 141.16 269.39 141.27C267.88 143.42 265.45 144.67 262.84 144.67L262.83 144.68Z" fill="#0478FE" fill-opacity="1.000000" fill-rule="nonzero"/>
	<path id="Vector" d="M219.17 121.59C219.17 121.59 219.16 121.59 219.15 121.59C219.02 121.58 218.93 121.47 218.94 121.34C219.19 118.6 220.79 116.2 223.24 114.93C225.68 113.67 228.57 113.73 230.95 115.11L241.21 121.03C241.32 121.1 241.36 121.24 241.3 121.35C241.23 121.46 241.09 121.5 240.98 121.44L230.72 115.51C228.47 114.22 225.75 114.15 223.45 115.35C221.15 116.55 219.64 118.8 219.4 121.38C219.39 121.5 219.29 121.6 219.17 121.6L219.17 121.59Z" fill="#0478FE" fill-opacity="1.000000" fill-rule="nonzero"/>
	<path id="Vector" d="M266.73 135.07C265.35 135.07 263.97 134.71 262.72 133.99L252.46 128.06C252.35 128 252.31 127.86 252.37 127.74C252.44 127.63 252.58 127.6 252.69 127.66L262.95 133.58C265.2 134.88 267.91 134.94 270.22 133.75C272.52 132.55 274.03 130.29 274.27 127.71C274.28 127.58 274.39 127.49 274.52 127.5C274.65 127.51 274.74 127.63 274.73 127.75C274.48 130.5 272.88 132.89 270.43 134.16C269.26 134.77 268 135.07 266.73 135.07Z" fill="#0478FE" fill-opacity="1.000000" fill-rule="nonzero"/>
	<path id="Vector" d="M221.29 135.85C221.2 135.85 221.11 135.8 221.07 135.72C219.92 133.22 220.11 130.34 221.59 128.02C223.08 125.7 225.61 124.31 228.36 124.31L240.21 124.31C240.33 124.31 240.44 124.42 240.44 124.55C240.44 124.67 240.33 124.78 240.21 124.78L228.36 124.78C225.77 124.78 223.38 126.08 221.99 128.27C220.59 130.45 220.41 133.17 221.5 135.52C221.55 135.64 221.5 135.77 221.38 135.83C221.35 135.84 221.32 135.85 221.29 135.85L221.29 135.85Z" fill="#0478FE" fill-opacity="1.000000" fill-rule="nonzero"/>
	<path id="Vector" d="M265.31 124.78L253.46 124.78C253.34 124.78 253.23 124.67 253.23 124.55C253.23 124.42 253.34 124.31 253.46 124.31L265.31 124.31C267.9 124.31 270.29 123.01 271.68 120.82C273.08 118.64 273.26 115.93 272.17 113.57C272.12 113.46 272.17 113.32 272.29 113.26C272.4 113.21 272.54 113.26 272.6 113.38C273.75 115.88 273.56 118.75 272.08 121.07C270.59 123.39 268.07 124.78 265.31 124.78L265.31 124.78Z" fill="#0478FE" fill-opacity="1.000000" fill-rule="nonzero"/>
	<path id="Vector" d="M230.24 147.14C230.2 147.14 230.15 147.13 230.11 147.1C227.86 145.52 226.59 142.93 226.71 140.18C226.83 137.43 228.33 134.96 230.72 133.59L240.98 127.66C241.09 127.6 241.23 127.64 241.3 127.75C241.36 127.86 241.32 128 241.21 128.07L230.95 133.99C228.7 135.29 227.29 137.61 227.18 140.2C227.06 142.79 228.26 145.23 230.38 146.72C230.48 146.8 230.51 146.94 230.43 147.05C230.39 147.11 230.32 147.14 230.24 147.14Z" fill="#0478FE" fill-opacity="1.000000" fill-rule="nonzero"/>
	<path id="Vector" d="M252.58 121.46C252.5 121.46 252.42 121.42 252.37 121.35C252.31 121.24 252.35 121.1 252.46 121.03L262.72 115.11C264.97 113.81 266.38 111.49 266.5 108.9C266.61 106.3 265.42 103.87 263.29 102.37C263.19 102.3 263.16 102.15 263.24 102.05C263.31 101.94 263.46 101.92 263.56 101.99C265.81 103.58 267.08 106.17 266.96 108.92C266.83 111.67 265.34 114.13 262.95 115.51L252.69 121.43C252.65 121.46 252.61 121.46 252.57 121.46L252.58 121.46Z" fill="#0478FE" fill-opacity="1.000000" fill-rule="nonzero"/>
	<path id="Vector" d="M243.65 152.44C243.65 152.44 243.63 152.44 243.63 152.44C240.89 152.2 238.49 150.59 237.22 148.14C235.95 145.7 236.02 142.82 237.4 140.43L243.32 130.17C243.39 130.06 243.53 130.02 243.64 130.09C243.75 130.15 243.79 130.29 243.73 130.4L237.8 140.66C236.5 142.91 236.44 145.63 237.64 147.93C238.83 150.23 241.09 151.75 243.67 151.98C243.8 151.99 243.9 152.11 243.88 152.23C243.87 152.35 243.77 152.44 243.65 152.44L243.65 152.44Z" fill="#0478FE" fill-opacity="1.000000" fill-rule="nonzero"/>
	<path id="Vector" d="M250.15 119.04C250.11 119.04 250.07 119.03 250.03 119.01C249.92 118.94 249.88 118.8 249.95 118.69L255.87 108.43C257.17 106.18 257.23 103.47 256.03 101.17C254.84 98.86 252.58 97.35 250 97.11C249.87 97.1 249.78 96.99 249.79 96.86C249.8 96.73 249.92 96.64 250.04 96.65C252.79 96.9 255.18 98.5 256.45 100.95C257.72 103.39 257.65 106.28 256.27 108.66L250.35 118.92C250.31 119 250.23 119.04 250.15 119.04L250.15 119.04Z" fill="#0478FE" fill-opacity="1.000000" fill-rule="nonzero"/>
	<path id="Vector" d="M257.01 124.55C257.01 130.17 252.46 134.73 246.84 134.73C241.21 134.73 236.66 130.17 236.66 124.55C236.66 118.92 241.21 114.37 246.84 114.37C252.46 114.37 257.01 118.92 257.01 124.55Z" fill="#1B2539" fill-opacity="1.000000" fill-rule="evenodd"/>
	<path id="Vector" d="M270.83 22.12L253.57 22.12C253.45 22.12 253.34 22.01 253.34 21.88C253.34 21.76 253.45 21.65 253.57 21.65L270.73 21.65L282.53 9.86C282.62 9.77 282.76 9.77 282.85 9.86C282.95 9.95 282.95 10.09 282.85 10.18L270.99 22.05C270.95 22.09 270.89 22.11 270.83 22.11L270.83 22.12Z" fill="#40506F" fill-opacity="1.000000" fill-rule="nonzero"/>
	<path id="Vector" d="M286.12 10.02C286.12 11.91 284.58 13.45 282.69 13.45C280.8 13.45 279.26 11.91 279.26 10.02C279.26 8.13 280.8 6.59 282.69 6.59C284.58 6.59 286.12 8.13 286.12 10.02Z" fill="#1B2539" fill-opacity="1.000000" fill-rule="evenodd"/>
	<path id="Vector" d="M282.69 13.68C280.67 13.68 279.03 12.04 279.03 10.02C279.03 8 280.67 6.36 282.69 6.36C284.71 6.36 286.35 8 286.35 10.02C286.35 12.04 284.71 13.68 282.69 13.68ZM282.69 6.83C280.93 6.83 279.49 8.26 279.49 10.02C279.49 11.78 280.93 13.22 282.69 13.22C284.45 13.22 285.89 11.78 285.89 10.02C285.89 8.26 284.45 6.83 282.69 6.83Z" fill="#40506F" fill-opacity="1.000000" fill-rule="nonzero"/>
	<path id="Vector" d="M282.69 32.73L253.57 32.73C253.45 32.73 253.34 32.62 253.34 32.49C253.34 32.37 253.45 32.26 253.57 32.26L282.69 32.26C282.82 32.26 282.92 32.37 282.92 32.49C282.92 32.62 282.82 32.73 282.69 32.73Z" fill="#40506F" fill-opacity="1.000000" fill-rule="nonzero"/>
	<path id="Vector" d="M286.12 32.49C286.12 34.39 284.58 35.92 282.69 35.92C280.8 35.92 279.26 34.39 279.26 32.49C279.26 30.6 280.8 29.07 282.69 29.07C284.58 29.07 286.12 30.6 286.12 32.49Z" fill="#1B2539" fill-opacity="1.000000" fill-rule="evenodd"/>
	<path id="Vector" d="M282.69 36.15C280.67 36.15 279.03 34.51 279.03 32.49C279.03 30.48 280.67 28.83 282.69 28.83C284.71 28.83 286.35 30.48 286.35 32.49C286.35 34.51 284.71 36.15 282.69 36.15ZM282.69 29.3C280.93 29.3 279.49 30.73 279.49 32.49C279.49 34.25 280.93 35.69 282.69 35.69C284.45 35.69 285.89 34.25 285.89 32.49C285.89 30.73 284.45 29.3 282.69 29.3Z" fill="#40506F" fill-opacity="1.000000" fill-rule="nonzero"/>
	<path id="Vector" d="M284.23 63.08C284.17 63.08 284.11 63.06 284.06 63.01L264.45 43.4L253.57 43.4C253.45 43.4 253.34 43.3 253.34 43.17C253.34 43.04 253.45 42.94 253.57 42.94L264.54 42.94C264.61 42.94 264.67 42.96 264.71 43L284.39 62.68C284.48 62.77 284.48 62.92 284.39 63.01C284.34 63.06 284.29 63.08 284.23 63.08L284.23 63.08Z" fill="#40506F" fill-opacity="1.000000" fill-rule="nonzero"/>
	<path id="Vector" d="M286.12 62.18C286.12 64.08 284.58 65.61 282.69 65.61C280.8 65.61 279.26 64.08 279.26 62.18C279.26 60.29 280.8 58.75 282.69 58.75C284.58 58.75 286.12 60.29 286.12 62.18Z" fill="#1B2539" fill-opacity="1.000000" fill-rule="evenodd"/>
	<path id="Vector" d="M282.69 65.84C280.67 65.84 279.03 64.2 279.03 62.18C279.03 60.16 280.67 58.52 282.69 58.52C284.71 58.52 286.35 60.16 286.35 62.18C286.35 64.2 284.71 65.84 282.69 65.84ZM282.69 58.98C280.93 58.98 279.49 60.42 279.49 62.18C279.49 63.94 280.93 65.38 282.69 65.38C284.45 65.38 285.89 63.94 285.89 62.18C285.89 60.42 284.45 58.98 282.69 58.98Z" fill="#40506F" fill-opacity="1.000000" fill-rule="nonzero"/>
	<path id="Vector" d="M147.42 21.88L159.28 21.88C159.91 21.88 160.41 22.39 160.41 23.02L160.41 24.72C160.41 25.35 159.91 25.85 159.28 25.85L147.42 25.85C146.8 25.85 146.29 25.35 146.29 24.72L146.29 23.02C146.29 22.39 146.8 21.88 147.42 21.88Z" fill="#192D4D" fill-opacity="1.000000" fill-rule="evenodd"/>
	<path id="Vector" d="M147.28 31.2L159.14 31.2C159.76 31.2 160.27 31.71 160.27 32.33L160.27 34.03C160.27 34.66 159.76 35.17 159.14 35.17L147.28 35.17C146.66 35.17 146.15 34.66 146.15 34.03L146.15 32.33C146.15 31.71 146.66 31.2 147.28 31.2Z" fill="#0478FE" fill-opacity="1.000000" fill-rule="evenodd"/>
	<path id="Vector" d="M147.28 39.66L159.14 39.66C159.76 39.66 160.27 40.17 160.27 40.8L160.27 42.5C160.27 43.13 159.76 43.63 159.14 43.63L147.28 43.63C146.66 43.63 146.15 43.13 146.15 42.5L146.15 40.8C146.15 40.17 146.66 39.66 147.28 39.66Z" fill="#192D4D" fill-opacity="1.000000" fill-rule="evenodd"/>
	<path id="Vector" d="M169.06 21.88L197.22 21.88C197.84 21.88 198.35 22.39 198.35 23.02L198.35 24.72C198.35 25.35 197.84 25.85 197.22 25.85L169.06 25.85C168.44 25.85 167.93 25.35 167.93 24.72L167.93 23.02C167.93 22.39 168.44 21.88 169.06 21.88Z" fill="#192D4D" fill-opacity="1.000000" fill-rule="evenodd"/>
	<path id="Vector" d="M168.92 31.2L180.2 31.2C180.83 31.2 181.33 31.71 181.33 32.33L181.33 34.03C181.33 34.66 180.83 35.17 180.2 35.17L168.92 35.17C168.29 35.17 167.78 34.66 167.78 34.03L167.78 32.33C167.78 31.71 168.29 31.2 168.92 31.2Z" fill="#192D4D" fill-opacity="1.000000" fill-rule="evenodd"/>
	<path id="Vector" d="M168.92 39.66L186.96 39.66C187.58 39.66 188.09 40.17 188.09 40.8L188.09 42.5C188.09 43.13 187.58 43.63 186.96 43.63L168.92 43.63C168.29 43.63 167.78 43.13 167.78 42.5L167.78 40.8C167.78 40.17 168.29 39.66 168.92 39.66Z" fill="#192D4D" fill-opacity="1.000000" fill-rule="evenodd"/>
	<path id="Vector" d="M147.42 48.29L159.28 48.29C159.91 48.29 160.41 48.8 160.41 49.42L160.41 51.13C160.41 51.75 159.91 52.26 159.28 52.26L147.42 52.26C146.8 52.26 146.29 51.75 146.29 51.13L146.29 49.42C146.29 48.8 146.8 48.29 147.42 48.29Z" fill="#192D4D" fill-opacity="1.000000" fill-rule="evenodd"/>
	<path id="Vector" d="M169.06 48.29L210.75 48.29C211.37 48.29 211.88 48.8 211.88 49.42L211.88 51.13C211.88 51.75 211.37 52.26 210.75 52.26L169.06 52.26C168.44 52.26 167.93 51.75 167.93 51.13L167.93 49.42C167.93 48.8 168.44 48.29 169.06 48.29Z" fill="#192D4D" fill-opacity="1.000000" fill-rule="evenodd"/>
	<path id="Vector" d="M216.36 48.29L240.43 48.29C241.06 48.29 241.56 48.8 241.56 49.42L241.56 51.13C241.56 51.75 241.06 52.26 240.43 52.26L216.36 52.26C215.73 52.26 215.22 51.75 215.22 51.13L215.22 49.42C215.22 48.8 215.73 48.29 216.36 48.29Z" fill="#192D4D" fill-opacity="1.000000" fill-rule="evenodd"/>
	<path id="Vector" d="M202.55 21.88L240.43 21.88C241.06 21.88 241.56 22.39 241.56 23.02L241.56 24.72C241.56 25.35 241.06 25.85 240.43 25.85L202.55 25.85C201.92 25.85 201.41 25.35 201.41 24.72L201.41 23.02C201.41 22.39 201.92 21.88 202.55 21.88Z" fill="#192D4D" fill-opacity="1.000000" fill-rule="evenodd"/>
	<path id="Vector" d="M185.81 31.2L220.63 31.2C221.26 31.2 221.76 31.71 221.76 32.33L221.76 34.03C221.76 34.66 221.26 35.17 220.63 35.17L185.81 35.17C185.18 35.17 184.68 34.66 184.68 34.03L184.68 32.33C184.68 31.71 185.18 31.2 185.81 31.2Z" fill="#192D4D" fill-opacity="1.000000" fill-rule="evenodd"/>
	<path id="Vector" d="M192.57 39.66L229.19 39.66C229.81 39.66 230.32 40.17 230.32 40.8L230.32 42.5C230.32 43.13 229.81 43.63 229.19 43.63L192.57 43.63C191.94 43.63 191.43 43.13 191.43 42.5L191.43 40.8C191.43 40.17 191.94 39.66 192.57 39.66Z" fill="#192D4D" fill-opacity="1.000000" fill-rule="evenodd"/>
	<path id="Vector" d="M253.57 64.44L170.82 64.44C170.69 64.44 170.59 64.34 170.59 64.21C170.59 64.08 170.69 63.98 170.82 63.98L253.34 63.98L253.34 7.02L124.35 7.02L124.35 48.29C124.35 48.42 124.25 48.52 124.12 48.52C123.99 48.52 123.89 48.42 123.89 48.29L123.89 6.79C123.89 6.66 123.99 6.55 124.12 6.55L253.57 6.55C253.7 6.55 253.81 6.66 253.81 6.79L253.81 64.21C253.81 64.34 253.7 64.44 253.57 64.44Z" fill="#40506F" fill-opacity="1.000000" fill-rule="nonzero"/>
	<path id="Vector" d="M124.12 32.73L87.37 32.73C87.24 32.73 87.14 32.62 87.14 32.49C87.14 32.37 87.24 32.26 87.37 32.26L124.12 32.26C124.25 32.26 124.35 32.37 124.35 32.49C124.35 32.62 124.25 32.73 124.12 32.73Z" fill="#40506F" fill-opacity="1.000000" fill-rule="nonzero"/>
	<path id="Vector" d="M124.12 22.12L109.9 22.12C109.84 22.12 109.78 22.09 109.73 22.05L97.56 9.88C97.47 9.78 97.47 9.64 97.56 9.55C97.65 9.46 97.8 9.46 97.89 9.55L109.99 21.65L124.11 21.65C124.24 21.65 124.35 21.76 124.35 21.88C124.35 22.01 124.24 22.12 124.11 22.12L124.12 22.12Z" fill="#40506F" fill-opacity="1.000000" fill-rule="nonzero"/>
	<path id="Vector" d="M101.15 9.06C101.15 10.95 99.62 12.48 97.73 12.48C95.83 12.48 94.3 10.95 94.3 9.06C94.3 7.16 95.83 5.63 97.73 5.63C99.62 5.63 101.15 7.16 101.15 9.06Z" fill="#1B2539" fill-opacity="1.000000" fill-rule="evenodd"/>
	<path id="Vector" d="M97.73 12.72C95.71 12.72 94.07 11.08 94.07 9.06C94.07 7.04 95.71 5.4 97.73 5.4C99.74 5.4 101.39 7.04 101.39 9.06C101.39 11.08 99.74 12.72 97.73 12.72ZM97.73 5.86C95.96 5.86 94.53 7.29 94.53 9.06C94.53 10.82 95.96 12.25 97.73 12.25C99.49 12.25 100.92 10.82 100.92 9.06C100.92 7.29 99.49 5.86 97.73 5.86Z" fill="#40506F" fill-opacity="1.000000" fill-rule="nonzero"/>
	<path id="Vector" d="M90.8 32.49C90.8 34.39 89.26 35.92 87.37 35.92C85.47 35.92 83.94 34.39 83.94 32.49C83.94 30.6 85.47 29.07 87.37 29.07C89.26 29.07 90.8 30.6 90.8 32.49Z" fill="#1B2539" fill-opacity="1.000000" fill-rule="evenodd"/>
	<path id="Vector" d="M87.37 36.15C85.35 36.15 83.71 34.51 83.71 32.49C83.71 30.48 85.35 28.83 87.37 28.83C89.39 28.83 91.03 30.48 91.03 32.49C91.03 34.51 89.39 36.15 87.37 36.15ZM87.37 29.3C85.6 29.3 84.17 30.73 84.17 32.49C84.17 34.25 85.6 35.69 87.37 35.69C89.13 35.69 90.56 34.25 90.56 32.49C90.56 30.73 89.13 29.3 87.37 29.3Z" fill="#40506F" fill-opacity="1.000000" fill-rule="nonzero"/>
</svg>
