<svg width="290.000000" height="193.000000" viewBox="0 0 290 193" fill="none" xmlns="http://www.w3.org/2000/svg" xmlns:xlink="http://www.w3.org/1999/xlink">
	<desc>
			Created with Pixso.
	</desc>
	<defs/>
	<path id="Vector" d="M119.35 29.31L289.03 29.31L289.03 69.49L119.35 69.49L119.35 29.31Z" fill="#151E2E" fill-opacity="1.000000" fill-rule="evenodd"/>
	<g opacity="0.100000">
		<path id="Vector" d="M158.43 49.32C158.43 56.99 152.22 63.2 144.56 63.2C136.89 63.2 130.68 56.99 130.68 49.32C130.68 41.66 136.89 35.44 144.56 35.44C152.22 35.44 158.43 41.66 158.43 49.32Z" fill="#0478FE" fill-opacity="1.000000" fill-rule="evenodd"/>
	</g>
	<path id="Vector" d="M145.34 57.31L141.63 57.31C141.5 57.31 141.39 57.2 141.39 57.07L141.39 48.79C141.39 48.77 141.39 48.76 141.39 48.74C141.39 48.73 141.39 48.71 141.39 48.7L141.39 41.78C141.39 41.72 141.41 41.66 141.45 41.62C141.5 41.57 141.56 41.55 141.62 41.55L144.96 41.55C146.84 41.55 148.37 43.08 148.37 44.96L148.37 45.56C148.37 46.93 147.57 48.11 146.41 48.65C148.12 49.12 149.38 50.69 149.38 52.55L149.38 53.27C149.38 55.49 147.57 57.31 145.35 57.31L145.34 57.31ZM141.86 56.84L145.34 56.84C147.31 56.84 148.92 55.24 148.92 53.27L148.92 52.55C148.92 50.58 147.31 48.97 145.34 48.97L141.86 48.97L141.86 56.84ZM141.86 48.51L144.96 48.51C146.58 48.51 147.91 47.19 147.91 45.57L147.91 44.96C147.91 43.34 146.58 42.02 144.96 42.02L141.85 42.02L141.86 48.51L141.86 48.51Z" fill="#0478FE" fill-opacity="1.000000" fill-rule="nonzero"/>
	<path id="Vector" d="M142.43 41.99C142.31 41.99 142.2 41.89 142.2 41.76L142.2 40.38C142.2 40.25 142.31 40.15 142.43 40.15C142.56 40.15 142.67 40.25 142.67 40.38L142.67 41.76C142.67 41.89 142.56 41.99 142.43 41.99Z" fill="#0478FE" fill-opacity="1.000000" fill-rule="nonzero"/>
	<path id="Vector" d="M145.15 41.99C145.03 41.99 144.92 41.89 144.92 41.76L144.92 40.38C144.92 40.25 145.03 40.15 145.15 40.15C145.28 40.15 145.39 40.25 145.39 40.38L145.39 41.76C145.39 41.89 145.28 41.99 145.15 41.99Z" fill="#0478FE" fill-opacity="1.000000" fill-rule="nonzero"/>
	<path id="Vector" d="M142.43 58.7C142.31 58.7 142.2 58.59 142.2 58.46L142.2 57.08C142.2 56.95 142.31 56.85 142.43 56.85C142.56 56.85 142.67 56.95 142.67 57.08L142.67 58.46C142.67 58.59 142.56 58.7 142.43 58.7Z" fill="#0478FE" fill-opacity="1.000000" fill-rule="nonzero"/>
	<path id="Vector" d="M145.15 58.7C145.03 58.7 144.92 58.59 144.92 58.46L144.92 57.08C144.92 56.95 145.03 56.85 145.15 56.85C145.28 56.85 145.39 56.95 145.39 57.08L145.39 58.46C145.39 58.59 145.28 58.7 145.15 58.7Z" fill="#0478FE" fill-opacity="1.000000" fill-rule="nonzero"/>
	<g opacity="0.100000">
		<path id="Vector" d="M214.51 49.32C214.51 56.99 208.29 63.2 200.63 63.2C192.96 63.2 186.75 56.99 186.75 49.32C186.75 41.66 192.96 35.44 200.63 35.44C208.29 35.44 214.51 41.66 214.51 49.32Z" fill="#0478FE" fill-opacity="1.000000" fill-rule="evenodd"/>
	</g>
	<path id="Vector" d="M194.96 49.56C194.92 49.56 194.88 49.54 194.84 49.52C194.73 49.45 194.7 49.31 194.77 49.2L200.43 40.25C200.5 40.14 200.64 40.11 200.75 40.18C200.86 40.25 200.89 40.39 200.82 40.5L195.16 49.45C195.12 49.52 195.04 49.55 194.96 49.55L194.96 49.56Z" fill="#0478FE" fill-opacity="1.000000" fill-rule="nonzero"/>
	<path id="Vector" d="M200.63 58.5C200.59 58.5 200.54 58.49 200.51 58.46C200.4 58.4 200.37 58.25 200.43 58.14L206.1 49.2C206.16 49.09 206.31 49.06 206.42 49.13C206.53 49.19 206.56 49.34 206.49 49.45L200.83 58.39C200.78 58.46 200.71 58.5 200.63 58.5L200.63 58.5Z" fill="#0478FE" fill-opacity="1.000000" fill-rule="nonzero"/>
	<path id="Vector" d="M197.8 54.03C197.76 54.03 197.71 54.02 197.67 53.99C197.57 53.92 197.53 53.78 197.6 53.67L203.27 44.73C203.33 44.62 203.48 44.58 203.58 44.65C203.69 44.72 203.73 44.87 203.66 44.97L197.99 53.92C197.95 53.99 197.88 54.03 197.8 54.03L197.8 54.03Z" fill="#0478FE" fill-opacity="1.000000" fill-rule="nonzero"/>
	<path id="Vector" d="M181.09 47.29L164.63 47.29C164.5 47.29 164.4 47.19 164.4 47.06C164.4 46.93 164.5 46.83 164.63 46.83L181.09 46.83C181.22 46.83 181.32 46.93 181.32 47.06C181.32 47.19 181.22 47.29 181.09 47.29Z" fill="#0478FE" fill-opacity="1.000000" fill-rule="nonzero"/>
	<path id="Vector" d="M165.55 47.85L164.76 47.06L165.55 46.27L164.89 46.27L164.1 47.06L164.89 47.85L165.55 47.85Z" fill="#0478FE" fill-opacity="1.000000" fill-rule="nonzero"/>
	<path id="Vector" d="M180.56 52.39L164.1 52.39C163.97 52.39 163.87 52.28 163.87 52.16C163.87 52.03 163.97 51.92 164.1 51.92L180.56 51.92C180.68 51.92 180.79 52.03 180.79 52.16C180.79 52.28 180.68 52.39 180.56 52.39Z" fill="#0478FE" fill-opacity="1.000000" fill-rule="nonzero"/>
	<path id="Vector" d="M179.63 52.94L180.42 52.16L179.63 51.37L180.3 51.37L181.09 52.16L180.3 52.94L179.63 52.94Z" fill="#0478FE" fill-opacity="1.000000" fill-rule="nonzero"/>
	<path id="Vector" d="M272.04 49.56L247.23 49.56C247.1 49.56 246.99 49.45 246.99 49.32C246.99 49.2 247.1 49.09 247.23 49.09L272.04 49.09C272.17 49.09 272.27 49.2 272.27 49.32C272.27 49.45 272.17 49.56 272.04 49.56Z" fill="#1B2539" fill-opacity="1.000000" fill-rule="nonzero"/>
	<path id="Vector" d="M241.56 49.56L231.5 49.56C231.37 49.56 231.27 49.45 231.27 49.32C231.27 49.2 231.37 49.09 231.5 49.09L241.56 49.09C241.69 49.09 241.8 49.2 241.8 49.32C241.8 49.45 241.69 49.56 241.56 49.56Z" fill="#1B2539" fill-opacity="1.000000" fill-rule="nonzero"/>
	<path id="Vector" d="M272.04 55.22L257.29 55.22C257.16 55.22 257.06 55.11 257.06 54.99C257.06 54.86 257.16 54.75 257.29 54.75L272.04 54.75C272.17 54.75 272.27 54.86 272.27 54.99C272.27 55.11 272.17 55.22 272.04 55.22Z" fill="#1B2539" fill-opacity="1.000000" fill-rule="nonzero"/>
	<path id="Vector" d="M251.63 55.22L231.5 55.22C231.37 55.22 231.27 55.11 231.27 54.99C231.27 54.86 231.37 54.75 231.5 54.75L251.63 54.75C251.76 54.75 251.86 54.86 251.86 54.99C251.86 55.11 251.76 55.22 251.63 55.22Z" fill="#1B2539" fill-opacity="1.000000" fill-rule="nonzero"/>
	<path id="Vector" d="M251.77 60.88L231.5 60.88C231.37 60.88 231.27 60.78 231.27 60.65C231.27 60.52 231.37 60.42 231.5 60.42L251.77 60.42C251.9 60.42 252 60.52 252 60.65C252 60.78 251.9 60.88 251.77 60.88Z" fill="#1B2539" fill-opacity="1.000000" fill-rule="nonzero"/>
	<path id="Vector" d="M272.04 43.89L231.5 43.89C231.37 43.89 231.26 43.79 231.26 43.66L231.26 38C231.26 37.87 231.37 37.77 231.5 37.77L272.04 37.77C272.17 37.77 272.27 37.87 272.27 38L272.27 43.66C272.27 43.79 272.17 43.89 272.04 43.89ZM231.73 43.43L271.81 43.43L271.81 38.23L231.73 38.23L231.73 43.43Z" fill="#0478FE" fill-opacity="1.000000" fill-rule="nonzero"/>
	<path id="Vector" d="M186.75 75.32L289.03 75.32L289.03 124.04L186.75 124.04L186.75 75.32Z" fill="#1B2539" fill-opacity="1.000000" fill-rule="evenodd"/>
	<path id="Vector" d="M289.03 124.28L186.75 124.28C186.62 124.28 186.52 124.17 186.52 124.04L186.52 75.32C186.52 75.19 186.62 75.09 186.75 75.09L289.03 75.09C289.16 75.09 289.26 75.19 289.26 75.32L289.26 124.04C289.26 124.17 289.16 124.28 289.03 124.28ZM186.98 123.81L288.8 123.81L288.8 75.55L186.98 75.55L186.98 123.81Z" fill="#40506F" fill-opacity="1.000000" fill-rule="nonzero"/>
	<path id="Vector" d="M205.58 119.22L194.85 119.22L200.22 101.36L205.58 119.22Z" fill="#0478FE" fill-opacity="1.000000" fill-rule="nonzero"/>
	<path id="Vector" d="M216.32 119.22L205.58 119.22L210.95 88.05L216.32 119.22Z" fill="#0478FE" fill-opacity="1.000000" fill-rule="nonzero"/>
	<path id="Vector" d="M227.05 119.22L216.32 119.22L221.68 86.68L227.05 119.22Z" fill="#0478FE" fill-opacity="1.000000" fill-rule="nonzero"/>
	<path id="Vector" d="M237.77 119.22L227.05 119.22L232.41 79.25L237.77 119.22Z" fill="#0478FE" fill-opacity="1.000000" fill-rule="nonzero"/>
	<path id="Vector" d="M248.51 119.22L237.78 119.22L243.14 107.96L248.51 119.22Z" fill="#0478FE" fill-opacity="1.000000" fill-rule="nonzero"/>
	<path id="Vector" d="M259.24 119.22L248.51 119.22L253.87 89.29L259.24 119.22Z" fill="#0478FE" fill-opacity="1.000000" fill-rule="nonzero"/>
	<path id="Vector" d="M269.97 119.22L259.24 119.22L264.6 96.69L269.97 119.22Z" fill="#0478FE" fill-opacity="1.000000" fill-rule="nonzero"/>
	<path id="Vector" d="M280.7 119.22L269.97 119.22L275.33 96.69L280.7 119.22Z" fill="#0478FE" fill-opacity="1.000000" fill-rule="nonzero"/>
	<path id="Vector" d="M186.75 131.6L197.65 131.6L197.65 170.34L186.75 170.34L186.75 131.6Z" fill="#1B2539" fill-opacity="1.000000" fill-rule="evenodd"/>
	<path id="Vector" d="M197.19 132.07L197.19 169.87L187.21 169.87L187.21 132.07L197.19 132.07ZM197.65 131.6L186.75 131.6L186.75 170.34L197.65 170.34L197.65 131.6Z" fill="#40506F" fill-opacity="1.000000" fill-rule="nonzero"/>
	<path id="Vector" d="M205.02 131.6L215.93 131.6L215.93 170.34L205.02 170.34L205.02 131.6Z" fill="#1B2539" fill-opacity="1.000000" fill-rule="evenodd"/>
	<path id="Vector" d="M215.46 132.07L215.46 169.87L205.49 169.87L205.49 132.07L215.46 132.07ZM215.93 131.6L205.03 131.6L205.03 170.34L215.93 170.34L215.93 131.6Z" fill="#40506F" fill-opacity="1.000000" fill-rule="nonzero"/>
	<path id="Vector" d="M223.3 131.6L234.2 131.6L234.2 170.34L223.3 170.34L223.3 131.6Z" fill="#1B2539" fill-opacity="1.000000" fill-rule="evenodd"/>
	<path id="Vector" d="M233.74 132.07L233.74 169.87L223.76 169.87L223.76 132.07L233.74 132.07ZM234.2 131.6L223.3 131.6L223.3 170.34L234.2 170.34L234.2 131.6Z" fill="#40506F" fill-opacity="1.000000" fill-rule="nonzero"/>
	<path id="Vector" d="M241.58 131.6L252.48 131.6L252.48 170.34L241.58 170.34L241.58 131.6Z" fill="#1B2539" fill-opacity="1.000000" fill-rule="evenodd"/>
	<path id="Vector" d="M252.02 132.07L252.02 169.87L242.04 169.87L242.04 132.07L252.02 132.07ZM252.48 131.6L241.58 131.6L241.58 170.34L252.48 170.34L252.48 131.6Z" fill="#40506F" fill-opacity="1.000000" fill-rule="nonzero"/>
	<path id="Vector" d="M259.85 131.6L270.75 131.6L270.75 170.34L259.85 170.34L259.85 131.6Z" fill="#1B2539" fill-opacity="1.000000" fill-rule="evenodd"/>
	<path id="Vector" d="M270.29 132.07L270.29 169.87L260.31 169.87L260.31 132.07L270.29 132.07ZM270.75 131.6L259.85 131.6L259.85 170.34L270.75 170.34L270.75 131.6Z" fill="#40506F" fill-opacity="1.000000" fill-rule="nonzero"/>
	<path id="Vector" d="M278.13 131.6L289.03 131.6L289.03 170.34L278.13 170.34L278.13 131.6Z" fill="#1B2539" fill-opacity="1.000000" fill-rule="evenodd"/>
	<path id="Vector" d="M288.57 132.07L288.57 169.87L278.59 169.87L278.59 132.07L288.57 132.07ZM289.03 131.6L278.13 131.6L278.13 170.34L289.03 170.34L289.03 131.6Z" fill="#40506F" fill-opacity="1.000000" fill-rule="nonzero"/>
	<g opacity="0.100000">
		<path id="Vector" d="M186.75 148.98L197.65 148.98L197.65 165.2L186.75 165.2L186.75 148.98Z" fill="#0478FE" fill-opacity="1.000000" fill-rule="evenodd"/>
	</g>
	<path id="Vector" d="M197.88 165.43L186.52 165.43L186.52 148.74L197.88 148.74L197.88 165.43ZM186.98 164.97L197.42 164.97L197.42 149.21L186.98 149.21L186.98 164.97Z" fill="#1B2539" fill-opacity="1.000000" fill-rule="nonzero"/>
	<g opacity="0.100000">
		<path id="Vector" d="M205.02 144.05L215.93 144.05L215.93 165.2L205.02 165.2L205.02 144.05Z" fill="#0478FE" fill-opacity="1.000000" fill-rule="evenodd"/>
	</g>
	<path id="Vector" d="M216.16 165.43L204.79 165.43L204.79 143.82L216.16 143.82L216.16 165.43ZM205.26 164.97L215.7 164.97L215.7 144.28L205.26 144.28L205.26 164.97Z" fill="#1B2539" fill-opacity="1.000000" fill-rule="nonzero"/>
	<g opacity="0.100000">
		<path id="Vector" d="M223.3 136.74L234.2 136.74L234.2 165.2L223.3 165.2L223.3 136.74Z" fill="#0478FE" fill-opacity="1.000000" fill-rule="evenodd"/>
	</g>
	<g opacity="0.100000">
		<path id="Vector" d="M234.43 165.43L223.07 165.43L223.07 136.51L234.43 136.51L234.43 165.43ZM223.53 164.97L233.97 164.97L233.97 136.97L223.53 136.97L223.53 164.97Z" fill="#1B2539" fill-opacity="1.000000" fill-rule="nonzero"/>
	</g>
	<g opacity="0.100000">
		<path id="Vector" d="M241.58 148.98L252.48 148.98L252.48 165.2L241.58 165.2L241.58 148.98Z" fill="#0478FE" fill-opacity="1.000000" fill-rule="evenodd"/>
	</g>
	<path id="Vector" d="M252.71 165.43L241.34 165.43L241.34 148.74L252.71 148.74L252.71 165.43ZM241.81 164.97L252.25 164.97L252.25 149.21L241.81 149.21L241.81 164.97Z" fill="#1B2539" fill-opacity="1.000000" fill-rule="nonzero"/>
	<g opacity="0.100000">
		<path id="Vector" d="M259.85 142.97L270.75 142.97L270.75 165.2L259.85 165.2L259.85 142.97Z" fill="#0478FE" fill-opacity="1.000000" fill-rule="evenodd"/>
	</g>
	<path id="Vector" d="M270.99 165.43L259.62 165.43L259.62 142.74L270.99 142.74L270.99 165.43ZM260.08 164.97L270.52 164.97L270.52 143.2L260.08 143.2L260.08 164.97Z" fill="#1B2539" fill-opacity="1.000000" fill-rule="nonzero"/>
	<g opacity="0.100000">
		<path id="Vector" d="M278.13 147.78L289.03 147.78L289.03 165.2L278.13 165.2L278.13 147.78Z" fill="#0478FE" fill-opacity="1.000000" fill-rule="evenodd"/>
	</g>
	<path id="Vector" d="M289.26 165.43L277.9 165.43L277.9 147.55L289.26 147.55L289.26 165.43ZM278.36 164.97L288.8 164.97L288.8 148.02L278.36 148.02L278.36 164.97Z" fill="#1B2539" fill-opacity="1.000000" fill-rule="nonzero"/>
	<path id="Vector" d="M190.09 192.57L179.11 175.25C170.68 161.94 156.01 153.87 140.25 153.87L89.12 153.87L82.12 184.99L122.8 192.57L190.09 192.57Z" fill="#1B2539" fill-opacity="1.000000" fill-rule="nonzero"/>
	<path id="Vector" d="M190.09 192.8L122.8 192.8C122.79 192.8 122.77 192.8 122.76 192.8L82.08 185.22C82.02 185.21 81.96 185.17 81.93 185.12C81.89 185.07 81.88 185.01 81.9 184.94L88.89 153.82C88.91 153.71 89.01 153.63 89.12 153.63L140.25 153.63C148.02 153.63 155.73 155.62 162.54 159.36C169.35 163.11 175.15 168.56 179.31 175.13L190.28 192.45C190.33 192.52 190.33 192.61 190.29 192.68C190.25 192.76 190.17 192.8 190.09 192.8ZM122.82 192.34L189.66 192.34L178.91 175.37C170.47 162.05 156.02 154.1 140.25 154.1L89.3 154.1L82.4 184.81L122.82 192.34L122.82 192.34Z" fill="#40506F" fill-opacity="1.000000" fill-rule="nonzero"/>
	<path id="Vector" d="M79.58 89.33L90.51 76.45C90.51 76.45 87.32 62.02 90.51 59.77C93.7 57.52 104.75 55.56 104.75 55.56C104.75 55.56 113.27 74.07 110.61 77.89C107.95 81.71 104.44 81.93 98.61 80.25L95.81 88.63L79.58 89.33L79.58 89.33Z" fill="#1B2539" fill-opacity="1.000000" fill-rule="nonzero"/>
	<path id="Vector" d="M79.58 89.56C79.5 89.56 79.41 89.51 79.37 89.43C79.34 89.35 79.35 89.25 79.41 89.18L90.26 76.38C89.94 74.92 87.22 61.82 90.37 59.58C93.57 57.33 104.25 55.41 104.7 55.33C104.81 55.31 104.91 55.37 104.95 55.46C105.31 56.22 113.51 74.14 110.8 78.02C107.94 82.12 104.07 82.04 98.76 80.54L96.04 88.71C96 88.8 95.92 88.86 95.82 88.87L79.59 89.56C79.59 89.56 79.59 89.56 79.58 89.56L79.58 89.56ZM104.61 55.82C103.18 56.08 93.53 57.92 90.64 59.96C87.62 62.1 90.7 76.25 90.73 76.39C90.75 76.46 90.73 76.54 90.69 76.59L80.1 89.07L95.65 88.41L98.39 80.18C98.43 80.06 98.55 79.99 98.67 80.03C104.92 81.83 108 81.24 110.42 77.76C112.85 74.27 105.44 57.66 104.61 55.82Z" fill="#40506F" fill-opacity="1.000000" fill-rule="nonzero"/>
	<path id="Vector" d="M98.85 79.58C98.82 79.58 98.79 79.58 98.76 79.57C98.64 79.52 98.58 79.39 98.63 79.27C99.31 77.56 100.38 76 101.73 74.75C101.82 74.66 101.97 74.67 102.05 74.76C102.14 74.86 102.13 75.01 102.04 75.09C100.74 76.29 99.71 77.79 99.06 79.44C99.02 79.53 98.94 79.58 98.84 79.58L98.85 79.58Z" fill="#40506F" fill-opacity="1.000000" fill-rule="nonzero"/>
	<path id="Vector" d="M96.11 78.19C94.56 80.04 92.37 81.33 90 81.77C89 81.95 87.95 81.99 87 81.66C86.04 81.33 85.19 80.58 84.93 79.6C84.66 78.63 85.11 77.45 86.04 77.05C82.29 74.32 79.24 70.24 78.95 65.61C78.73 62.01 80.22 58.44 82.59 55.72C84.95 53 88.12 51.08 91.47 49.74C94.81 48.4 98.35 47.61 101.87 46.87C104.07 46.4 106.53 45.99 108.44 47.18C109.83 48.03 110.66 49.65 110.77 51.28C110.89 52.91 110.34 54.54 109.45 55.91C108.77 56.96 107.8 57.94 106.56 58.18C105.33 58.43 103.85 57.67 103.7 56.42C103.15 58.98 102.6 61.54 102.05 64.1C101.84 65.1 101.53 66.22 100.61 66.66C99.59 67.16 98.36 66.5 97.55 65.7C96.74 64.89 96.05 63.89 94.99 63.46C93.65 62.92 92.01 63.54 91.18 64.73C90.36 65.92 90.31 67.54 90.86 68.88C91.44 70.29 92.65 71.42 94.09 71.91C95 72.22 96 72.26 96.94 72.06C98.13 71.8 98.66 71.16 98.45 72.78C98.2 74.75 97.38 76.66 96.1 78.19L96.11 78.19Z" fill="#40506F" fill-opacity="1.000000" fill-rule="nonzero"/>
	<path id="Vector" d="M98.41 70.26C98.31 70.26 98.23 70.2 98.19 70.11C97.81 69.08 96.81 68.29 95.72 68.14C95.6 68.12 95.51 68 95.53 67.87C95.54 67.75 95.66 67.66 95.79 67.68C97.04 67.85 98.18 68.76 98.63 69.95C98.67 70.07 98.61 70.2 98.49 70.25C98.46 70.26 98.44 70.26 98.41 70.26Z" fill="#40506F" fill-opacity="1.000000" fill-rule="nonzero"/>
	<path id="Vector" d="M141.16 99.16C141.16 99.16 159.44 68.81 165.19 66.38C170.94 63.94 168.84 70.45 165.93 74.86C165.93 74.86 168.88 74.65 169.23 77.18C169.23 77.18 171.89 77.42 172.25 79.1C172.25 79.1 176.07 80.77 174.13 83.52C172.95 85.2 171.41 83.51 171.41 83.51L161.37 106.76C161.37 106.76 143.7 105.91 141.16 99.16L141.16 99.16Z" fill="#1B2539" fill-opacity="1.000000" fill-rule="nonzero"/>
	<path id="Vector" d="M161.37 107C161.37 107 161.37 107 161.36 107C160.63 106.97 143.5 106.06 140.94 99.24C140.91 99.18 140.92 99.1 140.96 99.04C141.7 97.8 159.34 68.6 165.1 66.16C166.82 65.43 168.01 65.44 168.62 66.17C169.92 67.73 168.04 71.95 166.35 74.64C167.2 74.69 169.06 75.04 169.43 76.97C170.05 77.06 172.03 77.45 172.44 78.94C172.87 79.15 174.43 79.99 174.82 81.37C175.03 82.12 174.86 82.89 174.31 83.66C173.95 84.18 173.5 84.47 172.99 84.5C172.36 84.54 171.81 84.17 171.5 83.91L161.58 106.86C161.55 106.95 161.46 107 161.37 107L161.37 107ZM141.41 99.18C143.88 105.29 159.47 106.42 161.22 106.53L171.2 83.43C171.23 83.35 171.3 83.3 171.38 83.29C171.45 83.28 171.53 83.3 171.58 83.36C171.59 83.37 172.25 84.08 172.97 84.03C173.32 84.01 173.65 83.79 173.93 83.39C174.39 82.74 174.54 82.1 174.37 81.49C173.99 80.13 172.17 79.32 172.15 79.31C172.08 79.28 172.03 79.22 172.01 79.14C171.69 77.65 169.23 77.41 169.21 77.41C169.1 77.4 169.01 77.32 169 77.21C168.68 74.93 166.05 75.08 165.94 75.09C165.85 75.1 165.76 75.05 165.72 74.98C165.68 74.9 165.68 74.81 165.73 74.73C167.77 71.63 169.28 67.69 168.26 66.46C167.68 65.77 166.32 66.15 165.27 66.59C159.82 68.9 142.56 97.28 141.41 99.18L141.41 99.18Z" fill="#40506F" fill-opacity="1.000000" fill-rule="nonzero"/>
	<path id="Vector" d="M161.09 79.61C161.05 79.61 161.01 79.6 160.97 79.57C160.86 79.51 160.82 79.37 160.89 79.26C161.94 77.43 163.47 75.93 165.33 74.93C165.44 74.87 165.58 74.91 165.64 75.02C165.7 75.14 165.66 75.28 165.55 75.34C163.8 76.29 162.28 77.76 161.29 79.49C161.25 79.56 161.17 79.61 161.09 79.61Z" fill="#40506F" fill-opacity="1.000000" fill-rule="nonzero"/>
	<path id="Vector" d="M164.55 81.55C164.52 81.55 164.48 81.54 164.45 81.53C164.34 81.47 164.29 81.33 164.34 81.22C165.18 79.41 166.63 77.95 168.43 77.09C168.55 77.03 168.68 77.08 168.74 77.2C168.79 77.32 168.74 77.45 168.63 77.51C166.96 78.31 165.55 79.73 164.76 81.41C164.72 81.5 164.64 81.55 164.55 81.55L164.55 81.55Z" fill="#40506F" fill-opacity="1.000000" fill-rule="nonzero"/>
	<path id="Vector" d="M167.13 83.49C167.11 83.49 167.08 83.48 167.06 83.47C166.94 83.43 166.87 83.3 166.92 83.18C167.64 81.14 169.37 79.47 171.44 78.82C171.56 78.78 171.69 78.85 171.73 78.97C171.77 79.1 171.7 79.23 171.58 79.26C169.65 79.87 168.03 81.43 167.35 83.33C167.32 83.43 167.23 83.49 167.13 83.49Z" fill="#40506F" fill-opacity="1.000000" fill-rule="nonzero"/>
	<path id="Vector" d="M23.63 154.22C23.63 154.22 13.29 139.04 14.5 130.67C16.35 117.83 51.91 92.02 61.93 88.56C69.76 85.86 112.3 82.81 121.69 87.53C131.08 92.25 137.11 105.85 137.11 105.85L141.15 98.29L163.89 101.61C163.89 101.61 155 144.24 136.11 145.12C116.31 146.03 112.82 131.2 112.82 131.2L109.19 141.9C107.89 145.73 108.46 149.96 110.72 153.32C113.79 157.87 115.68 164.99 103.05 169.78C83.15 177.34 23.64 154.22 23.64 154.22L23.63 154.22Z" fill="#0478FE" fill-opacity="1.000000" fill-rule="nonzero"/>
	<path id="Vector" d="M112.59 130.68C112.5 130.68 112.41 130.62 112.38 130.52L110.05 124.14C109.86 123.61 109.65 123.02 109.25 122.61C108.91 122.25 108.32 122 107.85 122.23C107.74 122.28 107.6 122.23 107.54 122.12C107.49 122 107.54 121.86 107.65 121.81C108.35 121.48 109.14 121.82 109.58 122.29C110.05 122.77 110.28 123.41 110.49 123.98L112.81 130.37C112.86 130.49 112.79 130.62 112.67 130.66C112.65 130.67 112.62 130.68 112.59 130.68Z" fill="#40506F" fill-opacity="1.000000" fill-rule="nonzero"/>
	<path id="Vector" d="M34.12 150.32C34.1 150.32 34.09 150.32 34.07 150.32C33.95 150.29 33.86 150.17 33.89 150.05C36.41 137.09 41.13 124.79 47.9 113.46C47.97 113.35 48.11 113.32 48.22 113.39C48.33 113.45 48.36 113.59 48.3 113.7C41.55 124.98 36.86 137.24 34.34 150.13C34.32 150.25 34.23 150.32 34.12 150.32Z" fill="#40506F" fill-opacity="1.000000" fill-rule="nonzero"/>
	<path id="Vector" d="M143.45 119.33C143.36 119.33 143.28 119.28 143.24 119.2L136.9 105.95C136.85 105.84 136.9 105.7 137.01 105.64C137.13 105.59 137.27 105.64 137.32 105.75L143.66 119C143.71 119.12 143.66 119.26 143.55 119.31C143.52 119.33 143.48 119.33 143.45 119.33Z" fill="#40506F" fill-opacity="1.000000" fill-rule="nonzero"/>
	<path id="Vector" d="M127.23 192.57L14.4 192.57L0.23 135.32L90.48 135.32L98.18 162.41L127.23 162.41L127.23 192.57Z" fill="#1B2539" fill-opacity="1.000000" fill-rule="nonzero"/>
	<path id="Vector" d="M127.23 192.8L14.4 192.8C14.29 192.8 14.2 192.73 14.18 192.63L0 135.38C-0.01 135.31 0 135.24 0.04 135.18C0.09 135.12 0.15 135.09 0.23 135.09L15.02 135.09C15.15 135.09 15.25 135.2 15.25 135.32C15.25 135.45 15.15 135.55 15.02 135.55L0.52 135.55L14.58 192.34L127 192.34L127 162.64L112.59 162.64C112.46 162.64 112.36 162.53 112.36 162.41C112.36 162.28 112.46 162.17 112.59 162.17L127.23 162.17C127.36 162.17 127.46 162.28 127.46 162.41L127.46 192.57C127.46 192.7 127.36 192.8 127.23 192.8L127.23 192.8Z" fill="#40506F" fill-opacity="1.000000" fill-rule="nonzero"/>
	<path id="Vector" d="M97.32 193C97.22 193 97.12 192.93 97.1 192.83L80.74 135.39C80.71 135.26 80.78 135.13 80.9 135.1C81.03 135.06 81.15 135.13 81.19 135.26L97.54 192.7C97.58 192.82 97.51 192.95 97.38 192.99C97.36 192.99 97.34 193 97.32 193L97.32 193Z" fill="#40506F" fill-opacity="1.000000" fill-rule="nonzero"/>
	<path id="Vector" d="M19.2 111.21C19.07 111.21 18.97 111.11 18.97 110.98L18.97 9.55C18.97 4.28 23.25 0 28.52 0L221.9 0C227.16 0 231.45 4.28 231.45 9.55L231.45 22.16C231.45 22.29 231.34 22.4 231.21 22.4C231.09 22.4 230.98 22.29 230.98 22.16L230.98 9.55C230.98 4.53 226.91 0.46 221.9 0.46L28.52 0.46C23.51 0.46 19.43 4.53 19.43 9.55L19.43 110.98C19.43 111.11 19.33 111.21 19.2 111.21Z" fill="#40506F" fill-opacity="1.000000" fill-rule="nonzero"/>
	<path id="Vector" d="M225.39 16.79L25.02 16.79C24.89 16.79 24.79 16.69 24.79 16.56C24.79 16.43 24.89 16.33 25.02 16.33L225.39 16.33C225.52 16.33 225.62 16.43 225.62 16.56C225.62 16.69 225.52 16.79 225.39 16.79Z" fill="#40506F" fill-opacity="1.000000" fill-rule="nonzero"/>
	<path id="Vector" d="M28.73 5.6C30.35 5.98 31.35 7.61 30.97 9.23C30.58 10.85 28.96 11.85 27.34 11.47C25.72 11.08 24.72 9.46 25.1 7.84C25.48 6.22 27.11 5.22 28.73 5.6Z" fill="#1B2539" fill-opacity="1.000000" fill-rule="evenodd"/>
	<path id="Vector" d="M28.04 11.78C26.25 11.78 24.79 10.33 24.79 8.54C24.79 6.75 26.24 5.29 28.04 5.29C29.83 5.29 31.28 6.75 31.28 8.54C31.28 10.32 29.83 11.78 28.04 11.78ZM28.04 5.75C26.5 5.75 25.25 7 25.25 8.54C25.25 10.07 26.5 11.32 28.04 11.32C29.57 11.32 30.82 10.07 30.82 8.54C30.82 7 29.57 5.75 28.04 5.75Z" fill="#40506F" fill-opacity="1.000000" fill-rule="nonzero"/>
	<path id="Vector" d="M39.65 5.6C41.27 5.99 42.27 7.61 41.89 9.23C41.5 10.85 39.88 11.85 38.26 11.47C36.64 11.09 35.64 9.46 36.02 7.84C36.4 6.22 38.03 5.22 39.65 5.6Z" fill="#1B2539" fill-opacity="1.000000" fill-rule="evenodd"/>
	<path id="Vector" d="M38.96 11.78C37.17 11.78 35.71 10.33 35.71 8.54C35.71 6.75 37.17 5.29 38.96 5.29C40.75 5.29 42.2 6.75 42.2 8.54C42.2 10.32 40.75 11.78 38.96 11.78ZM38.96 5.75C37.42 5.75 36.17 7 36.17 8.54C36.17 10.07 37.42 11.32 38.96 11.32C40.49 11.32 41.74 10.07 41.74 8.54C41.74 7 40.49 5.75 38.96 5.75Z" fill="#40506F" fill-opacity="1.000000" fill-rule="nonzero"/>
	<path id="Vector" d="M50.57 5.6C52.19 5.99 53.19 7.61 52.81 9.23C52.42 10.85 50.8 11.85 49.18 11.47C47.56 11.09 46.56 9.46 46.94 7.84C47.32 6.22 48.95 5.22 50.57 5.6Z" fill="#1B2539" fill-opacity="1.000000" fill-rule="evenodd"/>
	<path id="Vector" d="M49.88 11.78C48.09 11.78 46.63 10.33 46.63 8.54C46.63 6.75 48.09 5.29 49.88 5.29C51.67 5.29 53.12 6.75 53.12 8.54C53.12 10.32 51.67 11.78 49.88 11.78ZM49.88 5.75C48.34 5.75 47.1 7 47.1 8.54C47.1 10.07 48.34 11.32 49.88 11.32C51.41 11.32 52.66 10.07 52.66 8.54C52.66 7 51.41 5.75 49.88 5.75Z" fill="#40506F" fill-opacity="1.000000" fill-rule="nonzero"/>
	<path id="Vector" d="M0.23 29.31L56.95 29.31L56.95 86.04L0.23 86.04L0.23 29.31Z" fill="#1B2539" fill-opacity="1.000000" fill-rule="evenodd"/>
	<path id="Vector" d="M56.95 86.27L54.17 86.27C54.04 86.27 53.94 86.17 53.94 86.04C53.94 85.91 54.04 85.81 54.17 85.81L56.95 85.81C57.08 85.81 57.18 85.91 57.18 86.04C57.18 86.17 57.08 86.27 56.95 86.27ZM51.38 86.27L48.6 86.27C48.47 86.27 48.37 86.17 48.37 86.04C48.37 85.91 48.47 85.81 48.6 85.81L51.38 85.81C51.51 85.81 51.62 85.91 51.62 86.04C51.62 86.17 51.51 86.27 51.38 86.27ZM45.82 86.27L43.03 86.27C42.91 86.27 42.8 86.17 42.8 86.04C42.8 85.91 42.91 85.81 43.03 85.81L45.82 85.81C45.94 85.81 46.05 85.91 46.05 86.04C46.05 86.17 45.94 86.27 45.82 86.27ZM40.25 86.27L37.47 86.27C37.34 86.27 37.23 86.17 37.23 86.04C37.23 85.91 37.34 85.81 37.47 85.81L40.25 85.81C40.38 85.81 40.48 85.91 40.48 86.04C40.48 86.17 40.38 86.27 40.25 86.27ZM34.68 86.27L31.9 86.27C31.77 86.27 31.67 86.17 31.67 86.04C31.67 85.91 31.77 85.81 31.9 85.81L34.68 85.81C34.81 85.81 34.91 85.91 34.91 86.04C34.91 86.17 34.81 86.27 34.68 86.27ZM29.11 86.27L26.33 86.27C26.2 86.27 26.1 86.17 26.1 86.04C26.1 85.91 26.2 85.81 26.33 85.81L29.11 85.81C29.24 85.81 29.35 85.91 29.35 86.04C29.35 86.17 29.24 86.27 29.11 86.27ZM23.55 86.27L20.76 86.27C20.64 86.27 20.53 86.17 20.53 86.04C20.53 85.91 20.64 85.81 20.76 85.81L23.55 85.81C23.67 85.81 23.78 85.91 23.78 86.04C23.78 86.17 23.67 86.27 23.55 86.27ZM17.98 86.27L15.2 86.27C15.07 86.27 14.96 86.17 14.96 86.04C14.96 85.91 15.07 85.81 15.2 85.81L17.98 85.81C18.11 85.81 18.21 85.91 18.21 86.04C18.21 86.17 18.11 86.27 17.98 86.27ZM12.41 86.27L9.63 86.27C9.5 86.27 9.4 86.17 9.4 86.04C9.4 85.91 9.5 85.81 9.63 85.81L12.41 85.81C12.54 85.81 12.64 85.91 12.64 86.04C12.64 86.17 12.54 86.27 12.41 86.27ZM6.85 86.27L4.06 86.27C3.93 86.27 3.83 86.17 3.83 86.04C3.83 85.91 3.93 85.81 4.06 85.81L6.85 85.81C6.97 85.81 7.08 85.91 7.08 86.04C7.08 86.17 6.97 86.27 6.85 86.27ZM1.28 86.27L0.23 86.27C0.1 86.27 0 86.17 0 86.04L0 84.31C0 84.18 0.1 84.07 0.23 84.07C0.35 84.07 0.46 84.18 0.46 84.31L0.46 85.81L1.28 85.81C1.41 85.81 1.51 85.91 1.51 86.04C1.51 86.17 1.41 86.27 1.28 86.27ZM56.95 84.85C56.82 84.85 56.72 84.75 56.72 84.62L56.72 81.83C56.72 81.71 56.82 81.6 56.95 81.6C57.08 81.6 57.18 81.71 57.18 81.83L57.18 84.62C57.18 84.75 57.08 84.85 56.95 84.85ZM0.23 81.75C0.1 81.75 0 81.65 0 81.52L0 78.74C0 78.61 0.1 78.51 0.23 78.51C0.35 78.51 0.46 78.61 0.46 78.74L0.46 81.52C0.46 81.65 0.35 81.75 0.23 81.75ZM56.95 79.28C56.82 79.28 56.72 79.18 56.72 79.05L56.72 76.27C56.72 76.14 56.82 76.04 56.95 76.04C57.08 76.04 57.18 76.14 57.18 76.27L57.18 79.05C57.18 79.18 57.08 79.28 56.95 79.28ZM0.23 76.19C0.1 76.19 0 76.08 0 75.95L0 73.17C0 73.04 0.1 72.94 0.23 72.94C0.35 72.94 0.46 73.04 0.46 73.17L0.46 75.95C0.46 76.08 0.35 76.19 0.23 76.19ZM56.95 73.72C56.82 73.72 56.72 73.61 56.72 73.48L56.72 70.7C56.72 70.57 56.82 70.47 56.95 70.47C57.08 70.47 57.18 70.57 57.18 70.7L57.18 73.48C57.18 73.61 57.08 73.72 56.95 73.72ZM0.23 70.62C0.1 70.62 0 70.51 0 70.39L0 67.6C0 67.48 0.1 67.37 0.23 67.37C0.35 67.37 0.46 67.48 0.46 67.6L0.46 70.39C0.46 70.51 0.35 70.62 0.23 70.62ZM56.95 68.15C56.82 68.15 56.72 68.04 56.72 67.92L56.72 65.13C56.72 65.01 56.82 64.9 56.95 64.9C57.08 64.9 57.18 65.01 57.18 65.13L57.18 67.92C57.18 68.04 57.08 68.15 56.95 68.15ZM0.23 65.05C0.1 65.05 0 64.95 0 64.82L0 62.04C0 61.91 0.1 61.8 0.23 61.8C0.35 61.8 0.46 61.91 0.46 62.04L0.46 64.82C0.46 64.95 0.35 65.05 0.23 65.05ZM56.95 62.58C56.82 62.58 56.72 62.48 56.72 62.35L56.72 59.57C56.72 59.44 56.82 59.33 56.95 59.33C57.08 59.33 57.18 59.44 57.18 59.57L57.18 62.35C57.18 62.48 57.08 62.58 56.95 62.58ZM0.23 59.48C0.1 59.48 0 59.38 0 59.25L0 56.47C0 56.34 0.1 56.24 0.23 56.24C0.35 56.24 0.46 56.34 0.46 56.47L0.46 59.25C0.46 59.38 0.35 59.48 0.23 59.48ZM56.95 57.01C56.82 57.01 56.72 56.91 56.72 56.78L56.72 54C56.72 53.87 56.82 53.77 56.95 53.77C57.08 53.77 57.18 53.87 57.18 54L57.18 56.78C57.18 56.91 57.08 57.01 56.95 57.01ZM0.23 53.92C0.1 53.92 0 53.81 0 53.68L0 50.9C0 50.77 0.1 50.67 0.23 50.67C0.35 50.67 0.46 50.77 0.46 50.9L0.46 53.68C0.46 53.81 0.35 53.92 0.23 53.92ZM56.95 51.45C56.82 51.45 56.72 51.34 56.72 51.21L56.72 48.43C56.72 48.3 56.82 48.2 56.95 48.2C57.08 48.2 57.18 48.3 57.18 48.43L57.18 51.21C57.18 51.34 57.08 51.45 56.95 51.45ZM0.23 48.35C0.1 48.35 0 48.25 0 48.12L0 45.33C0 45.21 0.1 45.1 0.23 45.1C0.35 45.1 0.46 45.21 0.46 45.33L0.46 48.12C0.46 48.25 0.35 48.35 0.23 48.35ZM56.95 45.88C56.82 45.88 56.72 45.77 56.72 45.65L56.72 42.86C56.72 42.74 56.82 42.63 56.95 42.63C57.08 42.63 57.18 42.74 57.18 42.86L57.18 45.65C57.18 45.77 57.08 45.88 56.95 45.88ZM0.23 42.78C0.1 42.78 0 42.68 0 42.55L0 39.77C0 39.64 0.1 39.53 0.23 39.53C0.35 39.53 0.46 39.64 0.46 39.77L0.46 42.55C0.46 42.68 0.35 42.78 0.23 42.78ZM56.95 40.31C56.82 40.31 56.72 40.21 56.72 40.08L56.72 37.3C56.72 37.17 56.82 37.06 56.95 37.06C57.08 37.06 57.18 37.17 57.18 37.3L57.18 40.08C57.18 40.21 57.08 40.31 56.95 40.31ZM0.23 37.21C0.1 37.21 0 37.11 0 36.98L0 34.2C0 34.07 0.1 33.97 0.23 33.97C0.35 33.97 0.46 34.07 0.46 34.2L0.46 36.98C0.46 37.11 0.35 37.21 0.23 37.21ZM56.95 34.74C56.82 34.74 56.72 34.64 56.72 34.51L56.72 31.73C56.72 31.6 56.82 31.5 56.95 31.5C57.08 31.5 57.18 31.6 57.18 31.73L57.18 34.51C57.18 34.64 57.08 34.74 56.95 34.74ZM0.23 31.65C0.1 31.65 0 31.54 0 31.42L0 29.31C0 29.19 0.1 29.08 0.23 29.08L0.91 29.08C1.04 29.08 1.14 29.19 1.14 29.31C1.14 29.44 1.04 29.55 0.91 29.55L0.46 29.55L0.46 31.42C0.46 31.54 0.35 31.65 0.23 31.65ZM56.58 29.55L53.8 29.55C53.67 29.55 53.57 29.44 53.57 29.31C53.57 29.19 53.67 29.08 53.8 29.08L56.58 29.08C56.71 29.08 56.81 29.19 56.81 29.31C56.81 29.44 56.71 29.55 56.58 29.55ZM51.01 29.55L48.23 29.55C48.1 29.55 48 29.44 48 29.31C48 29.19 48.1 29.08 48.23 29.08L51.01 29.08C51.14 29.08 51.25 29.19 51.25 29.31C51.25 29.44 51.14 29.55 51.01 29.55ZM45.45 29.55L42.66 29.55C42.54 29.55 42.43 29.44 42.43 29.31C42.43 29.19 42.54 29.08 42.66 29.08L45.45 29.08C45.58 29.08 45.68 29.19 45.68 29.31C45.68 29.44 45.58 29.55 45.45 29.55ZM39.88 29.55L37.1 29.55C36.97 29.55 36.86 29.44 36.86 29.31C36.86 29.19 36.97 29.08 37.1 29.08L39.88 29.08C40.01 29.08 40.11 29.19 40.11 29.31C40.11 29.44 40.01 29.55 39.88 29.55ZM34.31 29.55L31.53 29.55C31.4 29.55 31.3 29.44 31.3 29.31C31.3 29.19 31.4 29.08 31.53 29.08L34.31 29.08C34.44 29.08 34.54 29.19 34.54 29.31C34.54 29.44 34.44 29.55 34.31 29.55ZM28.75 29.55L25.96 29.55C25.83 29.55 25.73 29.44 25.73 29.31C25.73 29.19 25.83 29.08 25.96 29.08L28.75 29.08C28.87 29.08 28.98 29.19 28.98 29.31C28.98 29.44 28.87 29.55 28.75 29.55ZM23.18 29.55L20.39 29.55C20.27 29.55 20.16 29.44 20.16 29.31C20.16 29.19 20.27 29.08 20.39 29.08L23.18 29.08C23.31 29.08 23.41 29.19 23.41 29.31C23.41 29.44 23.31 29.55 23.18 29.55ZM17.61 29.55L14.83 29.55C14.7 29.55 14.6 29.44 14.6 29.31C14.6 29.19 14.7 29.08 14.83 29.08L17.61 29.08C17.74 29.08 17.84 29.19 17.84 29.31C17.84 29.44 17.74 29.55 17.61 29.55ZM12.04 29.55L9.26 29.55C9.13 29.55 9.03 29.44 9.03 29.31C9.03 29.19 9.13 29.08 9.26 29.08L12.04 29.08C12.17 29.08 12.28 29.19 12.28 29.31C12.28 29.44 12.17 29.55 12.04 29.55ZM6.48 29.55L3.69 29.55C3.56 29.55 3.46 29.44 3.46 29.31C3.46 29.19 3.56 29.08 3.69 29.08L6.48 29.08C6.6 29.08 6.71 29.19 6.71 29.31C6.71 29.44 6.6 29.55 6.48 29.55Z" fill="#0478FE" fill-opacity="1.000000" fill-rule="nonzero"/>
	<path id="Vector" d="M9.67 57.68C9.67 59.72 11.33 61.38 13.37 61.38C13.53 61.38 13.68 61.37 13.82 61.35C14.19 62.84 14.78 64.24 15.55 65.52C15.43 65.61 15.32 65.7 15.21 65.81C13.76 67.26 13.76 69.6 15.21 71.05C16.66 72.5 19 72.5 20.45 71.05C20.56 70.94 20.66 70.83 20.75 70.71C22.03 71.48 23.43 72.07 24.91 72.44C24.9 72.59 24.88 72.73 24.88 72.89C24.88 74.93 26.54 76.59 28.59 76.59C30.64 76.59 32.29 74.93 32.29 72.89C32.29 72.73 32.28 72.59 32.26 72.44C33.75 72.07 35.15 71.48 36.43 70.71C36.52 70.83 36.62 70.94 36.73 71.05C38.17 72.5 40.52 72.5 41.97 71.05C43.41 69.6 43.41 67.26 41.97 65.81C41.86 65.71 41.74 65.61 41.63 65.52C42.4 64.24 42.99 62.84 43.35 61.35C43.5 61.37 43.65 61.38 43.8 61.38C45.85 61.38 47.51 59.72 47.51 57.68C47.51 55.63 45.85 53.97 43.8 53.97C43.65 53.97 43.5 53.98 43.35 54C42.99 52.52 42.4 51.11 41.63 49.84C41.75 49.75 41.86 49.65 41.97 49.54C43.41 48.09 43.41 45.75 41.97 44.3C40.52 42.86 38.17 42.86 36.73 44.3C36.62 44.41 36.52 44.53 36.43 44.64C35.15 43.87 33.75 43.29 32.26 42.92C32.28 42.77 32.29 42.62 32.29 42.47C32.29 40.42 30.64 38.76 28.59 38.76C26.54 38.76 24.88 40.42 24.88 42.47C24.88 42.62 24.9 42.77 24.91 42.92C23.43 43.29 22.03 43.87 20.75 44.64C20.66 44.53 20.56 44.41 20.45 44.3C19 42.86 16.66 42.86 15.21 44.3C13.76 45.75 13.76 48.09 15.21 49.54C15.32 49.65 15.43 49.75 15.55 49.84C14.78 51.12 14.19 52.52 13.82 54C13.68 53.98 13.53 53.97 13.37 53.97C11.33 53.97 9.67 55.63 9.67 57.68ZM21.71 57.68C21.71 53.88 24.79 50.8 28.59 50.8C32.39 50.8 35.47 53.88 35.47 57.68C35.47 61.48 32.39 64.56 28.59 64.56C24.79 64.56 21.71 61.48 21.71 57.68Z" fill="#1B2539" fill-opacity="1.000000" fill-rule="nonzero"/>
	<path id="Vector" d="M28.59 76.82C26.42 76.82 24.65 75.05 24.65 72.88C24.65 72.79 24.66 72.7 24.66 72.61C23.31 72.25 22.01 71.72 20.8 71.01C20.74 71.09 20.67 71.15 20.61 71.21C19.08 72.75 16.58 72.75 15.05 71.21C14.3 70.47 13.89 69.48 13.89 68.43C13.89 67.38 14.3 66.39 15.05 65.65C15.11 65.58 15.17 65.52 15.25 65.46C14.54 64.25 14.01 62.95 13.65 61.6C13.55 61.61 13.46 61.61 13.37 61.61C11.2 61.61 9.44 59.85 9.44 57.67C9.44 55.5 11.2 53.74 13.37 53.74C13.46 53.74 13.55 53.74 13.65 53.75C14 52.4 14.54 51.1 15.25 49.89C15.17 49.83 15.11 49.77 15.04 49.7C14.3 48.96 13.89 47.97 13.89 46.92C13.89 45.87 14.3 44.88 15.04 44.14C16.58 42.6 19.08 42.6 20.61 44.14C20.67 44.2 20.73 44.26 20.8 44.34C22.01 43.63 23.3 43.1 24.66 42.74C24.65 42.64 24.65 42.55 24.65 42.47C24.65 40.3 26.41 38.53 28.58 38.53C30.76 38.53 32.52 40.3 32.52 42.47C32.52 42.55 32.52 42.65 32.51 42.74C33.87 43.1 35.16 43.63 36.37 44.34C36.43 44.26 36.5 44.2 36.56 44.14C38.09 42.6 40.59 42.6 42.12 44.14C42.87 44.88 43.28 45.87 43.28 46.92C43.28 47.97 42.87 48.96 42.12 49.7C42.06 49.77 42 49.83 41.92 49.89C42.63 51.1 43.17 52.4 43.52 53.75C43.62 53.74 43.71 53.74 43.8 53.74C45.97 53.74 47.73 55.5 47.73 57.67C47.73 59.85 45.97 61.61 43.8 61.61C43.71 61.61 43.62 61.61 43.52 61.6C43.17 62.96 42.63 64.25 41.92 65.46C42 65.52 42.06 65.58 42.12 65.65C42.87 66.39 43.28 67.38 43.28 68.43C43.28 69.48 42.87 70.47 42.12 71.21C40.59 72.75 38.09 72.75 36.56 71.21C36.5 71.15 36.43 71.09 36.37 71.01C35.16 71.72 33.87 72.25 32.51 72.61C32.52 72.71 32.52 72.8 32.52 72.88C32.52 75.05 30.76 76.82 28.58 76.82L28.59 76.82ZM20.75 70.48C20.79 70.48 20.83 70.49 20.87 70.51C22.14 71.28 23.52 71.85 24.97 72.21C25.08 72.24 25.16 72.34 25.14 72.46C25.12 72.62 25.11 72.75 25.11 72.88C25.11 74.8 26.67 76.36 28.59 76.36C30.5 76.36 32.06 74.8 32.06 72.88C32.06 72.76 32.05 72.62 32.03 72.46C32.02 72.34 32.09 72.24 32.21 72.21C33.65 71.85 35.03 71.28 36.31 70.51C36.41 70.45 36.54 70.47 36.61 70.57C36.71 70.69 36.8 70.79 36.89 70.88C38.24 72.24 40.45 72.24 41.8 70.88C42.45 70.23 42.81 69.35 42.81 68.43C42.81 67.5 42.45 66.63 41.8 65.97C41.71 65.88 41.6 65.79 41.48 65.7C41.39 65.62 41.36 65.49 41.42 65.39C42.19 64.12 42.77 62.74 43.12 61.29C43.15 61.18 43.26 61.11 43.38 61.12C43.53 61.14 43.67 61.15 43.8 61.15C45.72 61.15 47.27 59.59 47.27 57.67C47.27 55.76 45.71 54.2 43.8 54.2C43.67 54.2 43.53 54.21 43.38 54.23C43.26 54.25 43.15 54.17 43.12 54.06C42.77 52.61 42.19 51.23 41.42 49.95C41.36 49.86 41.39 49.73 41.48 49.65C41.6 49.56 41.71 49.47 41.8 49.37C42.45 48.72 42.81 47.85 42.81 46.92C42.81 46 42.45 45.12 41.8 44.47C40.44 43.11 38.24 43.11 36.89 44.47C36.8 44.56 36.71 44.66 36.61 44.78C36.54 44.88 36.41 44.9 36.31 44.84C35.03 44.07 33.65 43.5 32.2 43.14C32.09 43.11 32.02 43 32.03 42.89C32.05 42.73 32.06 42.6 32.06 42.47C32.06 40.55 30.5 38.99 28.58 38.99C26.67 38.99 25.11 40.55 25.11 42.47C25.11 42.59 25.12 42.73 25.14 42.89C25.15 43 25.08 43.11 24.97 43.14C23.52 43.5 22.14 44.07 20.86 44.84C20.77 44.9 20.64 44.88 20.56 44.78C20.47 44.66 20.38 44.56 20.29 44.47C18.93 43.11 16.73 43.11 15.37 44.47C14.72 45.12 14.36 46 14.36 46.92C14.36 47.85 14.72 48.72 15.37 49.37C15.46 49.47 15.57 49.56 15.69 49.65C15.78 49.73 15.81 49.86 15.75 49.95C14.98 51.23 14.41 52.61 14.05 54.06C14.02 54.17 13.91 54.25 13.8 54.23C13.64 54.21 13.5 54.2 13.37 54.2C11.46 54.2 9.9 55.76 9.9 57.67C9.9 59.59 11.46 61.15 13.37 61.15C13.5 61.15 13.64 61.14 13.8 61.12C13.91 61.11 14.02 61.18 14.05 61.29C14.41 62.74 14.98 64.12 15.75 65.39C15.81 65.49 15.78 65.62 15.69 65.7C15.57 65.79 15.46 65.88 15.37 65.97C14.72 66.63 14.36 67.5 14.36 68.43C14.36 69.36 14.72 70.23 15.37 70.88C16.73 72.24 18.93 72.24 20.29 70.88C20.38 70.79 20.47 70.69 20.56 70.57C20.61 70.51 20.68 70.48 20.75 70.48ZM28.59 64.78C24.66 64.78 21.48 61.6 21.48 57.67C21.48 53.75 24.66 50.56 28.59 50.56C32.51 50.56 35.7 53.75 35.7 57.67C35.7 61.6 32.51 64.78 28.59 64.78ZM28.59 51.03C24.92 51.03 21.94 54.01 21.94 57.67C21.94 61.34 24.92 64.32 28.59 64.32C32.25 64.32 35.24 61.34 35.24 57.67C35.24 54.01 32.25 51.03 28.59 51.03Z" fill="#0478FE" fill-opacity="1.000000" fill-rule="nonzero"/>
</svg>
