<svg width="28.000000" height="34.000000" viewBox="0 0 28 34" fill="none" xmlns="http://www.w3.org/2000/svg" xmlns:xlink="http://www.w3.org/1999/xlink">
	<desc>
			Created with Pixso.
	</desc>
	<defs/>
	<path id="Vector" d="M14.91 5.13C15.87 4.75 16.55 3.78 16.55 2.65C16.55 1.18 15.41 0 14 0C12.58 0 11.44 1.18 11.44 2.65C11.44 3.78 12.12 4.75 13.08 5.13L13.08 7.22L11.95 7.22C11.33 7.22 10.83 7.74 10.83 8.39C10.83 8.42 10.83 8.46 10.83 8.5L4.08 8.5C1.83 8.5 0 10.4 0 12.75L0 34L3.98 31.29C4.65 30.84 5.43 30.6 6.22 30.6L23.91 30.6C26.16 30.6 28 28.69 28 26.35L28 21.25L24.32 21.25L24.32 25.28C24.32 26.22 23.58 26.98 22.68 26.98L5.31 26.98C4.41 26.98 3.67 26.22 3.67 25.28L3.67 13.81C3.67 12.87 4.41 12.11 5.31 12.11L22.68 12.11C23.58 12.11 24.32 12.87 24.32 13.81L24.32 17.85L28 17.85L28 12.75C28 10.4 26.16 8.5 23.91 8.5L17.16 8.5C17.16 8.46 17.16 8.42 17.16 8.39C17.16 7.74 16.66 7.22 16.04 7.22L14.91 7.22L14.91 5.13ZM9.5 21.67C10.91 21.67 12.05 20.48 12.05 19.01C12.05 17.55 10.91 16.36 9.5 16.36C8.09 16.36 6.94 17.55 6.94 19.01C6.94 20.48 8.09 21.67 9.5 21.67ZM21.05 19.01C21.05 20.48 19.9 21.67 18.49 21.67C17.08 21.67 15.94 20.48 15.94 19.01C15.94 17.55 17.08 16.36 18.49 16.36C19.9 16.36 21.05 17.55 21.05 19.01Z" fill="#0478FE" fill-opacity="1.000000" fill-rule="evenodd"/>
</svg>
