<svg width="34" height="34" viewBox="0 0 34 34" fill="none" xmlns="http://www.w3.org/2000/svg">
<path fill-rule="evenodd" clip-rule="evenodd" d="M8.49992 1.77075C4.7835 1.77075 1.77075 4.7835 1.77075 8.49992V11.3333C1.77075 11.9201 2.24645 12.3958 2.83325 12.3958C3.42005 12.3958 3.89575 11.9201 3.89575 11.3333V8.49992C3.89575 5.95711 5.95711 3.89575 8.49992 3.89575H11.3333C11.9201 3.89575 12.3958 3.42005 12.3958 2.83325C12.3958 2.24645 11.9201 1.77075 11.3333 1.77075H8.49992ZM22.6666 1.77075C22.0798 1.77075 21.6041 2.24645 21.6041 2.83325C21.6041 3.42005 22.0798 3.89575 22.6666 3.89575H25.4999C28.0427 3.89575 30.1041 5.95711 30.1041 8.49992V11.3333C30.1041 11.9201 30.5798 12.3958 31.1666 12.3958C31.7534 12.3958 32.2291 11.9201 32.2291 11.3333V8.49992C32.2291 4.7835 29.2163 1.77075 25.4999 1.77075H22.6666ZM3.89575 22.6666C3.89575 22.0798 3.42005 21.6041 2.83325 21.6041C2.24645 21.6041 1.77075 22.0798 1.77075 22.6666V25.4999C1.77075 29.2163 4.7835 32.2291 8.49992 32.2291H11.3333C11.9201 32.2291 12.3958 31.7534 12.3958 31.1666C12.3958 30.5798 11.9201 30.1041 11.3333 30.1041H8.49992C5.95711 30.1041 3.89575 28.0427 3.89575 25.4999V22.6666ZM32.2291 22.6666C32.2291 22.0798 31.7534 21.6041 31.1666 21.6041C30.5798 21.6041 30.1041 22.0798 30.1041 22.6666V25.4999C30.1041 28.0427 28.0427 30.1041 25.4999 30.1041H22.6666C22.0798 30.1041 21.6041 30.5798 21.6041 31.1666C21.6041 31.7534 22.0798 32.2291 22.6666 32.2291H25.4999C29.2163 32.2291 32.2291 29.2163 32.2291 25.4999V22.6666ZM16.9999 24.0833C20.9119 24.0833 24.0833 20.9119 24.0833 16.9999C24.0833 13.0879 20.9119 9.91659 16.9999 9.91659C13.0879 9.91659 9.91659 13.0879 9.91659 16.9999C9.91659 20.9119 13.0879 24.0833 16.9999 24.0833Z" fill="white"/>
</svg>
