<svg width="21.000000" height="21.000000" viewBox="0 0 21 21" fill="none" xmlns="http://www.w3.org/2000/svg" xmlns:xlink="http://www.w3.org/1999/xlink">
	<desc>
			Created with Pixso.
	</desc>
	<defs/>
	<path id="Vector" d="M14 2C16.2 2 18 3.79 18 6L18 14C18 16.2 16.2 18 14 18L6 18C3.79 18 2 16.2 2 14L2 6C2 3.79 3.79 2 6 2L14 2ZM11 7C12.1 7 13 7.89 13 9L13 11C13 12.1 12.1 13 11 13L9 13C7.89 13 7 12.1 7 11L7 9C7 7.89 7.89 7 9 7L11 7ZM8 2L8 0M12 2L12 0M12 18L12 20M8 18L8 20M18 8L20 8M18 12L20 12M2 8L0 8M2 12L0 " stroke="#0478FE" stroke-opacity="1.000000" stroke-width="1.500000" stroke-linejoin="round"/>
</svg>
