<svg width="16.000000" height="20.000000" viewBox="0 0 16 20" fill="none" xmlns="http://www.w3.org/2000/svg" xmlns:xlink="http://www.w3.org/1999/xlink">
	<desc>
			Created with Pixso.
	</desc>
	<defs/>
	<path id="lock" d="M4.75 4.75C4.75 2.95 6.2 1.5 8 1.5C9.79 1.5 11.25 2.95 11.25 4.75L11.25 6L4.75 6L4.75 4.75ZM3.25 6.07L3.25 4.75C3.25 2.12 5.37 0 8 0C10.62 0 12.75 2.12 12.75 4.75L12.75 6.07C14.6 6.42 16 8.04 16 10L16 16C16 18.2 14.2 20 12 20L4 20C1.79 20 0 18.2 0 16L0 10C0 8.04 1.39 6.42 3.25 6.07ZM8 11.25C8.41 11.25 8.75 11.58 8.75 12L8.75 14C8.75 14.41 8.41 14.75 8 14.75C7.58 14.75 7.25 14.41 7.25 14L7.25 12C7.25 11.58 7.58 11.25 8 11.25Z" fill="#0478FE" fill-opacity="1.000000" fill-rule="evenodd"/>
</svg>
