<svg width="21.000000" height="19.000000" viewBox="0 0 21 19" fill="none" xmlns="http://www.w3.org/2000/svg" xmlns:xlink="http://www.w3.org/1999/xlink">
	<desc>
			Created with Pixso.
	</desc>
	<defs/>
	<path id="Vector 474" d="M19.46 4.05C20.14 4.82 20.18 5.97 19.55 6.79L11.68 17.15C10.83 18.28 9.16 18.28 8.31 17.15L0.44 6.79C-0.19 5.97 -0.15 4.82 0.53 4.05L3.45 0.72C3.86 0.26 4.44 0 5.04 0L8.1 0L12.12 0L14.95 0C15.55 0 16.13 0.26 16.54 0.72L19.46 4.05ZM0.43 5.38L5.74 5.38L14.25 5.38L19.56 5.38M12.12 0L14.25 5.38M5.74 5.38L10 17.76L14.25 5.38M8.1 0L5.74 " stroke="#0478FE" stroke-opacity="1.000000" stroke-width="1.500000" stroke-linejoin="round" stroke-linecap="round"/>
</svg>
