<svg width="290" height="193" viewBox="0 0 290 193" fill="none" xmlns="http://www.w3.org/2000/svg">
<path d="M289.036 29.3188H119.356V69.4986H289.036V29.3188Z" fill="#151E2E"/>
<path opacity="0.1" d="M144.56 63.2074C152.225 63.2074 158.438 56.9936 158.438 49.3285C158.438 41.6635 152.225 35.4497 144.56 35.4497C136.894 35.4497 130.681 41.6635 130.681 49.3285C130.681 56.9936 136.894 63.2074 144.56 63.2074Z" fill="#0478FE"/>
<path d="M145.348 57.3107H141.632C141.504 57.3107 141.4 57.2063 141.4 57.0787L141.395 48.7927C141.393 48.7788 141.391 48.7625 141.391 48.7463C141.391 48.73 141.391 48.7161 141.395 48.6999L141.391 41.7871C141.391 41.7245 141.416 41.6665 141.458 41.6224C141.5 41.5784 141.56 41.5552 141.623 41.5552H144.965C146.844 41.5552 148.375 43.0839 148.375 44.9628V45.5683C148.375 46.9323 147.57 48.1107 146.413 48.6558C148.125 49.1244 149.387 50.6925 149.387 52.5506V53.2744C149.387 55.499 147.577 57.3107 145.35 57.3107H145.348ZM141.864 56.8467H145.348C147.317 56.8467 148.92 55.2438 148.92 53.2744V52.5506C148.92 50.5812 147.317 48.9783 145.348 48.9783H141.859L141.864 56.8467ZM141.859 48.5143H144.965C146.589 48.5143 147.911 47.1944 147.911 45.5706V44.9652C147.911 43.3414 146.589 42.0214 144.965 42.0214H141.855L141.859 48.5166V48.5143Z" fill="#0478FE"/>
<path d="M142.439 41.9983C142.312 41.9983 142.208 41.894 142.208 41.7664V40.3838C142.208 40.2562 142.312 40.1519 142.439 40.1519C142.567 40.1519 142.671 40.2562 142.671 40.3838V41.7664C142.671 41.894 142.567 41.9983 142.439 41.9983Z" fill="#0478FE"/>
<path d="M145.158 41.9983C145.03 41.9983 144.926 41.894 144.926 41.7664V40.3838C144.926 40.2562 145.03 40.1519 145.158 40.1519C145.285 40.1519 145.39 40.2562 145.39 40.3838V41.7664C145.39 41.894 145.285 41.9983 145.158 41.9983Z" fill="#0478FE"/>
<path d="M142.439 58.7003C142.312 58.7003 142.208 58.5959 142.208 58.4683V57.0857C142.208 56.9581 142.312 56.8538 142.439 56.8538C142.567 56.8538 142.671 56.9581 142.671 57.0857V58.4683C142.671 58.5959 142.567 58.7003 142.439 58.7003Z" fill="#0478FE"/>
<path d="M145.158 58.7003C145.03 58.7003 144.926 58.5959 144.926 58.4683V57.0857C144.926 56.9581 145.03 56.8538 145.158 56.8538C145.285 56.8538 145.39 56.9581 145.39 57.0857V58.4683C145.39 58.5959 145.285 58.7003 145.158 58.7003Z" fill="#0478FE"/>
<path opacity="0.1" d="M200.634 63.2076C208.299 63.2076 214.513 56.9939 214.513 49.3288C214.513 41.6637 208.299 35.45 200.634 35.45C192.969 35.45 186.755 41.6637 186.755 49.3288C186.755 56.9939 192.969 63.2076 200.634 63.2076Z" fill="#0478FE"/>
<path d="M194.969 49.5608C194.928 49.5608 194.883 49.5492 194.846 49.5237C194.737 49.4564 194.705 49.3126 194.774 49.2035L200.437 40.2587C200.506 40.1497 200.648 40.1172 200.757 40.1868C200.866 40.2541 200.898 40.3979 200.829 40.5069L195.166 49.4517C195.122 49.5213 195.048 49.5584 194.969 49.5584V49.5608Z" fill="#0478FE"/>
<path d="M200.634 58.5056C200.592 58.5056 200.548 58.494 200.511 58.4685C200.402 58.4012 200.369 58.2574 200.439 58.1484L206.101 49.2035C206.169 49.0945 206.313 49.062 206.422 49.1316C206.531 49.1989 206.563 49.3427 206.493 49.4518L200.831 58.3966C200.787 58.4662 200.713 58.5033 200.634 58.5033V58.5056Z" fill="#0478FE"/>
<path d="M197.801 54.0332C197.76 54.0332 197.716 54.0216 197.678 53.9961C197.569 53.9265 197.537 53.785 197.606 53.6759L203.269 44.7311C203.339 44.6221 203.48 44.5896 203.589 44.6592C203.698 44.7288 203.731 44.8703 203.661 44.9793L197.999 53.9242C197.954 53.9937 197.88 54.0309 197.801 54.0309V54.0332Z" fill="#0478FE"/>
<path d="M181.093 47.2943H164.634C164.507 47.2943 164.402 47.1899 164.402 47.0623C164.402 46.9347 164.507 46.8303 164.634 46.8303H181.093C181.22 46.8303 181.325 46.9347 181.325 47.0623C181.325 47.1899 181.22 47.2943 181.093 47.2943Z" fill="#0478FE"/>
<path d="M165.557 47.851L164.769 47.0623L165.557 46.2759H164.889L164.103 47.0623L164.889 47.851H165.557Z" fill="#0478FE"/>
<path d="M180.561 52.3929H164.103C163.975 52.3929 163.871 52.2885 163.871 52.1609C163.871 52.0333 163.975 51.929 164.103 51.929H180.561C180.689 51.929 180.793 52.0333 180.793 52.1609C180.793 52.2885 180.689 52.3929 180.561 52.3929Z" fill="#0478FE"/>
<path d="M179.638 52.9475L180.425 52.1611L179.638 51.3748H180.304L181.093 52.1611L180.304 52.9475H179.638Z" fill="#0478FE"/>
<path d="M272.046 49.5606H247.23C247.102 49.5606 246.998 49.4562 246.998 49.3287C246.998 49.2011 247.102 49.0967 247.23 49.0967H272.046C272.174 49.0967 272.278 49.2011 272.278 49.3287C272.278 49.4562 272.174 49.5606 272.046 49.5606Z" fill="#1B2539"/>
<path d="M241.568 49.5606H231.502C231.375 49.5606 231.271 49.4562 231.271 49.3287C231.271 49.2011 231.375 49.0967 231.502 49.0967H241.568C241.695 49.0967 241.8 49.2011 241.8 49.3287C241.8 49.4562 241.695 49.5606 241.568 49.5606Z" fill="#1B2539"/>
<path d="M272.046 55.223H257.295C257.168 55.223 257.063 55.1186 257.063 54.991C257.063 54.8634 257.168 54.759 257.295 54.759H272.046C272.174 54.759 272.278 54.8634 272.278 54.991C272.278 55.1186 272.174 55.223 272.046 55.223Z" fill="#1B2539"/>
<path d="M251.633 55.223H231.502C231.375 55.223 231.271 55.1186 231.271 54.991C231.271 54.8634 231.375 54.759 231.502 54.759H251.633C251.761 54.759 251.865 54.8634 251.865 54.991C251.865 55.1186 251.761 55.223 251.633 55.223Z" fill="#1B2539"/>
<path d="M251.774 60.8878H231.502C231.375 60.8878 231.271 60.7834 231.271 60.6558C231.271 60.5282 231.375 60.4238 231.502 60.4238H251.774C251.902 60.4238 252.006 60.5282 252.006 60.6558C252.006 60.7834 251.902 60.8878 251.774 60.8878Z" fill="#1B2539"/>
<path d="M272.046 43.8981H231.5C231.372 43.8981 231.268 43.7937 231.268 43.6661V38.0037C231.268 37.8761 231.372 37.7717 231.5 37.7717H272.046C272.174 37.7717 272.278 37.8761 272.278 38.0037V43.6661C272.278 43.7937 272.174 43.8981 272.046 43.8981ZM231.732 43.4341H271.814V38.2357H231.732V43.4341Z" fill="#0478FE"/>
<path d="M289.036 75.3279H186.755V124.049H289.036V75.3279Z" fill="#1B2539"/>
<path d="M289.036 124.281H186.755C186.627 124.281 186.523 124.177 186.523 124.049V75.3257C186.523 75.1981 186.627 75.0938 186.755 75.0938H289.036C289.163 75.0938 289.268 75.1981 289.268 75.3257V124.049C289.268 124.177 289.163 124.281 289.036 124.281ZM186.987 123.817H288.804V75.5577H186.987V123.817Z" fill="#40506F"/>
<path d="M205.589 119.226H194.858L200.223 101.369L205.589 119.226Z" fill="#0478FE"/>
<path d="M216.32 119.226H205.589L210.954 88.0562L216.32 119.226Z" fill="#0478FE"/>
<path d="M227.051 119.226H216.32L221.685 86.6807L227.051 119.226Z" fill="#0478FE"/>
<path d="M237.779 119.226H227.051L232.414 79.2529L237.779 119.226Z" fill="#0478FE"/>
<path d="M248.51 119.226H237.779L243.145 107.962L248.51 119.226Z" fill="#0478FE"/>
<path d="M259.241 119.226H248.51L253.876 89.2996L259.241 119.226Z" fill="#0478FE"/>
<path d="M269.973 119.226H259.242L264.607 96.6948L269.973 119.226Z" fill="#0478FE"/>
<path d="M280.701 119.226H269.972L275.335 96.6948L280.701 119.226Z" fill="#0478FE"/>
<path d="M197.656 131.609H186.755V170.341H197.656V131.609Z" fill="#1B2539"/>
<path d="M197.192 132.073V169.877H187.217V132.073H197.192ZM197.656 131.609H186.753V170.341H197.656V131.609Z" fill="#40506F"/>
<path d="M215.93 131.609H205.03V170.341H215.93V131.609Z" fill="#1B2539"/>
<path d="M215.469 132.073V169.877H205.496V132.073H215.469ZM215.933 131.609H205.032V170.341H215.933V131.609Z" fill="#40506F"/>
<path d="M234.207 131.609H223.307V170.341H234.207V131.609Z" fill="#1B2539"/>
<path d="M233.743 132.073V169.877H223.769V132.073H233.743ZM234.207 131.609H223.305V170.341H234.207V131.609Z" fill="#40506F"/>
<path d="M252.482 131.609H241.582V170.341H252.482V131.609Z" fill="#1B2539"/>
<path d="M252.02 132.073V169.877H242.048V132.073H252.02ZM252.484 131.609H241.584V170.341H252.484V131.609Z" fill="#40506F"/>
<path d="M270.759 131.609H259.858V170.341H270.759V131.609Z" fill="#1B2539"/>
<path d="M270.295 132.073V169.877H260.32V132.073H270.295ZM270.759 131.609H259.856V170.341H270.759V131.609Z" fill="#40506F"/>
<path d="M289.036 131.609H278.135V170.341H289.036V131.609Z" fill="#1B2539"/>
<path d="M288.572 132.073V169.877H278.599V132.073H288.572ZM289.036 131.609H278.135V170.341H289.036V131.609Z" fill="#40506F"/>
<path opacity="0.1" d="M197.656 148.981H186.755V165.205H197.656V148.981Z" fill="#0478FE"/>
<path d="M197.888 165.437H186.521V148.749H197.888V165.437ZM186.985 164.973H197.424V149.213H186.985V164.973Z" fill="#1B2539"/>
<path opacity="0.1" d="M215.93 144.054H205.03V165.205H215.93V144.054Z" fill="#0478FE"/>
<path d="M216.164 165.437H204.798V143.822H216.164V165.437ZM205.262 164.973H215.7V144.286H205.262V164.973Z" fill="#1B2539"/>
<path opacity="0.1" d="M234.207 136.747H223.307V165.205H234.207V136.747Z" fill="#0478FE"/>
<path opacity="0.1" d="M234.439 165.437H223.075V136.515H234.439V165.437ZM223.539 164.973H233.975V136.979H223.539V164.973Z" fill="#1B2539"/>
<path opacity="0.1" d="M252.482 148.981H241.582V165.205H252.482V148.981Z" fill="#0478FE"/>
<path d="M252.716 165.437H241.35V148.749H252.716V165.437ZM241.814 164.973H252.252V149.213H241.814V164.973Z" fill="#1B2539"/>
<path opacity="0.1" d="M270.759 142.973H259.858V165.203H270.759V142.973Z" fill="#0478FE"/>
<path d="M270.991 165.437H259.624V142.743H270.991V165.437ZM260.088 164.973H270.527V143.207H260.088V164.973Z" fill="#1B2539"/>
<path opacity="0.1" d="M289.036 147.787H278.135V165.205H289.036V147.787Z" fill="#0478FE"/>
<path d="M289.268 165.437H277.903V147.557H289.268V165.437ZM278.367 164.973H288.804V148.021H278.367V164.973Z" fill="#1B2539"/>
<path d="M190.091 192.575L179.116 175.257C170.68 161.941 156.014 153.871 140.25 153.871H89.1209L82.127 184.999L122.805 192.575H190.091Z" fill="#1B2539"/>
<path d="M190.091 192.807H122.805C122.791 192.807 122.777 192.807 122.763 192.803L82.085 185.227C82.0224 185.215 81.969 185.178 81.9342 185.127C81.8994 185.074 81.8878 185.011 81.9017 184.948L88.8957 153.82C88.9189 153.713 89.014 153.639 89.123 153.639H140.252C148.025 153.639 155.734 155.62 162.544 159.367C169.355 163.113 175.154 168.564 179.313 175.131L190.288 192.45C190.334 192.522 190.337 192.613 190.295 192.687C190.253 192.761 190.177 192.807 190.091 192.807ZM122.826 192.344H189.669L178.919 175.379C170.478 162.057 156.021 154.103 140.249 154.103H89.3063L82.4074 184.816L122.828 192.344H122.826Z" fill="#40506F"/>
<path d="M79.5889 89.3343L90.5147 76.4506C90.5147 76.4506 87.3274 62.029 90.5147 59.7766C93.702 57.5241 104.751 55.564 104.751 55.564C104.751 55.564 113.276 74.0729 110.615 77.8935C107.952 81.7141 104.445 81.9368 98.6151 80.2573L95.8199 88.6384L79.5889 89.3366V89.3343Z" fill="#1B2539"/>
<path d="M79.5892 89.5663C79.501 89.5663 79.4198 89.5153 79.3804 89.4364C79.341 89.3529 79.3526 89.2555 79.4129 89.1836L90.2645 76.388C89.949 74.9266 87.2234 61.8203 90.3805 59.5887C93.5724 57.3316 104.257 55.4155 104.709 55.3367C104.814 55.3181 104.916 55.3715 104.96 55.4689C105.31 56.2297 113.51 74.1449 110.803 78.0281C107.948 82.1247 104.074 82.0481 98.7639 80.5426L96.0406 88.7127C96.0104 88.8031 95.9269 88.8681 95.8295 88.8704L79.5985 89.5686C79.5985 89.5686 79.5915 89.5686 79.5892 89.5686V89.5663ZM104.614 55.8238C103.185 56.0882 93.5376 57.9231 90.6472 59.9668C87.6223 62.1056 90.7076 76.2581 90.74 76.3996C90.7563 76.4692 90.7377 76.5435 90.6913 76.5991L80.1088 89.0792L95.6509 88.4111L98.3951 80.1831C98.4345 80.0648 98.5598 79.9998 98.6804 80.0346C104.925 81.837 108.001 81.2432 110.425 77.7613C112.852 74.2794 105.447 57.661 104.614 55.8238Z" fill="#40506F"/>
<path d="M98.8518 79.5894C98.824 79.5894 98.7938 79.5847 98.766 79.5731C98.6477 79.5267 98.5897 79.3922 98.6361 79.2716C99.3111 77.5643 100.383 76.0031 101.731 74.7551C101.823 74.667 101.972 74.6739 102.058 74.769C102.146 74.8641 102.139 75.0103 102.044 75.0961C100.745 76.2954 99.7148 77.7986 99.0653 79.4409C99.0281 79.5314 98.9423 79.5871 98.8495 79.5871L98.8518 79.5894Z" fill="#40506F"/>
<path d="M96.1125 78.1952C94.5699 80.044 92.3708 81.3314 90.0024 81.7722C89.0073 81.9578 87.9588 81.9949 87.003 81.6632C86.0473 81.3314 85.1983 80.5868 84.9315 79.6102C84.6671 78.6336 85.1125 77.4598 86.0404 77.0585C82.2963 74.3259 79.2413 70.2409 78.956 65.6154C78.7333 62.0198 80.2295 58.4452 82.5933 55.7265C84.957 53.0078 88.1281 51.0847 91.4731 49.7463C94.8181 48.4078 98.3534 47.6191 101.877 46.8745C104.076 46.4082 106.53 45.9976 108.442 47.1807C109.831 48.0389 110.664 49.6511 110.778 51.2819C110.891 52.9103 110.346 54.5411 109.458 55.912C108.774 56.9698 107.804 57.9418 106.57 58.1877C105.333 58.4336 103.858 57.675 103.7 56.427C103.153 58.988 102.603 61.5466 102.056 64.1076C101.842 65.1004 101.531 66.2232 100.62 66.6639C99.5921 67.1626 98.3696 66.5085 97.5577 65.7035C96.7458 64.8986 96.0592 63.8942 94.9991 63.465C93.6583 62.9222 92.0113 63.5439 91.1901 64.7339C90.3689 65.9239 90.3202 67.5454 90.8677 68.8839C91.443 70.2919 92.6515 71.4263 94.0921 71.9134C95.0037 72.2219 96.0012 72.2683 96.9407 72.0642C98.1353 71.8067 98.6619 71.1642 98.4555 72.781C98.2026 74.7574 97.3861 76.6619 96.1079 78.1929L96.1125 78.1952Z" fill="#40506F"/>
<path d="M98.4133 70.2663C98.3182 70.2663 98.2301 70.2083 98.1953 70.1155C97.8102 69.0856 96.8197 68.2922 95.7294 68.1415C95.6018 68.1229 95.5137 68.0069 95.5323 67.8793C95.5485 67.7517 95.6622 67.6636 95.7944 67.6822C97.0493 67.8538 98.1883 68.7678 98.6314 69.9532C98.6755 70.0738 98.6152 70.206 98.4945 70.2524C98.4667 70.2617 98.4412 70.2663 98.4133 70.2663Z" fill="#40506F"/>
<path d="M141.161 99.1654C141.161 99.1654 159.443 68.8167 165.193 66.381C170.944 63.9476 168.84 70.4567 165.931 74.8688C165.931 74.8688 168.884 74.6577 169.239 77.1885C169.239 77.1885 171.89 77.4205 172.25 79.1023C172.25 79.1023 176.073 80.7724 174.131 83.5283C172.95 85.2054 171.419 83.519 171.419 83.519L161.377 106.769C161.377 106.769 143.701 105.916 141.161 99.1631V99.1654Z" fill="#1B2539"/>
<path d="M161.377 107.006C161.377 107.006 161.37 107.006 161.366 107.006C160.637 106.971 143.506 106.067 140.943 99.2489C140.917 99.1817 140.924 99.1074 140.961 99.0471C141.708 97.8061 159.347 68.6055 165.1 66.1698C166.829 65.4391 168.014 65.4414 168.629 66.1768C169.925 67.7333 168.049 71.9575 166.351 74.6437C167.209 74.6971 169.06 75.0427 169.438 76.9797C170.055 77.0655 172.036 77.4552 172.447 78.9422C172.874 79.1509 174.44 79.9907 174.825 81.3732C175.033 82.1202 174.864 82.8926 174.319 83.6651C173.95 84.1894 173.505 84.4724 172.999 84.5048C172.366 84.542 171.811 84.1754 171.5 83.9179L161.588 106.867C161.551 106.953 161.468 107.006 161.375 107.006H161.377ZM141.418 99.1886C143.884 105.296 159.47 106.426 161.229 106.533L171.206 83.4308C171.236 83.3589 171.303 83.3079 171.38 83.2939C171.456 83.28 171.538 83.3079 171.589 83.3659C171.596 83.3728 172.252 84.0896 172.971 84.0386C173.328 84.0154 173.655 83.7996 173.938 83.396C174.398 82.7419 174.546 82.1039 174.377 81.4962C173.999 80.1368 172.171 79.3226 172.152 79.3133C172.085 79.2832 172.034 79.2229 172.018 79.1486C171.698 77.6501 169.239 77.4181 169.213 77.4158C169.107 77.4065 169.018 77.323 169.004 77.2163C168.682 74.9337 166.054 75.0891 165.94 75.0961C165.852 75.103 165.768 75.059 165.724 74.9824C165.68 74.9059 165.683 74.8108 165.731 74.7388C167.777 71.6351 169.287 67.6916 168.269 66.4691C167.689 65.7708 166.323 66.1513 165.279 66.592C159.823 68.9025 142.564 97.2864 141.416 99.184L141.418 99.1886Z" fill="#40506F"/>
<path d="M161.092 79.6103C161.053 79.6103 161.013 79.601 160.976 79.5801C160.865 79.5152 160.828 79.3737 160.89 79.2623C161.941 77.4344 163.479 75.9382 165.332 74.9361C165.446 74.8758 165.585 74.9175 165.648 75.0289C165.708 75.1425 165.666 75.2817 165.555 75.3443C163.801 76.2931 162.289 77.7661 161.294 79.4943C161.25 79.5685 161.173 79.6103 161.092 79.6103Z" fill="#40506F"/>
<path d="M164.556 81.5517C164.523 81.5517 164.488 81.5447 164.458 81.5308C164.342 81.4775 164.291 81.3383 164.347 81.2223C165.189 79.4199 166.639 77.9538 168.434 77.0955C168.55 77.0399 168.689 77.0886 168.743 77.2046C168.798 77.3206 168.75 77.4574 168.634 77.5131C166.961 78.3134 165.551 79.7377 164.767 81.4195C164.727 81.503 164.644 81.554 164.556 81.554V81.5517Z" fill="#40506F"/>
<path d="M167.14 83.4935C167.114 83.4935 167.089 83.4889 167.063 83.4796C166.942 83.4378 166.88 83.3033 166.922 83.1827C167.645 81.1413 169.378 79.4711 171.445 78.8262C171.566 78.7868 171.698 78.8564 171.735 78.9793C171.774 79.1023 171.705 79.2322 171.582 79.2693C169.652 79.8724 168.033 81.4313 167.358 83.3381C167.325 83.4332 167.235 83.4935 167.14 83.4935Z" fill="#40506F"/>
<path d="M23.6401 154.226C23.6401 154.226 13.2989 139.046 14.5028 130.672C16.3516 117.83 51.9105 92.0253 61.9386 88.5643C69.7653 85.8641 112.309 82.816 121.694 87.5389C131.08 92.2596 137.118 105.858 137.118 105.858L141.159 98.2931L163.892 101.61C163.892 101.61 155.003 144.247 136.111 145.121C116.317 146.037 112.828 131.208 112.828 131.208L109.198 141.901C107.894 145.738 108.463 149.962 110.727 153.324C113.793 157.877 115.684 164.989 103.053 169.787C83.1547 177.342 23.6448 154.228 23.6448 154.228L23.6401 154.226Z" fill="#0478FE"/>
<path d="M112.599 130.681C112.503 130.681 112.415 130.623 112.38 130.528L110.058 124.142C109.868 123.62 109.652 123.026 109.256 122.611C108.913 122.253 108.323 122.007 107.857 122.23C107.741 122.286 107.602 122.235 107.549 122.121C107.493 122.005 107.544 121.866 107.658 121.813C108.351 121.483 109.147 121.829 109.59 122.29C110.056 122.775 110.288 123.418 110.495 123.984L112.817 130.37C112.861 130.491 112.798 130.623 112.677 130.667C112.652 130.676 112.624 130.681 112.599 130.681Z" fill="#40506F"/>
<path d="M34.1226 150.327C34.1086 150.327 34.0924 150.327 34.0785 150.322C33.9532 150.297 33.8697 150.176 33.8952 150.051C36.4167 137.1 41.1327 124.791 47.9063 113.469C47.9712 113.36 48.115 113.323 48.2241 113.39C48.3331 113.455 48.3702 113.599 48.3029 113.708C41.5572 124.984 36.8621 137.241 34.3499 150.139C34.329 150.25 34.2316 150.327 34.1226 150.327Z" fill="#40506F"/>
<path d="M143.453 119.338C143.367 119.338 143.284 119.289 143.244 119.205L136.909 105.958C136.854 105.842 136.902 105.702 137.018 105.649C137.134 105.593 137.271 105.642 137.327 105.758L143.662 119.006C143.718 119.122 143.669 119.261 143.553 119.314C143.52 119.331 143.486 119.338 143.453 119.338Z" fill="#40506F"/>
<path d="M127.236 192.576H14.4054L0.231934 135.327H90.4826L98.1841 162.41H127.236V192.576Z" fill="#1B2539"/>
<path d="M127.236 192.807H14.4051C14.2984 192.807 14.2056 192.735 14.1801 192.631L0.00669088 135.383C-0.0095471 135.313 0.00669088 135.241 0.0484457 135.183C0.0925202 135.128 0.159792 135.095 0.231703 135.095H15.0268C15.1544 135.095 15.2588 135.2 15.2588 135.327C15.2588 135.455 15.1544 135.559 15.0268 135.559H0.528626L14.5861 192.343H127.002V162.642H112.596C112.469 162.642 112.364 162.537 112.364 162.41C112.364 162.282 112.469 162.178 112.596 162.178H127.234C127.361 162.178 127.466 162.282 127.466 162.41V192.575C127.466 192.703 127.361 192.807 127.234 192.807H127.236Z" fill="#40506F"/>
<path d="M97.3233 193C97.2213 193 97.1285 192.933 97.1006 192.831L80.749 135.39C80.7142 135.267 80.7861 135.139 80.9091 135.102C81.032 135.067 81.1596 135.139 81.1967 135.262L97.5483 192.703C97.5831 192.826 97.5112 192.954 97.3883 192.991C97.3674 192.998 97.3465 193 97.3257 193H97.3233Z" fill="#40506F"/>
<path d="M19.2046 111.214C19.077 111.214 18.9727 111.11 18.9727 110.982V9.55025C18.9727 4.28451 23.2572 0 28.5229 0H221.901C227.167 0 231.451 4.28451 231.451 9.55025V22.1695C231.451 22.2971 231.347 22.4015 231.219 22.4015C231.092 22.4015 230.987 22.2971 230.987 22.1695V9.55025C230.987 4.53968 226.912 0.463942 221.901 0.463942H28.5229C23.5123 0.463942 19.4366 4.53968 19.4366 9.55025V110.982C19.4366 111.11 19.3322 111.214 19.2046 111.214Z" fill="#40506F"/>
<path d="M225.397 16.7994H25.0274C24.8998 16.7994 24.7954 16.695 24.7954 16.5674C24.7954 16.4398 24.8998 16.3354 25.0274 16.3354H225.397C225.525 16.3354 225.629 16.4398 225.629 16.5674C225.629 16.695 225.525 16.7994 225.397 16.7994Z" fill="#40506F"/>
<path d="M30.9717 9.23119C31.354 7.61149 30.3509 5.98856 28.7312 5.60627C27.1115 5.22399 25.4885 6.22711 25.1062 7.84681C24.724 9.46652 25.7271 11.0894 27.3468 11.4717C28.9665 11.854 30.5894 10.8509 30.9717 9.23119Z" fill="#1B2539"/>
<path d="M28.0407 11.7865C26.2522 11.7865 24.7954 10.332 24.7954 8.54117C24.7954 6.75036 26.2499 5.2959 28.0407 5.2959C29.8315 5.2959 31.286 6.75268 31.286 8.54117C31.286 10.3297 29.8315 11.7865 28.0407 11.7865ZM28.0407 5.75984C26.5074 5.75984 25.2594 7.00785 25.2594 8.54117C25.2594 10.0745 26.5074 11.3225 28.0407 11.3225C29.574 11.3225 30.822 10.0745 30.822 8.54117C30.822 7.00785 29.574 5.75984 28.0407 5.75984Z" fill="#40506F"/>
<path d="M41.8916 9.23314C42.2739 7.61344 41.2708 5.99051 39.6511 5.60823C38.0314 5.22594 36.4085 6.22907 36.0262 7.84877C35.6439 9.46847 36.647 11.0914 38.2667 11.4737C39.8864 11.856 41.5093 10.8528 41.8916 9.23314Z" fill="#1B2539"/>
<path d="M38.9616 11.7865C37.1731 11.7865 35.7163 10.332 35.7163 8.54117C35.7163 6.75036 37.1708 5.2959 38.9616 5.2959C40.7524 5.2959 42.2069 6.75268 42.2069 8.54117C42.2069 10.3297 40.7524 11.7865 38.9616 11.7865ZM38.9616 5.75984C37.4283 5.75984 36.1803 7.00785 36.1803 8.54117C36.1803 10.0745 37.4283 11.3225 38.9616 11.3225C40.4949 11.3225 41.7429 10.0745 41.7429 8.54117C41.7429 7.00785 40.4949 5.75984 38.9616 5.75984Z" fill="#40506F"/>
<path d="M52.8115 9.2329C53.1938 7.6132 52.1907 5.99027 50.571 5.60798C48.9513 5.2257 47.3284 6.22883 46.9461 7.84853C46.5638 9.46823 47.5669 11.0912 49.1866 11.4734C50.8063 11.8557 52.4293 10.8526 52.8115 9.2329Z" fill="#1B2539"/>
<path d="M49.883 11.7865C48.0945 11.7865 46.6377 10.332 46.6377 8.54117C46.6377 6.75036 48.0922 5.2959 49.883 5.2959C51.6738 5.2959 53.1282 6.75268 53.1282 8.54117C53.1282 10.3297 51.6715 11.7865 49.883 11.7865ZM49.883 5.75984C48.3496 5.75984 47.1016 7.00785 47.1016 8.54117C47.1016 10.0745 48.3496 11.3225 49.883 11.3225C51.4163 11.3225 52.6643 10.0745 52.6643 8.54117C52.6643 7.00785 51.4163 5.75984 49.883 5.75984Z" fill="#40506F"/>
<path d="M56.9558 29.3188H0.231934V86.0428H56.9558V29.3188Z" fill="#1B2539"/>
<path d="M56.9559 86.2748H54.1722C54.0446 86.2748 53.9403 86.1704 53.9403 86.0428C53.9403 85.9152 54.0446 85.8108 54.1722 85.8108H56.9559C57.0835 85.8108 57.1878 85.9152 57.1878 86.0428C57.1878 86.1704 57.0835 86.2748 56.9559 86.2748ZM51.3886 86.2748H48.6049C48.4773 86.2748 48.3729 86.1704 48.3729 86.0428C48.3729 85.9152 48.4773 85.8108 48.6049 85.8108H51.3886C51.5162 85.8108 51.6205 85.9152 51.6205 86.0428C51.6205 86.1704 51.5162 86.2748 51.3886 86.2748ZM45.8213 86.2748H43.0376C42.91 86.2748 42.8056 86.1704 42.8056 86.0428C42.8056 85.9152 42.91 85.8108 43.0376 85.8108H45.8213C45.9488 85.8108 46.0532 85.9152 46.0532 86.0428C46.0532 86.1704 45.9488 86.2748 45.8213 86.2748ZM40.254 86.2748H37.4703C37.3427 86.2748 37.2383 86.1704 37.2383 86.0428C37.2383 85.9152 37.3427 85.8108 37.4703 85.8108H40.254C40.3815 85.8108 40.4859 85.9152 40.4859 86.0428C40.4859 86.1704 40.3815 86.2748 40.254 86.2748ZM34.6866 86.2748H31.903C31.7754 86.2748 31.671 86.1704 31.671 86.0428C31.671 85.9152 31.7754 85.8108 31.903 85.8108H34.6866C34.8142 85.8108 34.9186 85.9152 34.9186 86.0428C34.9186 86.1704 34.8142 86.2748 34.6866 86.2748ZM29.1193 86.2748H26.3357C26.2081 86.2748 26.1037 86.1704 26.1037 86.0428C26.1037 85.9152 26.2081 85.8108 26.3357 85.8108H29.1193C29.2469 85.8108 29.3513 85.9152 29.3513 86.0428C29.3513 86.1704 29.2469 86.2748 29.1193 86.2748ZM23.552 86.2748H20.7684C20.6408 86.2748 20.5364 86.1704 20.5364 86.0428C20.5364 85.9152 20.6408 85.8108 20.7684 85.8108H23.552C23.6796 85.8108 23.784 85.9152 23.784 86.0428C23.784 86.1704 23.6796 86.2748 23.552 86.2748ZM17.9847 86.2748H15.2011C15.0735 86.2748 14.9691 86.1704 14.9691 86.0428C14.9691 85.9152 15.0735 85.8108 15.2011 85.8108H17.9847C18.1123 85.8108 18.2167 85.9152 18.2167 86.0428C18.2167 86.1704 18.1123 86.2748 17.9847 86.2748ZM12.4174 86.2748H9.63376C9.50618 86.2748 9.40179 86.1704 9.40179 86.0428C9.40179 85.9152 9.50618 85.8108 9.63376 85.8108H12.4174C12.545 85.8108 12.6494 85.9152 12.6494 86.0428C12.6494 86.1704 12.545 86.2748 12.4174 86.2748ZM6.85011 86.2748H4.06645C3.93887 86.2748 3.83448 86.1704 3.83448 86.0428C3.83448 85.9152 3.93887 85.8108 4.06645 85.8108H6.85011C6.97769 85.8108 7.08208 85.9152 7.08208 86.0428C7.08208 86.1704 6.97769 86.2748 6.85011 86.2748ZM1.2828 86.2748H0.231971C0.104387 86.2748 0 86.1704 0 86.0428V84.31C0 84.1824 0.104387 84.078 0.231971 84.078C0.359555 84.078 0.463942 84.1824 0.463942 84.31V85.8108H1.2828C1.41038 85.8108 1.51477 85.9152 1.51477 86.0428C1.51477 86.1704 1.41038 86.2748 1.2828 86.2748ZM56.9559 84.8551C56.8283 84.8551 56.7239 84.7507 56.7239 84.6231V81.8395C56.7239 81.7119 56.8283 81.6075 56.9559 81.6075C57.0835 81.6075 57.1878 81.7119 57.1878 81.8395V84.6231C57.1878 84.7507 57.0835 84.8551 56.9559 84.8551ZM0.231971 81.7583C0.104387 81.7583 0 81.6539 0 81.5263V78.7427C0 78.6151 0.104387 78.5107 0.231971 78.5107C0.359555 78.5107 0.463942 78.6151 0.463942 78.7427V81.5263C0.463942 81.6539 0.359555 81.7583 0.231971 81.7583ZM56.9559 79.2878C56.8283 79.2878 56.7239 79.1834 56.7239 79.0558V76.2722C56.7239 76.1446 56.8283 76.0402 56.9559 76.0402C57.0835 76.0402 57.1878 76.1446 57.1878 76.2722V79.0558C57.1878 79.1834 57.0835 79.2878 56.9559 79.2878ZM0.231971 76.191C0.104387 76.191 0 76.0866 0 75.959V73.1754C0 73.0478 0.104387 72.9434 0.231971 72.9434C0.359555 72.9434 0.463942 73.0478 0.463942 73.1754V75.959C0.463942 76.0866 0.359555 76.191 0.231971 76.191ZM56.9559 73.7205C56.8283 73.7205 56.7239 73.6161 56.7239 73.4885V70.7049C56.7239 70.5773 56.8283 70.4729 56.9559 70.4729C57.0835 70.4729 57.1878 70.5773 57.1878 70.7049V73.4885C57.1878 73.6161 57.0835 73.7205 56.9559 73.7205ZM0.231971 70.6237C0.104387 70.6237 0 70.5193 0 70.3917V67.608C0 67.4805 0.104387 67.3761 0.231971 67.3761C0.359555 67.3761 0.463942 67.4805 0.463942 67.608V70.3917C0.463942 70.5193 0.359555 70.6237 0.231971 70.6237ZM56.9559 68.1532C56.8283 68.1532 56.7239 68.0488 56.7239 67.9212V65.1375C56.7239 65.01 56.8283 64.9056 56.9559 64.9056C57.0835 64.9056 57.1878 65.01 57.1878 65.1375V67.9212C57.1878 68.0488 57.0835 68.1532 56.9559 68.1532ZM0.231971 65.0564C0.104387 65.0564 0 64.952 0 64.8244V62.0407C0 61.9132 0.104387 61.8088 0.231971 61.8088C0.359555 61.8088 0.463942 61.9132 0.463942 62.0407V64.8244C0.463942 64.952 0.359555 65.0564 0.231971 65.0564ZM56.9559 62.5859C56.8283 62.5859 56.7239 62.4815 56.7239 62.3539V59.5702C56.7239 59.4427 56.8283 59.3383 56.9559 59.3383C57.0835 59.3383 57.1878 59.4427 57.1878 59.5702V62.3539C57.1878 62.4815 57.0835 62.5859 56.9559 62.5859ZM0.231971 59.4891C0.104387 59.4891 0 59.3847 0 59.2571V56.4734C0 56.3458 0.104387 56.2415 0.231971 56.2415C0.359555 56.2415 0.463942 56.3458 0.463942 56.4734V59.2571C0.463942 59.3847 0.359555 59.4891 0.231971 59.4891ZM56.9559 57.0186C56.8283 57.0186 56.7239 56.9142 56.7239 56.7866V54.0029C56.7239 53.8754 56.8283 53.771 56.9559 53.771C57.0835 53.771 57.1878 53.8754 57.1878 54.0029V56.7866C57.1878 56.9142 57.0835 57.0186 56.9559 57.0186ZM0.231971 53.9217C0.104387 53.9217 0 53.8174 0 53.6898V50.9061C0 50.7785 0.104387 50.6741 0.231971 50.6741C0.359555 50.6741 0.463942 50.7785 0.463942 50.9061V53.6898C0.463942 53.8174 0.359555 53.9217 0.231971 53.9217ZM56.9559 51.4513C56.8283 51.4513 56.7239 51.3469 56.7239 51.2193V48.4356C56.7239 48.308 56.8283 48.2037 56.9559 48.2037C57.0835 48.2037 57.1878 48.308 57.1878 48.4356V51.2193C57.1878 51.3469 57.0835 51.4513 56.9559 51.4513ZM0.231971 48.3544C0.104387 48.3544 0 48.25 0 48.1225V45.3388C0 45.2112 0.104387 45.1068 0.231971 45.1068C0.359555 45.1068 0.463942 45.2112 0.463942 45.3388V48.1225C0.463942 48.25 0.359555 48.3544 0.231971 48.3544ZM56.9559 45.8839C56.8283 45.8839 56.7239 45.7796 56.7239 45.652V42.8683C56.7239 42.7407 56.8283 42.6363 56.9559 42.6363C57.0835 42.6363 57.1878 42.7407 57.1878 42.8683V45.652C57.1878 45.7796 57.0835 45.8839 56.9559 45.8839ZM0.231971 42.7871C0.104387 42.7871 0 42.6827 0 42.5552V39.7715C0 39.6439 0.104387 39.5395 0.231971 39.5395C0.359555 39.5395 0.463942 39.6439 0.463942 39.7715V42.5552C0.463942 42.6827 0.359555 42.7871 0.231971 42.7871ZM56.9559 40.3166C56.8283 40.3166 56.7239 40.2123 56.7239 40.0847V37.301C56.7239 37.1734 56.8283 37.069 56.9559 37.069C57.0835 37.069 57.1878 37.1734 57.1878 37.301V40.0847C57.1878 40.2123 57.0835 40.3166 56.9559 40.3166ZM0.231971 37.2198C0.104387 37.2198 0 37.1154 0 36.9879V34.2042C0 34.0766 0.104387 33.9722 0.231971 33.9722C0.359555 33.9722 0.463942 34.0766 0.463942 34.2042V36.9879C0.463942 37.1154 0.359555 37.2198 0.231971 37.2198ZM56.9559 34.7493C56.8283 34.7493 56.7239 34.6449 56.7239 34.5174V31.7337C56.7239 31.6061 56.8283 31.5017 56.9559 31.5017C57.0835 31.5017 57.1878 31.6061 57.1878 31.7337V34.5174C57.1878 34.6449 57.0835 34.7493 56.9559 34.7493ZM0.231971 31.6525C0.104387 31.6525 0 31.5481 0 31.4205V29.3189C0 29.1913 0.104387 29.0869 0.231971 29.0869H0.913966C1.04155 29.0869 1.14594 29.1913 1.14594 29.3189C1.14594 29.4465 1.04155 29.5509 0.913966 29.5509H0.463942V31.4205C0.463942 31.5481 0.359555 31.6525 0.231971 31.6525ZM56.587 29.5509H53.8034C53.6758 29.5509 53.5714 29.4465 53.5714 29.3189C53.5714 29.1913 53.6758 29.0869 53.8034 29.0869H56.587C56.7146 29.0869 56.819 29.1913 56.819 29.3189C56.819 29.4465 56.7146 29.5509 56.587 29.5509ZM51.0197 29.5509H48.2361C48.1085 29.5509 48.0041 29.4465 48.0041 29.3189C48.0041 29.1913 48.1085 29.0869 48.2361 29.0869H51.0197C51.1473 29.0869 51.2517 29.1913 51.2517 29.3189C51.2517 29.4465 51.1473 29.5509 51.0197 29.5509ZM45.4524 29.5509H42.6688C42.5412 29.5509 42.4368 29.4465 42.4368 29.3189C42.4368 29.1913 42.5412 29.0869 42.6688 29.0869H45.4524C45.58 29.0869 45.6844 29.1913 45.6844 29.3189C45.6844 29.4465 45.58 29.5509 45.4524 29.5509ZM39.8851 29.5509H37.1015C36.9739 29.5509 36.8695 29.4465 36.8695 29.3189C36.8695 29.1913 36.9739 29.0869 37.1015 29.0869H39.8851C40.0127 29.0869 40.1171 29.1913 40.1171 29.3189C40.1171 29.4465 40.0127 29.5509 39.8851 29.5509ZM34.3178 29.5509H31.5342C31.4066 29.5509 31.3022 29.4465 31.3022 29.3189C31.3022 29.1913 31.4066 29.0869 31.5342 29.0869H34.3178C34.4454 29.0869 34.5498 29.1913 34.5498 29.3189C34.5498 29.4465 34.4454 29.5509 34.3178 29.5509ZM28.7505 29.5509H25.9669C25.8393 29.5509 25.7349 29.4465 25.7349 29.3189C25.7349 29.1913 25.8393 29.0869 25.9669 29.0869H28.7505C28.8781 29.0869 28.9825 29.1913 28.9825 29.3189C28.9825 29.4465 28.8781 29.5509 28.7505 29.5509ZM23.1832 29.5509H20.3995C20.272 29.5509 20.1676 29.4465 20.1676 29.3189C20.1676 29.1913 20.272 29.0869 20.3995 29.0869H23.1832C23.3108 29.0869 23.4152 29.1913 23.4152 29.3189C23.4152 29.4465 23.3108 29.5509 23.1832 29.5509ZM17.6159 29.5509H14.8322C14.7047 29.5509 14.6003 29.4465 14.6003 29.3189C14.6003 29.1913 14.7047 29.0869 14.8322 29.0869H17.6159C17.7435 29.0869 17.8479 29.1913 17.8479 29.3189C17.8479 29.4465 17.7435 29.5509 17.6159 29.5509ZM12.0486 29.5509H9.26493C9.13734 29.5509 9.03296 29.4465 9.03296 29.3189C9.03296 29.1913 9.13734 29.0869 9.26493 29.0869H12.0486C12.1762 29.0869 12.2806 29.1913 12.2806 29.3189C12.2806 29.4465 12.1762 29.5509 12.0486 29.5509ZM6.48127 29.5509H3.69762C3.57004 29.5509 3.46565 29.4465 3.46565 29.3189C3.46565 29.1913 3.57004 29.0869 3.69762 29.0869H6.48127C6.60886 29.0869 6.71324 29.1913 6.71324 29.3189C6.71324 29.4465 6.60886 29.5509 6.48127 29.5509Z" fill="#0478FE"/>
<path d="M9.67529 57.682C9.67529 59.728 11.3339 61.3866 13.3799 61.3866C13.533 61.3866 13.6814 61.375 13.8299 61.3564C14.1987 62.8434 14.7856 64.2445 15.5558 65.5203C15.4398 65.6131 15.3238 65.7082 15.2171 65.8173C13.7696 67.2647 13.7696 69.6077 15.2171 71.0552C16.6646 72.5027 19.0098 72.5027 20.4573 71.0552C20.564 70.9484 20.6614 70.8325 20.7542 70.7165C22.0324 71.4866 23.4335 72.0735 24.9204 72.4423C24.9019 72.5908 24.8903 72.7393 24.8903 72.8924C24.8903 74.9384 26.5489 76.597 28.5949 76.597C30.6408 76.597 32.2994 74.9384 32.2994 72.8924C32.2994 72.7393 32.2878 72.5908 32.2693 72.4423C33.7562 72.0735 35.1573 71.4866 36.4355 70.7165C36.5283 70.8325 36.6234 70.9484 36.7324 71.0552C38.1799 72.5027 40.5251 72.5027 41.9726 71.0552C43.4201 69.61 43.4201 67.2647 41.9726 65.8173C41.8659 65.7105 41.7499 65.6131 41.634 65.5203C42.4041 64.2422 42.991 62.8411 43.3598 61.3564C43.5083 61.375 43.6567 61.3866 43.8098 61.3866C45.8558 61.3866 47.5144 59.728 47.5144 57.682C47.5144 55.636 45.8558 53.9774 43.8098 53.9774C43.6567 53.9774 43.5083 53.989 43.3598 54.0076C42.991 52.5207 42.4041 51.1196 41.634 49.8437C41.7523 49.7509 41.8659 49.6558 41.9726 49.5468C43.4201 48.0993 43.4201 45.7564 41.9726 44.3089C40.5251 42.8614 38.1799 42.8614 36.7324 44.3089C36.6257 44.4156 36.5283 44.5316 36.4355 44.6476C35.1573 43.8774 33.7562 43.2905 32.2693 42.9217C32.2878 42.7732 32.2994 42.6248 32.2994 42.4717C32.2994 40.4257 30.6408 38.7671 28.5949 38.7671C26.5489 38.7671 24.8903 40.4257 24.8903 42.4717C24.8903 42.6248 24.9019 42.7732 24.9204 42.9217C23.4335 43.2905 22.0324 43.8774 20.7542 44.6476C20.6614 44.5316 20.5663 44.4156 20.4573 44.3089C19.0098 42.8614 16.6646 42.8614 15.2171 44.3089C13.7696 45.7541 13.7696 48.0993 15.2171 49.5468C15.3238 49.6535 15.4398 49.7509 15.5558 49.8437C14.7856 51.1219 14.1987 52.523 13.8299 54.0076C13.6814 53.989 13.533 53.9774 13.3799 53.9774C11.3339 53.9774 9.67529 55.636 9.67529 57.682ZM21.7146 57.682C21.7146 53.8823 24.7952 50.8041 28.5949 50.8041C32.3945 50.8041 35.4751 53.8823 35.4751 57.682C35.4751 61.4817 32.3945 64.56 28.5949 64.56C24.7952 64.56 21.7146 61.4817 21.7146 57.682Z" fill="#1B2539"/>
<path d="M28.5926 76.8241C26.4213 76.8241 24.656 75.0588 24.656 72.8875C24.656 72.7994 24.6607 72.7089 24.6676 72.6138C23.3106 72.2589 22.0139 71.7207 20.8053 71.0155C20.7427 71.0897 20.68 71.1547 20.6197 71.2173C19.0841 72.7507 16.5881 72.753 15.0524 71.2173C14.3078 70.475 13.8995 69.4868 13.8995 68.4337C13.8995 67.3805 14.3101 66.3947 15.0524 65.65C15.1151 65.5874 15.18 65.5271 15.2542 65.4644C14.5467 64.2559 14.0109 62.9592 13.6536 61.6044C13.5585 61.6114 13.4657 61.616 13.3799 61.616C11.2087 61.616 9.44336 59.8507 9.44336 57.6795C9.44336 55.5082 11.2087 53.7429 13.3799 53.7429C13.4681 53.7429 13.5585 53.7476 13.6536 53.7545C14.0086 52.3998 14.5467 51.1031 15.2519 49.8945C15.18 49.8319 15.1127 49.7716 15.0501 49.709C14.3055 48.9667 13.8972 47.9785 13.8972 46.9253C13.8972 45.8722 14.3078 44.8863 15.0501 44.1417C16.5858 42.606 19.0818 42.606 20.6174 44.1417C20.68 44.202 20.7404 44.2692 20.803 44.3435C22.0116 43.636 23.3083 43.1001 24.6653 42.7452C24.6583 42.6478 24.6537 42.5573 24.6537 42.4715C24.6537 40.3025 26.419 38.5349 28.5903 38.5349C30.7615 38.5349 32.5268 40.3002 32.5268 42.4715C32.5268 42.5596 32.5222 42.6501 32.5152 42.7452C33.8722 43.1001 35.169 43.6383 36.3775 44.3435C36.4402 44.2692 36.5005 44.2043 36.5631 44.1417C38.0988 42.606 40.5948 42.6083 42.1304 44.1417C42.875 44.884 43.2833 45.8722 43.2833 46.9253C43.2833 47.9785 42.875 48.9643 42.1304 49.709C42.0678 49.7716 42.0028 49.8319 41.9286 49.8945C42.6361 51.1031 43.172 52.3998 43.5292 53.7545C43.6243 53.7476 43.7148 53.7429 43.8029 53.7429C45.9742 53.7429 47.7395 55.5082 47.7395 57.6795C47.7395 59.8507 45.9742 61.616 43.8029 61.616C43.7148 61.616 43.6243 61.6114 43.5292 61.6044C43.1743 62.9615 42.6361 64.2582 41.9286 65.4644C42.0028 65.5271 42.0678 65.5897 42.1304 65.65C42.875 66.3947 43.2833 67.3828 43.2833 68.4337C43.2833 69.4845 42.875 70.4727 42.1304 71.2173C40.5948 72.753 38.0988 72.753 36.5631 71.2173C36.5005 71.157 36.4402 71.0897 36.3775 71.0155C35.169 71.723 33.8722 72.2589 32.5152 72.6138C32.5222 72.7112 32.5268 72.8017 32.5268 72.8875C32.5268 75.0564 30.7615 76.8241 28.5903 76.8241H28.5926ZM20.752 70.482C20.7937 70.482 20.8331 70.4936 20.8726 70.5145C22.1484 71.2823 23.5263 71.8552 24.9738 72.2125C25.0875 72.2403 25.1617 72.3494 25.1478 72.4653C25.1292 72.6254 25.12 72.7576 25.12 72.8875C25.12 74.8013 26.6788 76.3601 28.5926 76.3601C30.5063 76.3601 32.0652 74.8036 32.0652 72.8875C32.0652 72.7599 32.0559 72.6254 32.0373 72.4653C32.0234 72.3494 32.0977 72.2403 32.2113 72.2125C33.6588 71.8529 35.0391 71.2823 36.3126 70.5145C36.4146 70.4541 36.5422 70.4773 36.6141 70.5701C36.7139 70.6954 36.802 70.7975 36.8925 70.8879C38.2472 72.2426 40.4509 72.2426 41.8033 70.8879C42.4598 70.2315 42.8194 69.3592 42.8194 68.4337C42.8194 67.5081 42.4575 66.6336 41.8033 65.9794C41.7129 65.889 41.6085 65.7985 41.4855 65.7011C41.3927 65.6291 41.3696 65.4992 41.4299 65.3995C42.1977 64.126 42.7707 62.7457 43.1302 61.2982C43.158 61.1846 43.2694 61.1103 43.3831 61.1243C43.5385 61.1428 43.6777 61.1521 43.8052 61.1521C45.7213 61.1521 47.2779 59.5956 47.2779 57.6795C47.2779 55.7634 45.719 54.2069 43.8052 54.2069C43.6777 54.2069 43.5385 54.2162 43.3831 54.2347C43.2671 54.251 43.158 54.1744 43.1302 54.0607C42.7707 52.6156 42.2 51.2353 41.4299 49.9595C41.3696 49.8597 41.3927 49.7298 41.4855 49.6579C41.6085 49.5605 41.7129 49.47 41.8033 49.3796C42.4598 48.7231 42.8194 47.8509 42.8194 46.9253C42.8194 45.9997 42.4575 45.1252 41.8033 44.4711C40.4486 43.1187 38.2472 43.1163 36.8925 44.4711C36.802 44.5615 36.7139 44.6636 36.6141 44.7889C36.5422 44.8816 36.4123 44.9048 36.3126 44.8445C35.0367 44.0767 33.6565 43.5061 32.209 43.1465C32.0953 43.1187 32.0211 43.0096 32.035 42.8937C32.0536 42.7336 32.0629 42.6014 32.0629 42.4715C32.0629 40.5577 30.504 38.9989 28.5903 38.9989C26.6765 38.9989 25.1176 40.5554 25.1176 42.4715C25.1176 42.599 25.1269 42.7336 25.1455 42.8937C25.1594 43.0096 25.0852 43.1187 24.9715 43.1465C23.524 43.5061 22.1438 44.0767 20.8703 44.8445C20.7705 44.9048 20.6406 44.8816 20.5687 44.7889C20.4713 44.6659 20.3808 44.5615 20.2903 44.4711C18.9356 43.1163 16.7319 43.1163 15.3795 44.4711C14.723 45.1275 14.3635 45.9997 14.3635 46.9253C14.3635 47.8509 14.7253 48.7254 15.3795 49.3796C15.47 49.47 15.5744 49.5605 15.6973 49.6579C15.7901 49.7298 15.8133 49.8597 15.753 49.9595C14.9852 51.2353 14.4122 52.6156 14.0549 54.0607C14.0271 54.1744 13.9158 54.251 13.8021 54.2347C13.6467 54.2162 13.5075 54.2069 13.3799 54.2069C11.4661 54.2069 9.9073 55.7634 9.9073 57.6795C9.9073 59.5956 11.4661 61.1521 13.3799 61.1521C13.5098 61.1521 13.642 61.1428 13.8021 61.1243C13.9181 61.1103 14.0271 61.1846 14.0549 61.2982C14.4145 62.7457 14.9852 64.126 15.753 65.3995C15.8133 65.4992 15.7901 65.6291 15.6973 65.7011C15.5744 65.7985 15.47 65.889 15.3795 65.9794C14.723 66.6359 14.3635 67.5058 14.3635 68.4337C14.3635 69.3616 14.7253 70.2338 15.3795 70.8879C16.7342 72.2426 18.9379 72.2426 20.2903 70.8879C20.3808 70.7975 20.4713 70.6931 20.5687 70.5701C20.6151 70.5121 20.6824 70.482 20.752 70.482ZM28.5926 64.7894C24.6699 64.7894 21.4803 61.5998 21.4803 57.6795C21.4803 53.7592 24.6699 50.5696 28.5926 50.5696C32.5152 50.5696 35.7048 53.7592 35.7048 57.6795C35.7048 61.5998 32.5152 64.7894 28.5926 64.7894ZM28.5926 51.0335C24.9274 51.0335 21.9443 54.0143 21.9443 57.6795C21.9443 61.3446 24.9274 64.3255 28.5926 64.3255C32.2577 64.3255 35.2409 61.3446 35.2409 57.6795C35.2409 54.0143 32.2577 51.0335 28.5926 51.0335Z" fill="#0478FE"/>
</svg>
