<svg width="17.000000" height="19.000000" viewBox="0 0 17 19" fill="none" xmlns="http://www.w3.org/2000/svg" xmlns:xlink="http://www.w3.org/1999/xlink">
	<desc>
			Created with Pixso.
	</desc>
	<defs/>
	<path id="Vector" d="M3 18L3 13M3 2L3 0M13 5L13 0M13 18L13 16M0 5C0 3.34 1.34 2 3 2C4.65 2 6 3.34 6 5L6 7C6 8.65 4.65 10 3 10C1.34 10 0 8.65 0 7L0 5ZM10 11C10 9.34 11.34 8 13 8C14.65 8 16 9.34 16 11L16 13C16 14.65 14.65 16 13 16C11.34 16 10 14.65 10 13L10 11Z" stroke="#0478FE" stroke-opacity="1.000000" stroke-width="1.500000"/>
</svg>
