<svg width="290" height="193" viewBox="0 0 290 193" fill="none" xmlns="http://www.w3.org/2000/svg">
<g clip-path="url(#clip0_56_653)">
<path d="M2.51526 190.485C2.499 190.485 2.48507 190.485 2.46881 190.48C2.34339 190.454 2.26211 190.331 2.28765 190.206L25.9005 73.0078C25.9261 72.8824 26.0469 72.7988 26.1746 72.8267C26.3 72.8522 26.3813 72.9753 26.3558 73.1007L2.74286 190.299C2.71964 190.408 2.62442 190.485 2.51526 190.485Z" fill="#40506F"/>
<path d="M5.00943 190.559C5.17367 189.179 4.18858 187.928 2.80918 187.764C1.42978 187.599 0.178419 188.584 0.014179 189.964C-0.150061 191.343 0.835013 192.595 2.21442 192.759C3.59382 192.923 4.84519 191.938 5.00943 190.559Z" fill="#40506F"/>
<path d="M62.3752 190.485C62.2661 190.485 62.1708 190.408 62.1476 190.299L38.5347 73.1008C38.5092 72.9754 38.5905 72.8523 38.7159 72.8267C38.8413 72.8012 38.9644 72.8825 38.9899 73.0079L62.6028 190.208C62.6284 190.334 62.5471 190.457 62.4217 190.482C62.4054 190.485 62.3915 190.487 62.3752 190.487V190.485Z" fill="#40506F"/>
<path d="M64.8218 190.848C65.1426 189.496 64.3069 188.14 62.9553 187.82C61.6037 187.499 60.248 188.335 59.9272 189.686C59.6065 191.038 60.4421 192.394 61.7937 192.714C63.1453 193.035 64.5011 192.199 64.8218 190.848Z" fill="#40506F"/>
<path d="M36.1335 153.083H11.1851C11.0574 153.083 10.9529 152.979 10.9529 152.851C10.9529 152.723 11.0574 152.619 11.1851 152.619H36.1335C36.2612 152.619 36.3657 152.723 36.3657 152.851C36.3657 152.979 36.2612 153.083 36.1335 153.083Z" fill="#40506F"/>
<path d="M36.4283 158.527H13.3009C13.1731 158.527 13.0686 158.422 13.0686 158.295C13.0686 158.167 13.1731 158.062 13.3009 158.062H36.4283C36.5561 158.062 36.6606 158.167 36.6606 158.295C36.6606 158.422 36.5561 158.527 36.4283 158.527Z" fill="#40506F"/>
<path d="M26.3186 88.6198L87.6095 189.735C88.7498 191.618 90.7936 192.768 92.9953 192.768H127.327C128.425 192.768 128.859 191.344 127.947 190.731L114.46 181.689C114.46 181.689 71.1615 109.936 56.3184 80.1636L26.3232 88.6198H26.3186Z" fill="#1B2539"/>
<path d="M127.327 193H92.9953C90.7262 193 88.5872 191.795 87.412 189.855L26.1212 88.7406C26.084 88.6779 26.0771 88.6036 26.1026 88.5339C26.1305 88.4666 26.1862 88.4155 26.2559 88.3946L56.251 79.9383C56.3578 79.9081 56.4717 79.9592 56.5227 80.0591C71.043 109.181 113.343 179.393 114.629 181.525L128.074 190.536C128.576 190.873 128.787 191.465 128.611 192.043C128.434 192.622 127.93 192.995 127.324 192.995L127.327 193ZM26.6763 88.7615L87.8092 189.614C88.9008 191.416 90.8888 192.536 92.9953 192.536H127.327C127.807 192.536 128.077 192.213 128.167 191.911C128.258 191.609 128.214 191.191 127.817 190.924L114.328 181.882C114.3 181.864 114.276 181.838 114.258 181.81C113.826 181.095 70.9525 109.987 56.193 80.44L26.6763 88.7615Z" fill="#40506F"/>
<path d="M88.2411 187.022C88.1296 187.022 88.0321 186.941 88.0112 186.827C87.9903 186.701 88.0762 186.581 88.2016 186.56L112.957 182.444C113.083 182.421 113.203 182.509 113.224 182.635C113.245 182.762 113.159 182.881 113.034 182.902L88.2783 187.017C88.2643 187.017 88.2527 187.019 88.2411 187.019V187.022Z" fill="#40506F"/>
<path d="M87.8045 107.95C74.8054 94.4238 55.949 75.3607 52.6116 71.9907C48.0316 74.5246 24.5093 85.4659 24.5093 85.4659L64.6143 122.942L40.5322 154.419C38.8972 156.555 39.0946 159.57 40.9898 161.477L59.4769 180.071C60.587 181.188 62.4892 180.356 62.4241 178.784L61.8807 165.583C66.6883 161.24 80.0543 143.872 89.2281 131.695C94.6465 124.503 94.045 114.441 87.8045 107.948V107.95Z" fill="#1B2539"/>
<path d="M60.687 180.821C60.183 180.821 59.6953 180.621 59.3144 180.238L40.8273 161.644C38.8601 159.665 38.6534 156.5 40.3512 154.282L64.3054 122.972L24.3491 85.6377C24.2934 85.5843 24.2655 85.5077 24.2794 85.431C24.291 85.3544 24.3398 85.2893 24.4118 85.2568C24.6464 85.1477 47.9783 74.2876 52.5002 71.7886C52.5907 71.7375 52.7045 71.7538 52.7789 71.8281C56.388 75.4721 75.0447 94.3355 87.9741 107.79C91.0305 110.969 92.8583 115.145 93.1231 119.549C93.3878 123.95 92.071 128.316 89.4163 131.839C79.5875 144.887 66.902 161.312 62.12 165.685L62.6588 178.777C62.6936 179.602 62.2431 180.322 61.4859 180.651C61.2235 180.765 60.9541 180.821 60.687 180.821ZM24.9181 85.5332L64.7723 122.772C64.8605 122.854 64.8698 122.988 64.7978 123.083L40.7158 154.56C39.1597 156.595 39.3478 159.498 41.1524 161.312L59.6395 179.906C60.1714 180.44 60.8449 180.419 61.2955 180.222C61.7484 180.024 62.2198 179.543 62.1896 178.791L61.6462 165.592C61.6439 165.523 61.6717 165.458 61.7228 165.411C66.412 161.175 79.1671 144.662 89.0401 131.556C94.419 124.414 93.8268 114.555 87.6327 108.11C74.845 94.8046 56.4554 76.2084 52.5652 72.2787C47.9922 74.7661 27.6865 84.2419 24.9158 85.5332H24.9181Z" fill="#40506F"/>
<path d="M59.8486 165.451C59.823 165.451 59.7975 165.446 59.7719 165.437C52.9856 163.037 47.2955 157.944 44.1554 151.469C44.0997 151.353 44.1485 151.216 44.2623 151.158C44.3761 151.102 44.5154 151.151 44.5735 151.265C47.6578 157.633 53.255 162.638 59.9252 164.998C60.046 165.039 60.1087 165.172 60.0669 165.295C60.0344 165.39 59.9438 165.451 59.8486 165.451Z" fill="#40506F"/>
<path d="M59.6557 44.9101C59.7161 49.9291 58.527 54.8621 57.2868 59.7045C56.0466 64.5469 54.7367 69.4265 54.5486 74.4431C48.445 76.7354 42.3438 79.03 36.2403 81.3223C36.1683 72.0393 37.2134 62.6843 40.0236 53.8982C41.74 48.5286 44.1275 43.3866 47.2095 38.7578C48.6076 36.6583 50.3681 33.6205 52.456 32.2432C54.9387 30.6058 56.6435 33.3116 57.6491 35.4645C59.0124 38.3769 59.6163 41.6679 59.6557 44.9101Z" fill="#1B2539"/>
<path d="M36.2403 81.5569C36.1939 81.5569 36.1474 81.543 36.108 81.5151C36.0453 81.4733 36.0081 81.4013 36.0081 81.3247C35.9291 71.1986 37.2042 61.9481 39.8007 53.8286C41.5821 48.2569 44.0091 43.1427 47.0144 38.6301C47.2211 38.3189 47.4371 37.9845 47.6624 37.6407C48.9305 35.6829 50.5098 33.2489 52.326 32.0505C53.0924 31.5442 53.8542 31.3932 54.5858 31.5999C55.7563 31.9297 56.827 33.1629 57.8582 35.367C59.1425 38.1145 59.8439 41.4125 59.8881 44.9078C59.9485 49.8339 58.8476 54.5509 57.5098 59.7626L57.3287 60.4663C56.1628 65.0091 54.9551 69.7052 54.7786 74.4524C54.7762 74.5453 54.7159 74.6289 54.6276 74.6614L36.3193 81.5407C36.2938 81.55 36.2659 81.5546 36.238 81.5546L36.2403 81.5569ZM53.9401 31.9738C53.5012 31.9738 53.0529 32.1271 52.5815 32.4383C50.8466 33.5833 49.2951 35.9732 48.0503 37.8939C47.825 38.2399 47.609 38.5744 47.4 38.8879C44.4202 43.3657 42.0118 48.4404 40.242 53.9703C37.6896 61.955 36.4192 71.043 36.468 80.9903L54.3187 74.2805C54.5184 69.5357 55.7169 64.8651 56.8758 60.3502L57.0569 59.6465C58.3854 54.4649 59.4793 49.7828 59.4189 44.9125C59.3771 41.4845 58.6897 38.2492 57.4332 35.5621C56.4624 33.4858 55.4893 32.3361 54.4557 32.0435C54.2839 31.9947 54.1097 31.9715 53.9355 31.9715L53.9401 31.9738Z" fill="#40506F"/>
<path d="M47.465 27.4147C47.465 27.4147 53.9122 30.1251 55.3638 35.3948C56.8154 40.6669 36.2403 118.369 36.2403 118.369L13.006 99.0616C8.56073 95.3688 7.1022 89.177 9.43167 83.8887L31.6882 33.3417C31.6882 33.3417 41.4056 25.2432 47.4673 27.4124L47.465 27.4147Z" fill="#0478FE"/>
<path d="M92.54 54.1189C83.8051 54.4348 74.5476 54.6345 73.3143 53.81C70.9593 52.2354 63.3322 46.8495 59.8647 39.1992C56.3972 31.5512 47.4649 27.4148 47.4649 27.4148L37.1506 47.2513C37.1506 47.2513 60.1132 69.0968 73.3143 68.8227C79.671 68.6903 86.534 68.0934 92.1034 67.4733C91.1604 63.0768 91.3207 58.4458 92.54 54.1166V54.1189Z" fill="#0478FE"/>
<path d="M118.417 60.9356C118.171 60.0113 117.586 59.2239 117.01 58.4598C115.375 56.2837 113.57 53.9867 110.976 53.1645C109.283 52.628 107.457 52.7976 105.69 52.9694C103.584 53.1762 94.3725 54.219 92.54 54.4117C90.9468 54.5789 90.1664 62.933 91.035 66.001C91.1813 66.5189 91.3718 67.0531 91.7782 67.4084C92.5098 68.0495 93.6316 67.8706 94.5652 67.5966C97.9886 66.5886 101.17 64.7817 103.79 62.3593C104.431 61.7671 105.123 61.1005 105.994 61.061C107.114 61.0123 107.964 62.0017 108.677 62.8633C109.302 63.6204 109.994 64.3706 110.899 64.7469C111.805 65.1231 112.978 65.0279 113.607 64.2731C113.937 63.8782 114.007 63.3046 113.865 62.8169C114.239 63.1629 114.641 63.4695 115.098 63.6901C115.937 64.0942 117.017 64.1407 117.741 63.5554C118.487 62.9562 118.661 61.8553 118.415 60.931L118.417 60.9356Z" fill="#1B2539"/>
<path d="M94.5654 67.5966C97.9888 66.5886 101.171 64.7817 103.79 62.3593C104.431 61.7671 105.123 61.1005 105.994 61.0611C107.114 61.0123 107.964 62.0017 108.677 62.8633C109.302 63.6205 109.994 64.3706 110.9 64.7469C111.805 65.1231 112.978 65.0279 113.608 64.2731C113.937 63.8782 114.007 63.3046 113.865 62.8169C114.239 63.1629 114.641 63.4695 115.099 63.6901C115.937 64.0942 117.017 64.1407 117.742 63.5554C118.487 62.9562 118.661 61.8554 118.415 60.931C118.169 60.0066 117.584 59.2193 117.008 58.4552C115.373 56.279 113.568 53.9821 110.974 53.1599C109.281 52.6234 107.455 52.7929 105.688 52.9648C103.581 53.1715 94.3703 54.2143 92.5378 54.4071L94.5631 67.5919L94.5654 67.5966Z" fill="#1B2539"/>
<path d="M94.5652 67.8286C94.4654 67.8286 94.3725 67.7636 94.3423 67.6614C94.3051 67.5383 94.3771 67.4082 94.5002 67.3734C97.8841 66.377 101.043 64.5841 103.632 62.1872L103.695 62.1292C104.334 61.5393 105.056 60.8681 105.985 60.8286C107.253 60.7682 108.18 61.8969 108.858 62.7145C109.425 63.3996 110.105 64.1637 110.992 64.533C111.766 64.8558 112.853 64.8186 113.433 64.1242C113.693 63.813 113.777 63.3253 113.647 62.8817C113.617 62.7818 113.659 62.675 113.747 62.6192C113.835 62.5635 113.951 62.5751 114.028 62.6448C114.446 63.0303 114.82 63.2951 115.203 63.4786C115.909 63.8176 116.924 63.9175 117.602 63.374C118.301 62.812 118.406 61.7715 118.197 60.9912C117.96 60.0993 117.358 59.3004 116.829 58.5943C115.026 56.1975 113.336 54.1491 110.911 53.3826C109.236 52.8531 107.367 53.0366 105.718 53.1968C104.417 53.3246 100.355 53.7775 97.0898 54.1398C95.046 54.3674 93.2693 54.5648 92.5679 54.6391C92.4402 54.653 92.3264 54.5601 92.3124 54.4324C92.2985 54.3047 92.3914 54.1909 92.5191 54.1769C93.2182 54.1026 94.9926 53.9052 97.0364 53.6776C100.302 53.313 104.366 52.8624 105.671 52.7347C107.365 52.5674 109.285 52.3793 111.05 52.939C113.607 53.7473 115.347 55.8515 117.2 58.3156C117.755 59.0542 118.385 59.8903 118.645 60.8704C118.891 61.7971 118.754 63.0419 117.892 63.734C117.159 64.3239 116.025 64.3867 115.003 63.8966C114.725 63.7619 114.453 63.5924 114.174 63.3764C114.16 63.7665 114.03 64.1358 113.793 64.4192C113.071 65.2855 111.749 65.3458 110.818 64.958C109.833 64.5492 109.109 63.7364 108.505 63.0071C107.889 62.2616 107.044 61.2466 106.011 61.2884C105.253 61.321 104.624 61.9039 104.018 62.4659L103.955 62.524C101.312 64.9696 98.0908 66.7974 94.6372 67.8147C94.6163 67.8216 94.5931 67.824 94.5722 67.824L94.5652 67.8286Z" fill="#40506F"/>
<path d="M113.463 62.4197C113.382 62.4197 113.306 62.3779 113.261 62.3036C112.13 60.3248 110.851 58.0836 108.774 56.8248C108.247 56.5043 106.893 55.8238 105.741 56.4137C105.627 56.4717 105.488 56.4276 105.428 56.3115C105.37 56.1977 105.414 56.0583 105.53 55.998C106.893 55.3012 108.421 56.0653 109.016 56.4253C111.194 57.7468 112.507 60.0438 113.665 62.069C113.728 62.1805 113.691 62.3221 113.58 62.3848C113.542 62.4057 113.503 62.415 113.463 62.415V62.4197Z" fill="#40506F"/>
<path d="M27.8676 31.0448C26.4648 32.4708 25.2223 34.1569 24.8112 36.1148C24.4001 38.0727 24.9877 40.3371 26.6344 41.4775C27.8281 42.3043 29.3935 42.4343 30.8172 42.158C32.2409 41.8793 33.5624 41.2336 34.87 40.6019C38.3212 38.9343 41.8212 37.3109 45.5326 36.3494C49.2439 35.3879 53.2038 35.1115 56.8966 36.1427C57.4888 36.3076 58.1229 36.5073 58.7058 36.3099C59.4049 36.0753 59.8206 35.3089 59.8462 34.5703C59.8717 33.8341 59.5791 33.1234 59.24 32.4685C54.7761 23.8659 42.6387 22.8092 34.6284 26.3835C32.1155 27.5053 29.7999 29.0799 27.8699 31.0425L27.8676 31.0448Z" fill="#1B2539"/>
<path d="M27.5889 42.2022C27.5611 42.2022 27.5355 42.1975 27.5077 42.1882C27.143 42.0535 26.8039 41.8793 26.4997 41.668C24.6347 40.3767 24.1934 37.9241 24.5836 36.0661C24.9459 34.3428 25.9655 32.6474 27.7004 30.88C29.6304 28.9151 31.9297 27.3312 34.5309 26.1722C43.0406 22.375 55.0827 23.9566 59.4444 32.364C59.7533 32.9609 60.104 33.7506 60.0761 34.582C60.0459 35.4832 59.5117 36.2867 58.7778 36.5329C58.6547 36.5724 58.5247 36.5074 58.4829 36.3866C58.4411 36.2658 58.5084 36.1335 58.6292 36.0917C59.2749 35.8733 59.5907 35.1487 59.6116 34.5658C59.6348 33.8481 59.3306 33.1583 59.031 32.5777C54.7901 24.4048 43.0382 22.8859 34.719 26.5973C32.1712 27.733 29.9207 29.2844 28.0325 31.2074C26.3603 32.9075 25.3826 34.5286 25.0388 36.1637C24.6138 38.1819 25.3245 40.2884 26.7668 41.2871C27.0408 41.4752 27.3451 41.6332 27.6726 41.7539C27.7933 41.798 27.8537 41.9328 27.8096 42.0535C27.7747 42.1464 27.6865 42.2045 27.5913 42.2045L27.5889 42.2022Z" fill="#40506F"/>
<path d="M54.7669 14.864L47.4626 27.4148C50.7351 28.8873 53.385 30.5316 54.8459 32.4988L60.9935 21.2207C60.8519 20.4218 58.0881 10.9552 54.7669 14.864Z" fill="#1B2539"/>
<path d="M54.8482 32.731C54.7739 32.731 54.7065 32.6961 54.6624 32.6381C53.3664 30.8916 50.9812 29.2519 47.3697 27.6261C47.3093 27.5983 47.2629 27.5472 47.2443 27.4844C47.2234 27.4217 47.2327 27.3544 47.2652 27.2963L54.5695 14.7455C54.5765 14.7339 54.5834 14.7223 54.5927 14.713C55.315 13.863 56.0814 13.5401 56.8664 13.7515C59.3678 14.4297 61.105 20.51 61.2235 21.1789C61.2327 21.2299 61.2235 21.2834 61.1979 21.3298L55.0502 32.6079C55.0131 32.6776 54.9411 32.724 54.8621 32.7287C54.8575 32.7287 54.8505 32.7287 54.8459 32.7287L54.8482 32.731ZM47.7947 27.3079C51.1577 28.8454 53.4617 30.4085 54.8134 32.076L60.7497 21.1812C60.5128 20.0548 58.8011 14.7571 56.7434 14.1997C56.1418 14.0372 55.5566 14.2973 54.9573 14.9987L47.7924 27.3079H47.7947Z" fill="#40506F"/>
<path d="M55.5982 33.6066C55.5285 33.6066 55.4612 33.5765 55.4147 33.5184C51.3922 28.3694 45.1237 26.8435 45.061 26.8273C44.9356 26.7971 44.8589 26.6716 44.8891 26.5486C44.9193 26.4231 45.0424 26.3465 45.1678 26.3767C45.2329 26.3929 51.6592 27.956 55.7817 33.2327C55.8606 33.3326 55.8421 33.4789 55.7422 33.5579C55.7004 33.5904 55.6493 33.6066 55.6005 33.6066H55.5982Z" fill="#40506F"/>
<path d="M70.086 4.92126C68.6739 1.47234 64.5956 -0.648101 60.9609 0.17871C55.5797 1.40267 52.5836 7.79652 47.2024 9.02977C47.4881 9.80084 48.2104 10.3908 49.0209 10.5185C47.6065 11.2501 46.926 13.057 47.3116 14.5991C47.6971 16.1436 49.0116 17.3629 50.5259 17.846C52.0402 18.3314 53.7193 18.1433 55.1941 17.5464L66.9019 14.699C70.0744 12.7411 71.4958 8.37018 70.086 4.92126Z" fill="#40506F"/>
<path d="M55.1129 15.8303C55.1129 15.8303 55.1013 15.8303 55.0967 15.8303C54.9689 15.821 54.8737 15.7095 54.883 15.5818C54.9062 15.2682 54.7878 14.9361 54.5579 14.6713C54.3279 14.4066 54.0167 14.2417 53.7032 14.2208C53.5754 14.2115 53.4779 14.1 53.4872 13.9723C53.4965 13.8445 53.608 13.7516 53.7357 13.7563C54.1723 13.7865 54.5997 14.0094 54.9086 14.3648C55.2174 14.7224 55.3777 15.1776 55.3452 15.6143C55.3359 15.7374 55.2337 15.8303 55.1129 15.8303Z" fill="#40506F"/>
<path d="M57.0358 13.8537C56.9476 13.2568 56.8942 12.6553 56.5853 12.1095C56.1324 11.3082 55.2916 10.7555 54.358 10.7392C53.2525 10.7183 52.1911 11.4313 51.7173 12.43C51.2458 13.4287 51.348 14.6573 51.9124 15.6072C52.4768 16.5571 53.4662 17.226 54.5415 17.4768C54.5484 17.5442 54.5577 17.6092 54.5647 17.6765C55.064 17.2887 55.4914 16.7963 55.8421 16.2668C56.3391 15.5166 56.6968 14.6875 57.0382 13.8537H57.0358Z" fill="#1B2539"/>
<path d="M54.5625 17.9065C54.5323 17.9065 54.4998 17.8995 54.4719 17.8879C54.3953 17.8554 54.3418 17.7834 54.3326 17.6975L54.3279 17.6603C53.2154 17.3584 52.2679 16.6593 51.7128 15.7233C51.0927 14.6759 51.0137 13.3753 51.5084 12.3278C52.0356 11.2153 53.1829 10.4884 54.3628 10.5047C55.3498 10.5232 56.2788 11.0923 56.7898 11.9934C57.0824 12.509 57.1614 13.0594 57.2357 13.5936L57.2682 13.8189C57.2752 13.8607 57.2682 13.9025 57.2543 13.942C56.9198 14.7548 56.5529 15.6165 56.035 16.3945C55.6448 16.9868 55.1965 17.4791 54.7065 17.86C54.6647 17.8925 54.6159 17.9088 54.5648 17.9088L54.5625 17.9065ZM54.3117 10.9692C53.3385 10.9692 52.3631 11.6055 51.9264 12.5276C51.4968 13.438 51.5665 14.5714 52.1099 15.4888C52.6185 16.3481 53.5476 17.0053 54.5904 17.2492C54.6182 17.2562 54.6438 17.2678 54.667 17.284C55.02 16.9682 55.3475 16.585 55.6425 16.1391C56.1232 15.4121 56.4762 14.5992 56.7944 13.8235L56.7712 13.6586C56.6992 13.1453 56.6295 12.6623 56.381 12.2233C55.9513 11.4662 55.1733 10.9854 54.3511 10.9715C54.3372 10.9715 54.3233 10.9715 54.3093 10.9715L54.3117 10.9692Z" fill="#40506F"/>
<path d="M67.1574 12.0049C67.0157 11.0759 60.6823 11.6077 61.0121 13.5842C61.3976 15.9067 59.1448 15.7743 59.1796 15.9137C59.7625 18.2594 58.7105 21.5573 60.8193 22.7395C62.0247 23.4153 65.9102 22.6094 67.2689 22.4051C67.3571 21.8337 67.4175 21.2531 67.4663 20.6794C67.68 18.0991 67.5476 14.5643 67.1574 12.0049Z" fill="#1B2539"/>
<path d="M65.5525 12.0258C66.2423 12.0258 66.5884 12.1164 66.7115 12.1744C67.0854 14.7106 67.2062 18.1734 67.0018 20.6399C66.9577 21.1555 66.9112 21.5968 66.8578 21.9986C66.7324 22.0195 66.5953 22.0427 66.449 22.066C65.3366 22.2541 63.6574 22.5374 62.3823 22.5374C61.5787 22.5374 61.2118 22.4259 61.0446 22.3307C59.8903 21.6827 59.8763 20.2149 59.8601 18.5149C59.8531 17.7531 59.8462 16.9704 59.7207 16.2388C61.1235 15.8718 61.7111 14.9545 61.4696 13.5052C61.4557 13.4146 61.4557 13.2892 61.5997 13.1197C62.1733 12.4438 64.0987 12.0235 65.5525 12.0235V12.0258ZM65.5525 11.5613C63.6574 11.5613 60.7868 12.2371 61.0121 13.5842C61.3976 15.9067 59.1448 15.7743 59.1796 15.9136C59.7625 18.2594 58.7105 21.5573 60.8193 22.7395C61.163 22.9323 61.7251 23.0043 62.3847 23.0043C64.036 23.0043 66.2981 22.5514 67.2689 22.405C67.3571 21.8337 67.4175 21.2531 67.4663 20.6794C67.68 18.0991 67.5476 14.5643 67.1574 12.0049C67.1133 11.7099 66.4397 11.5613 65.5525 11.5613Z" fill="#40506F"/>
<path d="M61.7506 21.0651C59.6418 19.883 59.7626 18.2595 59.1796 15.9138C59.1448 15.7745 59.1216 15.6328 59.0914 15.4911C59.0171 15.5724 58.9265 15.6421 58.815 15.6955C58.1949 15.9858 57.4796 15.4098 57.245 14.7665C57.1382 14.4692 57.0824 14.1627 57.036 13.8538C56.6946 14.6875 56.3346 15.5167 55.8399 16.2668C55.4892 16.7964 55.0642 17.2887 54.5625 17.6766C54.7622 19.5973 55.243 21.4901 55.9908 23.2715C56.59 24.6998 57.3843 26.0864 58.5572 27.099C59.7324 28.1116 61.3396 28.7038 62.8562 28.3926C64.4331 28.0675 66.1077 27.9606 66.8114 26.5137C67.2643 25.5847 67.2712 22.0731 67.4292 21.0489C65.7848 20.6819 62.9537 21.7433 61.7483 21.0675L61.7506 21.0651Z" fill="#40506F"/>
<path d="M54.9016 15.5282C54.7924 15.5282 54.6949 15.4492 54.674 15.3378C54.5602 14.7153 54.1677 14.144 53.6288 13.8119C53.5197 13.7445 53.4848 13.6029 53.5522 13.4914C53.6195 13.3822 53.7635 13.3474 53.8704 13.4147C54.5207 13.8142 54.9921 14.5017 55.1292 15.2518C55.1524 15.3773 55.0688 15.498 54.9434 15.5212C54.9294 15.5236 54.9155 15.5259 54.9016 15.5259V15.5282Z" fill="#40506F"/>
<path d="M168.934 67.5337H50.3518V71.7188H168.934V67.5337Z" fill="#1B2539"/>
<path d="M168.47 67.9982V71.2543H50.8163V67.9982H168.47ZM168.934 67.5337H50.3518V71.7188H168.934V67.5337Z" fill="#40506F"/>
<path d="M34.5587 190.485C34.5425 190.485 34.5285 190.485 34.5123 190.48C34.3869 190.454 34.3056 190.331 34.3311 190.206L39.6241 163.941C39.6496 163.815 39.7727 163.734 39.8981 163.76C40.0236 163.785 40.1049 163.908 40.0793 164.034L34.7863 190.299C34.7631 190.408 34.6679 190.485 34.5587 190.485Z" fill="#40506F"/>
<path d="M43.2218 147.493C43.2055 147.493 43.1916 147.493 43.1754 147.488C43.0499 147.463 42.9686 147.34 42.9942 147.214L57.9442 73.0078C57.9697 72.8824 58.0928 72.7988 58.2182 72.8267C58.3436 72.8522 58.4249 72.9753 58.3994 73.1007L43.4471 147.307C43.4239 147.416 43.3286 147.493 43.2195 147.493H43.2218Z" fill="#40506F"/>
<path d="M35.1851 192.689C36.5308 192.345 37.3422 190.974 36.9974 189.629C36.6526 188.283 35.2823 187.471 33.9366 187.816C32.5909 188.161 31.7795 189.531 32.1242 190.877C32.469 192.223 33.8394 193.034 35.1851 192.689Z" fill="#40506F"/>
<path d="M183.968 190.485C183.859 190.485 183.763 190.408 183.74 190.299L160.127 73.1008C160.102 72.9754 160.183 72.8523 160.308 72.8267C160.434 72.8012 160.557 72.8825 160.582 73.0079L184.195 190.208C184.221 190.334 184.14 190.457 184.014 190.482C183.998 190.485 183.984 190.487 183.968 190.487V190.485Z" fill="#40506F"/>
<path d="M186.483 190.253C186.483 191.641 185.357 192.768 183.968 192.768C182.579 192.768 181.453 191.641 181.453 190.253C181.453 188.864 182.579 187.737 183.968 187.737C185.357 187.737 186.483 188.864 186.483 190.253Z" fill="#40506F"/>
<path d="M124.684 67.5965H93.9429C93.9429 65.9847 95.2481 64.6794 96.8599 64.6794H127.601C127.601 66.2913 126.295 67.5965 124.684 67.5965Z" fill="#40506F"/>
<path d="M124.124 65.8871L138.231 35.3276C139.694 36.0035 140.333 37.7361 139.657 39.1992L127.338 65.8871H124.126H124.124Z" fill="#40506F"/>
<path d="M200.729 82.2397H116.106V166.862H200.729V82.2397Z" fill="#1B2539"/>
<path d="M200.729 167.095H116.107C115.979 167.095 115.874 166.99 115.874 166.863V82.2398C115.874 82.1121 115.979 82.0076 116.107 82.0076H200.729C200.857 82.0076 200.961 82.1121 200.961 82.2398V166.863C200.961 166.99 200.857 167.095 200.729 167.095ZM116.339 166.63H200.497V82.4721H116.339V166.63Z" fill="#40506F"/>
<path d="M158.418 161.944C179.069 161.944 195.81 145.202 195.81 124.551C195.81 103.9 179.069 87.1589 158.418 87.1589C137.767 87.1589 121.026 103.9 121.026 124.551C121.026 145.202 137.767 161.944 158.418 161.944Z" fill="#0478FE" fill-opacity="0.1"/>
<path d="M158.418 118.155C158.29 118.155 158.186 118.05 158.186 117.923V106.076C158.186 103.481 156.88 101.098 154.695 99.7027C152.509 98.3068 149.799 98.1234 147.444 99.2126C147.328 99.2684 147.191 99.2149 147.135 99.0988C147.079 98.9827 147.133 98.8433 147.249 98.7899C149.748 97.6333 152.626 97.8261 154.946 99.3102C157.266 100.792 158.653 103.321 158.653 106.076V117.923C158.653 118.05 158.548 118.155 158.42 118.155H158.418Z" fill="#0478FE"/>
<path d="M166.208 151.06C164.703 151.06 163.207 150.633 161.89 149.792C159.57 148.31 158.183 145.781 158.183 143.027V131.18C158.183 131.052 158.288 130.947 158.416 130.947C158.543 130.947 158.648 131.052 158.648 131.18V143.027C158.648 145.621 159.953 148.004 162.139 149.4C164.324 150.795 167.034 150.979 169.389 149.89C169.506 149.836 169.645 149.887 169.698 150.003C169.752 150.12 169.701 150.257 169.585 150.312C168.505 150.814 167.353 151.06 166.205 151.06H166.208Z" fill="#0478FE"/>
<path d="M155.104 119.045C155.022 119.045 154.946 119.003 154.902 118.928L148.977 108.668C147.681 106.422 145.359 105.01 142.767 104.894C140.177 104.782 137.736 105.974 136.243 108.096C136.168 108.201 136.024 108.226 135.92 108.152C135.815 108.078 135.79 107.934 135.864 107.829C137.45 105.579 140.035 104.304 142.79 104.431C145.54 104.554 148.004 106.052 149.381 108.438L155.306 118.699C155.371 118.81 155.331 118.952 155.22 119.017C155.183 119.038 155.143 119.047 155.104 119.047V119.045Z" fill="#0478FE"/>
<path d="M174.413 144.683C174.29 144.683 174.169 144.68 174.046 144.673C171.296 144.55 168.832 143.052 167.455 140.667L161.53 130.406C161.465 130.295 161.504 130.153 161.616 130.088C161.727 130.023 161.869 130.062 161.934 130.174L167.859 140.435C169.155 142.681 171.477 144.093 174.069 144.209C176.661 144.327 179.1 143.129 180.593 141.006C180.667 140.902 180.811 140.876 180.916 140.95C181.02 141.025 181.046 141.169 180.972 141.273C179.457 143.424 177.026 144.68 174.415 144.68L174.413 144.683Z" fill="#0478FE"/>
<path d="M130.754 121.597C130.754 121.597 130.741 121.597 130.734 121.597C130.606 121.585 130.511 121.472 130.522 121.344C130.768 118.601 132.376 116.207 134.821 114.938C137.264 113.67 140.149 113.735 142.532 115.113L152.793 121.037C152.904 121.102 152.941 121.244 152.879 121.356C152.814 121.467 152.672 121.504 152.56 121.441L142.3 115.517C140.054 114.221 137.336 114.158 135.035 115.354C132.731 116.55 131.219 118.805 130.984 121.388C130.973 121.509 130.873 121.599 130.752 121.599L130.754 121.597Z" fill="#0478FE"/>
<path d="M178.315 135.072C176.931 135.072 175.549 134.712 174.301 133.992L164.041 128.067C163.929 128.002 163.892 127.861 163.955 127.749C164.02 127.638 164.161 127.601 164.273 127.663L174.534 133.588C176.78 134.886 179.497 134.947 181.798 133.751C184.102 132.554 185.614 130.299 185.849 127.717C185.861 127.589 185.974 127.494 186.102 127.505C186.23 127.517 186.325 127.631 186.313 127.759C186.067 130.501 184.46 132.896 182.014 134.164C180.846 134.77 179.58 135.072 178.315 135.072Z" fill="#0478FE"/>
<path d="M132.868 135.857C132.78 135.857 132.696 135.808 132.657 135.722C131.5 133.223 131.693 130.346 133.177 128.026C134.659 125.705 137.188 124.319 139.942 124.319H151.789C151.917 124.319 152.022 124.423 152.022 124.551C152.022 124.679 151.917 124.783 151.789 124.783H139.942C137.348 124.783 134.965 126.089 133.569 128.274C132.174 130.46 131.99 133.172 133.079 135.525C133.133 135.641 133.082 135.78 132.966 135.834C132.933 135.848 132.9 135.855 132.868 135.855V135.857Z" fill="#0478FE"/>
<path d="M176.893 124.783H165.046C164.918 124.783 164.814 124.679 164.814 124.551C164.814 124.423 164.918 124.319 165.046 124.319H176.893C179.488 124.319 181.87 123.014 183.266 120.828C184.662 118.643 184.846 115.932 183.756 113.577C183.703 113.461 183.754 113.324 183.87 113.269C183.986 113.215 184.126 113.266 184.179 113.382C185.336 115.881 185.143 118.759 183.659 121.079C182.177 123.399 179.648 124.786 176.893 124.786V124.783Z" fill="#0478FE"/>
<path d="M141.826 147.149C141.779 147.149 141.733 147.135 141.691 147.107C139.441 145.521 138.17 142.934 138.293 140.182C138.416 137.432 139.914 134.968 142.3 133.59L152.56 127.666C152.672 127.601 152.814 127.64 152.879 127.752C152.944 127.863 152.904 128.005 152.793 128.07L142.532 133.995C140.286 135.29 138.874 137.613 138.758 140.205C138.642 142.797 139.838 145.235 141.961 146.729C142.065 146.803 142.091 146.947 142.016 147.052C141.972 147.117 141.9 147.149 141.826 147.149Z" fill="#0478FE"/>
<path d="M164.157 121.469C164.076 121.469 163.999 121.427 163.955 121.353C163.89 121.241 163.929 121.1 164.041 121.035L174.301 115.11C176.547 113.814 177.959 111.492 178.076 108.9C178.192 106.308 176.996 103.869 174.873 102.376C174.768 102.301 174.743 102.157 174.817 102.053C174.891 101.948 175.035 101.923 175.14 101.997C177.39 103.583 178.661 106.171 178.538 108.923C178.415 111.673 176.917 114.139 174.531 115.514L164.271 121.439C164.233 121.46 164.194 121.469 164.154 121.469H164.157Z" fill="#0478FE"/>
<path d="M155.231 152.447C155.231 152.447 155.218 152.447 155.211 152.447C152.468 152.201 150.073 150.593 148.805 148.148C147.537 145.705 147.602 142.82 148.979 140.437L154.904 130.176C154.969 130.065 155.111 130.028 155.222 130.09C155.334 130.155 155.371 130.297 155.308 130.409L149.383 140.669C148.087 142.915 148.025 145.633 149.221 147.934C150.417 150.238 152.672 151.75 155.255 151.985C155.382 151.996 155.478 152.11 155.466 152.238C155.454 152.359 155.355 152.449 155.234 152.449L155.231 152.447Z" fill="#0478FE"/>
<path d="M161.732 119.045C161.693 119.045 161.653 119.035 161.616 119.014C161.504 118.949 161.467 118.808 161.53 118.696L167.455 108.435C168.753 106.19 168.813 103.472 167.617 101.171C166.421 98.8667 164.166 97.3547 161.583 97.1202C161.456 97.1086 161.36 96.9947 161.372 96.867C161.384 96.7393 161.497 96.6464 161.625 96.6557C164.368 96.9019 166.763 98.509 168.031 100.955C169.299 103.398 169.234 106.282 167.856 108.665L161.932 118.926C161.888 119 161.811 119.042 161.73 119.042L161.732 119.045Z" fill="#0478FE"/>
<path d="M158.418 134.731C164.04 134.731 168.597 130.173 168.597 124.551C168.597 118.929 164.04 114.372 158.418 114.372C152.796 114.372 148.238 118.929 148.238 124.551C148.238 130.173 152.796 134.731 158.418 134.731Z" fill="#1B2539"/>
<path d="M289.152 82.2397H204.529V166.862H289.152V82.2397Z" fill="#1B2539"/>
<path d="M289.152 167.095H204.529C204.401 167.095 204.297 166.99 204.297 166.863V82.2398C204.297 82.1121 204.401 82.0076 204.529 82.0076H289.152C289.279 82.0076 289.384 82.1121 289.384 82.2398V166.863C289.384 166.99 289.279 167.095 289.152 167.095ZM204.761 166.63H288.919V82.4721H204.761V166.63Z" fill="#40506F"/>
<path d="M246.84 161.944C267.491 161.944 284.233 145.202 284.233 124.551C284.233 103.9 267.491 87.1589 246.84 87.1589C226.189 87.1589 209.448 103.9 209.448 124.551C209.448 145.202 226.189 161.944 246.84 161.944Z" fill="#0478FE" fill-opacity="0.1"/>
<path d="M246.84 118.155C246.712 118.155 246.608 118.05 246.608 117.923V106.076C246.608 103.481 245.303 101.098 243.117 99.7027C240.929 98.3068 238.221 98.1234 235.866 99.2126C235.75 99.2684 235.613 99.2149 235.557 99.0988C235.504 98.9827 235.555 98.8433 235.671 98.7899C238.17 97.6333 241.048 97.8261 243.368 99.3102C245.688 100.792 247.075 103.321 247.075 106.076V117.923C247.075 118.05 246.97 118.155 246.842 118.155H246.84Z" fill="#0478FE"/>
<path d="M254.63 151.06C253.125 151.06 251.629 150.633 250.312 149.792C247.992 148.31 246.606 145.781 246.606 143.027V131.18C246.606 131.052 246.71 130.947 246.838 130.947C246.966 130.947 247.07 131.052 247.07 131.18V143.027C247.07 145.621 248.375 148.004 250.561 149.4C252.746 150.795 255.457 150.979 257.812 149.89C257.928 149.836 258.067 149.887 258.121 150.003C258.174 150.12 258.123 150.257 258.007 150.312C256.927 150.814 255.775 151.06 254.628 151.06H254.63Z" fill="#0478FE"/>
<path d="M243.526 119.045C243.445 119.045 243.368 119.003 243.324 118.928L237.399 108.668C236.101 106.422 233.781 105.01 231.189 104.894C228.597 104.782 226.158 105.973 224.665 108.096C224.591 108.201 224.447 108.226 224.342 108.152C224.238 108.078 224.212 107.934 224.286 107.829C225.873 105.579 228.462 104.306 231.212 104.431C233.962 104.554 236.426 106.052 237.803 108.438L243.728 118.698C243.793 118.81 243.754 118.952 243.642 119.017C243.605 119.038 243.565 119.047 243.526 119.047V119.045Z" fill="#0478FE"/>
<path d="M262.837 144.683C262.714 144.683 262.594 144.68 262.47 144.673C259.721 144.55 257.254 143.052 255.879 140.667L249.955 130.406C249.889 130.295 249.929 130.153 250.04 130.088C250.152 130.023 250.294 130.062 250.359 130.174L256.283 140.435C257.579 142.681 259.902 144.093 262.494 144.209C265.081 144.327 267.524 143.129 269.018 141.006C269.092 140.902 269.236 140.876 269.34 140.95C269.445 141.025 269.47 141.169 269.396 141.273C267.882 143.424 265.453 144.68 262.84 144.68L262.837 144.683Z" fill="#0478FE"/>
<path d="M219.177 121.597C219.177 121.597 219.163 121.597 219.156 121.597C219.028 121.585 218.933 121.472 218.945 121.344C219.191 118.601 220.798 116.207 223.244 114.938C225.687 113.67 228.571 113.735 230.954 115.113L241.215 121.037C241.327 121.102 241.364 121.244 241.301 121.356C241.236 121.467 241.094 121.504 240.983 121.441L230.722 115.517C228.476 114.221 225.759 114.158 223.457 115.354C221.153 116.55 219.641 118.805 219.407 121.388C219.395 121.509 219.295 121.599 219.174 121.599L219.177 121.597Z" fill="#0478FE"/>
<path d="M266.737 135.072C265.353 135.072 263.971 134.712 262.724 133.992L252.463 128.067C252.352 128.002 252.314 127.861 252.377 127.749C252.442 127.638 252.584 127.601 252.695 127.663L262.956 133.588C265.202 134.886 267.919 134.947 270.221 133.751C272.522 132.554 274.037 130.299 274.271 127.717C274.283 127.589 274.397 127.494 274.524 127.505C274.652 127.517 274.747 127.631 274.736 127.759C274.49 130.501 272.882 132.896 270.437 134.164C269.269 134.77 268.003 135.072 266.737 135.072Z" fill="#0478FE"/>
<path d="M221.29 135.857C221.202 135.857 221.118 135.808 221.079 135.722C219.922 133.223 220.115 130.346 221.599 128.026C223.081 125.705 225.61 124.319 228.365 124.319H240.212C240.339 124.319 240.444 124.423 240.444 124.551C240.444 124.679 240.339 124.783 240.212 124.783H228.365C225.77 124.783 223.388 126.089 221.992 128.274C220.596 130.46 220.412 133.17 221.502 135.525C221.555 135.641 221.504 135.778 221.388 135.834C221.355 135.848 221.323 135.855 221.29 135.855V135.857Z" fill="#0478FE"/>
<path d="M265.316 124.783H253.469C253.341 124.783 253.236 124.679 253.236 124.551C253.236 124.423 253.341 124.319 253.469 124.319H265.316C267.91 124.319 270.293 123.014 271.689 120.828C273.084 118.643 273.268 115.932 272.179 113.577C272.125 113.461 272.176 113.322 272.292 113.269C272.409 113.215 272.548 113.266 272.601 113.382C273.758 115.881 273.565 118.759 272.081 121.079C270.599 123.399 268.07 124.786 265.316 124.786V124.783Z" fill="#0478FE"/>
<path d="M230.248 147.149C230.202 147.149 230.155 147.135 230.114 147.107C227.863 145.521 226.593 142.934 226.716 140.182C226.839 137.432 228.337 134.968 230.722 133.59L240.983 127.666C241.094 127.601 241.236 127.64 241.301 127.752C241.366 127.863 241.327 128.005 241.215 128.07L230.954 133.995C228.708 135.29 227.296 137.613 227.18 140.205C227.064 142.797 228.26 145.235 230.383 146.729C230.487 146.803 230.513 146.947 230.439 147.052C230.395 147.117 230.323 147.149 230.248 147.149Z" fill="#0478FE"/>
<path d="M252.581 121.469C252.5 121.469 252.423 121.427 252.379 121.353C252.314 121.241 252.354 121.1 252.465 121.035L262.726 115.11C264.972 113.814 266.384 111.492 266.5 108.9C266.616 106.308 265.42 103.869 263.297 102.376C263.193 102.301 263.167 102.157 263.242 102.053C263.316 101.948 263.46 101.923 263.564 101.997C265.815 103.583 267.085 106.171 266.962 108.923C266.839 111.673 265.341 114.137 262.956 115.514L252.695 121.439C252.658 121.46 252.619 121.469 252.579 121.469H252.581Z" fill="#0478FE"/>
<path d="M243.654 152.447C243.654 152.447 243.64 152.447 243.633 152.447C240.89 152.201 238.495 150.593 237.227 148.148C235.959 145.705 236.024 142.82 237.401 140.437L243.326 130.176C243.391 130.065 243.533 130.028 243.644 130.09C243.756 130.155 243.793 130.297 243.73 130.409L237.806 140.669C236.507 142.915 236.447 145.633 237.643 147.934C238.839 150.238 241.094 151.75 243.677 151.985C243.805 151.996 243.9 152.11 243.888 152.238C243.877 152.359 243.777 152.449 243.656 152.449L243.654 152.447Z" fill="#0478FE"/>
<path d="M250.154 119.045C250.115 119.045 250.075 119.035 250.038 119.014C249.927 118.949 249.89 118.808 249.952 118.696L255.877 108.435C257.173 106.19 257.236 103.472 256.04 101.171C254.844 98.8667 252.588 97.3547 250.006 97.1202C249.878 97.1086 249.783 96.9947 249.794 96.867C249.806 96.7393 249.92 96.6464 250.048 96.6557C252.79 96.9019 255.185 98.509 256.453 100.955C257.721 103.398 257.656 106.282 256.279 108.665L250.354 118.926C250.31 119 250.233 119.042 250.152 119.042L250.154 119.045Z" fill="#0478FE"/>
<path d="M246.84 134.731C252.462 134.731 257.02 130.173 257.02 124.551C257.02 118.929 252.462 114.372 246.84 114.372C241.218 114.372 236.661 118.929 236.661 124.551C236.661 130.173 241.218 134.731 246.84 134.731Z" fill="#1B2539"/>
<path d="M270.832 22.1219H253.578C253.45 22.1219 253.345 22.0174 253.345 21.8896C253.345 21.7619 253.45 21.6574 253.578 21.6574H270.736L282.532 9.86139C282.623 9.77081 282.769 9.77081 282.86 9.86139C282.95 9.95197 282.95 10.0983 282.86 10.1889L270.996 22.0522C270.952 22.0963 270.894 22.1196 270.832 22.1196V22.1219Z" fill="#40506F"/>
<path d="M282.695 13.4542C284.588 13.4542 286.123 11.9194 286.123 10.0262C286.123 8.13292 284.588 6.59814 282.695 6.59814C280.802 6.59814 279.267 8.13292 279.267 10.0262C279.267 11.9194 280.802 13.4542 282.695 13.4542Z" fill="#1B2539"/>
<path d="M282.695 13.6865C280.677 13.6865 279.035 12.0445 279.035 10.0262C279.035 8.00798 280.677 6.36597 282.695 6.36597C284.713 6.36597 286.355 8.00798 286.355 10.0262C286.355 12.0445 284.713 13.6865 282.695 13.6865ZM282.695 6.83047C280.932 6.83047 279.499 8.26345 279.499 10.0262C279.499 11.789 280.932 13.222 282.695 13.222C284.458 13.222 285.891 11.789 285.891 10.0262C285.891 8.26345 284.458 6.83047 282.695 6.83047Z" fill="#40506F"/>
<path d="M282.695 32.7311H253.578C253.45 32.7311 253.345 32.6266 253.345 32.4989C253.345 32.3711 253.45 32.2666 253.578 32.2666H282.695C282.823 32.2666 282.927 32.3711 282.927 32.4989C282.927 32.6266 282.823 32.7311 282.695 32.7311Z" fill="#40506F"/>
<path d="M282.695 35.9268C284.588 35.9268 286.123 34.3921 286.123 32.4988C286.123 30.6056 284.588 29.0708 282.695 29.0708C280.802 29.0708 279.267 30.6056 279.267 32.4988C279.267 34.3921 280.802 35.9268 282.695 35.9268Z" fill="#1B2539"/>
<path d="M282.695 36.1592C280.677 36.1592 279.035 34.5171 279.035 32.4989C279.035 30.4806 280.677 28.8386 282.695 28.8386C284.713 28.8386 286.355 30.4806 286.355 32.4989C286.355 34.5171 284.713 36.1592 282.695 36.1592ZM282.695 29.3008C280.932 29.3008 279.499 30.7338 279.499 32.4966C279.499 34.2593 280.932 35.6923 282.695 35.6923C284.458 35.6923 285.891 34.2593 285.891 32.4966C285.891 30.7338 284.458 29.3008 282.695 29.3008Z" fill="#40506F"/>
<path d="M284.232 63.0861C284.172 63.0861 284.114 63.0628 284.068 63.0187L264.454 43.4052H253.578C253.45 43.4052 253.345 43.3007 253.345 43.1729C253.345 43.0452 253.45 42.9407 253.578 42.9407H264.549C264.612 42.9407 264.67 42.9662 264.714 43.008L284.395 62.6889C284.486 62.7795 284.486 62.9258 284.395 63.0164C284.349 63.0628 284.291 63.0837 284.23 63.0837L284.232 63.0861Z" fill="#40506F"/>
<path d="M282.695 65.6153C284.588 65.6153 286.123 64.0805 286.123 62.1873C286.123 60.2941 284.588 58.7593 282.695 58.7593C280.802 58.7593 279.267 60.2941 279.267 62.1873C279.267 64.0805 280.802 65.6153 282.695 65.6153Z" fill="#1B2539"/>
<path d="M282.695 65.8476C280.677 65.8476 279.035 64.2056 279.035 62.1874C279.035 60.1691 280.677 58.5271 282.695 58.5271C284.713 58.5271 286.355 60.1691 286.355 62.1874C286.355 64.2056 284.713 65.8476 282.695 65.8476ZM282.695 58.9893C280.932 58.9893 279.499 60.4223 279.499 62.185C279.499 63.9478 280.932 65.3808 282.695 65.3808C284.458 65.3808 285.891 63.9478 285.891 62.185C285.891 60.4223 284.458 58.9893 282.695 58.9893Z" fill="#40506F"/>
<path d="M159.284 21.8896H147.428C146.802 21.8896 146.294 22.3971 146.294 23.023V24.7254C146.294 25.3514 146.802 25.8588 147.428 25.8588H159.284C159.91 25.8588 160.418 25.3514 160.418 24.7254V23.023C160.418 22.3971 159.91 21.8896 159.284 21.8896Z" fill="#192D4D"/>
<path d="M159.143 31.2029H147.286C146.66 31.2029 146.153 31.7103 146.153 32.3363V34.0387C146.153 34.6646 146.66 35.172 147.286 35.172H159.143C159.769 35.172 160.276 34.6646 160.276 34.0387V32.3363C160.276 31.7103 159.769 31.2029 159.143 31.2029Z" fill="#0478FE"/>
<path d="M159.143 39.6685H147.286C146.66 39.6685 146.153 40.1759 146.153 40.8018V42.5042C146.153 43.1302 146.66 43.6376 147.286 43.6376H159.143C159.769 43.6376 160.276 43.1302 160.276 42.5042V40.8018C160.276 40.1759 159.769 39.6685 159.143 39.6685Z" fill="#192D4D"/>
<path d="M197.222 21.8896H169.066C168.441 21.8896 167.933 22.3971 167.933 23.023V24.7254C167.933 25.3514 168.441 25.8588 169.066 25.8588H197.222C197.848 25.8588 198.356 25.3514 198.356 24.7254V23.023C198.356 22.3971 197.848 21.8896 197.222 21.8896Z" fill="#192D4D"/>
<path d="M180.205 31.2029H168.923C168.297 31.2029 167.789 31.7103 167.789 32.3363V34.0387C167.789 34.6646 168.297 35.172 168.923 35.172H180.205C180.831 35.172 181.339 34.6646 181.339 34.0387V32.3363C181.339 31.7103 180.831 31.2029 180.205 31.2029Z" fill="#192D4D"/>
<path d="M186.962 39.6685H168.923C168.297 39.6685 167.789 40.1759 167.789 40.8018V42.5042C167.789 43.1302 168.297 43.6376 168.923 43.6376H186.962C187.588 43.6376 188.095 43.1302 188.095 42.5042V40.8018C188.095 40.1759 187.588 39.6685 186.962 39.6685Z" fill="#192D4D"/>
<path d="M159.284 48.2964H147.428C146.802 48.2964 146.294 48.8038 146.294 49.4298V51.1322C146.294 51.7581 146.802 52.2655 147.428 52.2655H159.284C159.91 52.2655 160.418 51.7581 160.418 51.1322V49.4298C160.418 48.8038 159.91 48.2964 159.284 48.2964Z" fill="#192D4D"/>
<path d="M210.753 48.2964H169.066C168.441 48.2964 167.933 48.8038 167.933 49.4298V51.1322C167.933 51.7581 168.441 52.2655 169.066 52.2655H210.753C211.379 52.2655 211.886 51.7581 211.886 51.1322V49.4298C211.886 48.8038 211.379 48.2964 210.753 48.2964Z" fill="#192D4D"/>
<path d="M240.435 48.2964H216.362C215.736 48.2964 215.229 48.8038 215.229 49.4298V51.1322C215.229 51.7581 215.736 52.2655 216.362 52.2655H240.435C241.061 52.2655 241.568 51.7581 241.568 51.1322V49.4298C241.568 48.8038 241.061 48.2964 240.435 48.2964Z" fill="#192D4D"/>
<path d="M240.435 21.8896H202.552C201.926 21.8896 201.419 22.3971 201.419 23.023V24.7254C201.419 25.3514 201.926 25.8588 202.552 25.8588H240.435C241.061 25.8588 241.568 25.3514 241.568 24.7254V23.023C241.568 22.3971 241.061 21.8896 240.435 21.8896Z" fill="#192D4D"/>
<path d="M220.636 31.2029H185.814C185.188 31.2029 184.681 31.7103 184.681 32.3363V34.0387C184.681 34.6646 185.188 35.172 185.814 35.172H220.636C221.262 35.172 221.769 34.6646 221.769 34.0387V32.3363C221.769 31.7103 221.262 31.2029 220.636 31.2029Z" fill="#192D4D"/>
<path d="M229.192 39.6685H192.57C191.944 39.6685 191.437 40.1759 191.437 40.8018V42.5042C191.437 43.1302 191.944 43.6376 192.57 43.6376H229.192C229.818 43.6376 230.325 43.1302 230.325 42.5042V40.8018C230.325 40.1759 229.818 39.6685 229.192 39.6685Z" fill="#192D4D"/>
<path d="M253.578 64.4495H170.825C170.697 64.4495 170.592 64.345 170.592 64.2173C170.592 64.0896 170.697 63.985 170.825 63.985H253.346V7.02334H124.356V48.2965C124.356 48.4243 124.252 48.5288 124.124 48.5288C123.996 48.5288 123.892 48.4243 123.892 48.2965V6.79109C123.892 6.66335 123.996 6.55884 124.124 6.55884H253.578C253.706 6.55884 253.81 6.66335 253.81 6.79109V64.2173C253.81 64.345 253.706 64.4495 253.578 64.4495Z" fill="#40506F"/>
<path d="M124.124 32.7311H87.3726C87.2449 32.7311 87.1404 32.6266 87.1404 32.4989C87.1404 32.3711 87.2449 32.2666 87.3726 32.2666H124.124C124.252 32.2666 124.356 32.3711 124.356 32.4989C124.356 32.6266 124.252 32.7311 124.124 32.7311Z" fill="#40506F"/>
<path d="M124.124 22.1219H109.903C109.84 22.1219 109.782 22.0964 109.738 22.0546L97.5635 9.88003C97.473 9.78945 97.473 9.64313 97.5635 9.55255C97.6541 9.46197 97.8004 9.46197 97.891 9.55255L109.996 21.6574H124.119C124.247 21.6574 124.351 21.762 124.351 21.8897C124.351 22.0174 124.247 22.1219 124.119 22.1219H124.124Z" fill="#40506F"/>
<path d="M97.731 12.4881C99.6242 12.4881 101.159 10.9533 101.159 9.06009C101.159 7.16685 99.6242 5.63208 97.731 5.63208C95.8377 5.63208 94.303 7.16685 94.303 9.06009C94.303 10.9533 95.8377 12.4881 97.731 12.4881Z" fill="#1B2539"/>
<path d="M97.7308 12.7226C95.7126 12.7226 94.0706 11.0806 94.0706 9.06236C94.0706 7.04411 95.7126 5.4021 97.7308 5.4021C99.7491 5.4021 101.391 7.04411 101.391 9.06236C101.391 11.0806 99.7491 12.7226 97.7308 12.7226ZM97.7308 5.8666C95.968 5.8666 94.5351 7.29958 94.5351 9.06236C94.5351 10.8251 95.968 12.2581 97.7308 12.2581C99.4936 12.2581 100.927 10.8251 100.927 9.06236C100.927 7.29958 99.4936 5.8666 97.7308 5.8666Z" fill="#40506F"/>
<path d="M87.3726 35.9268C89.2658 35.9268 90.8006 34.3921 90.8006 32.4988C90.8006 30.6056 89.2658 29.0708 87.3726 29.0708C85.4794 29.0708 83.9446 30.6056 83.9446 32.4988C83.9446 34.3921 85.4794 35.9268 87.3726 35.9268Z" fill="#1B2539"/>
<path d="M87.3724 36.1589C85.3542 36.1589 83.7122 34.5169 83.7122 32.4986C83.7122 30.4804 85.3542 28.8384 87.3724 28.8384C89.3907 28.8384 91.0327 30.4804 91.0327 32.4986C91.0327 34.5169 89.3907 36.1589 87.3724 36.1589ZM87.3724 29.3006C85.6096 29.3006 84.1767 30.7335 84.1767 32.4963C84.1767 34.2591 85.6096 35.6921 87.3724 35.6921C89.1352 35.6921 90.5682 34.2591 90.5682 32.4963C90.5682 30.7335 89.1352 29.3006 87.3724 29.3006Z" fill="#40506F"/>
</g>
<defs>
<clipPath id="clip0_56_653">
<rect width="289.384" height="193" fill="white"/>
</clipPath>
</defs>
</svg>
