<svg width="22.000000" height="22.000000" viewBox="0 0 22 22" fill="none" xmlns="http://www.w3.org/2000/svg" xmlns:xlink="http://www.w3.org/1999/xlink">
	<desc>
			Created with Pixso.
	</desc>
	<defs/>
	<path id="Shape" d="M6.875 0L15.125 0C18.9214 0 22 3.07861 22 6.875L22 15.125C22 18.9214 18.9214 22 15.125 22L6.875 22C3.07861 22 0 18.9214 0 15.125L0 6.875C0 3.07861 3.07861 0 6.875 0ZM15.125 19.9375C17.7788 19.9375 19.9375 17.7788 19.9375 15.125L19.9375 6.875C19.9375 4.22119 17.7788 2.0625 15.125 2.0625L6.875 2.0625C4.22119 2.0625 2.0625 4.22119 2.0625 6.875L2.0625 15.125C2.0625 17.7788 4.22119 19.9375 6.875 19.9375L15.125 19.9375Z" clip-rule="evenodd" fill="#FFFFFF" fill-opacity="1.000000" fill-rule="evenodd"/>
	<path id="Shape" d="M5.5 11C5.5 7.9624 7.96265 5.5 11 5.5C14.0374 5.5 16.5 7.9624 16.5 11C16.5 14.0376 14.0374 16.5 11 16.5C7.96265 16.5 5.5 14.0376 5.5 11ZM7.5625 11C7.5625 12.8945 9.10522 14.4375 11 14.4375C12.8948 14.4375 14.4375 12.8945 14.4375 11C14.4375 9.104 12.8948 7.5625 11 7.5625C9.10522 7.5625 7.5625 9.104 7.5625 11Z" clip-rule="evenodd" fill="#FFFFFF" fill-opacity="1.000000" fill-rule="evenodd"/>
	<circle id="Oval" cx="16.912598" cy="5.087402" r="0.732875" fill="#FFFFFF" fill-opacity="1.000000"/>
</svg>
