<svg width="117" height="34" viewBox="0 0 117 34" fill="none" xmlns="http://www.w3.org/2000/svg">
<path d="M48.523 28.21C47.599 28.21 46.787 27.993 46.087 27.559C45.387 27.111 44.841 26.474 44.449 25.648C44.057 24.822 43.861 23.835 43.861 22.687C43.861 21.539 44.057 20.559 44.449 19.747C44.841 18.921 45.387 18.291 46.087 17.857C46.787 17.409 47.599 17.185 48.523 17.185C49.419 17.185 50.203 17.409 50.875 17.857C51.561 18.291 52.016 18.879 52.24 19.621H52.009L52.24 17.395H54.76C54.718 17.829 54.676 18.27 54.634 18.718C54.606 19.166 54.592 19.607 54.592 20.041V28H51.988L51.967 25.816H52.219C51.995 26.544 51.54 27.125 50.854 27.559C50.168 27.993 49.391 28.21 48.523 28.21ZM49.258 26.194C50.084 26.194 50.749 25.907 51.253 25.333C51.757 24.745 52.009 23.863 52.009 22.687C52.009 21.511 51.757 20.636 51.253 20.062C50.749 19.488 50.084 19.201 49.258 19.201C48.432 19.201 47.767 19.488 47.263 20.062C46.759 20.636 46.507 21.511 46.507 22.687C46.507 23.863 46.752 24.745 47.242 25.333C47.746 25.907 48.418 26.194 49.258 26.194ZM57.4295 28V20.104C57.4295 19.656 57.4155 19.201 57.3875 18.739C57.3735 18.277 57.3385 17.829 57.2825 17.395H59.8235L60.1175 20.293H59.6975C59.8375 19.593 60.0685 19.012 60.3905 18.55C60.7265 18.088 61.1325 17.745 61.6085 17.521C62.0845 17.297 62.6025 17.185 63.1625 17.185C63.4145 17.185 63.6175 17.199 63.7715 17.227C63.9255 17.241 64.0795 17.276 64.2335 17.332L64.2125 19.642C63.9465 19.53 63.7155 19.46 63.5195 19.432C63.3375 19.404 63.1065 19.39 62.8265 19.39C62.2245 19.39 61.7135 19.516 61.2935 19.768C60.8875 20.02 60.5795 20.37 60.3695 20.818C60.1735 21.266 60.0755 21.777 60.0755 22.351V28H57.4295ZM71.7636 28.21C70.8676 28.21 70.0836 27.993 69.4116 27.559C68.7396 27.111 68.2916 26.509 68.0676 25.753H68.2986V28H65.6946V12.544H68.3196V19.558H68.0676C68.3056 18.83 68.7606 18.256 69.4326 17.836C70.1046 17.402 70.8816 17.185 71.7636 17.185C72.7016 17.185 73.5206 17.409 74.2206 17.857C74.9206 18.305 75.4666 18.942 75.8586 19.768C76.2506 20.58 76.4466 21.56 76.4466 22.708C76.4466 23.856 76.2506 24.843 75.8586 25.669C75.4666 26.481 74.9136 27.111 74.1996 27.559C73.4996 27.993 72.6876 28.21 71.7636 28.21ZM71.0286 26.194C71.8546 26.194 72.5196 25.907 73.0236 25.333C73.5416 24.759 73.8006 23.884 73.8006 22.708C73.8006 21.532 73.5416 20.657 73.0236 20.083C72.5196 19.495 71.8546 19.201 71.0286 19.201C70.2026 19.201 69.5376 19.488 69.0336 20.062C68.5296 20.636 68.2776 21.511 68.2776 22.687C68.2776 23.863 68.5296 24.745 69.0336 25.333C69.5376 25.907 70.2026 26.194 71.0286 26.194ZM78.7171 28V17.395H81.3421V28H78.7171ZM78.5701 15.4V12.838H81.4891V15.4H78.5701ZM90.2616 28.21C89.3656 28.21 88.5816 27.993 87.9096 27.559C87.2376 27.111 86.7896 26.509 86.5656 25.753H86.7966V28H84.1926V12.544H86.8176V19.558H86.5656C86.8036 18.83 87.2586 18.256 87.9306 17.836C88.6026 17.402 89.3796 17.185 90.2616 17.185C91.1996 17.185 92.0186 17.409 92.7186 17.857C93.4186 18.305 93.9646 18.942 94.3566 19.768C94.7486 20.58 94.9446 21.56 94.9446 22.708C94.9446 23.856 94.7486 24.843 94.3566 25.669C93.9646 26.481 93.4116 27.111 92.6976 27.559C91.9976 27.993 91.1856 28.21 90.2616 28.21ZM89.5266 26.194C90.3526 26.194 91.0176 25.907 91.5216 25.333C92.0396 24.759 92.2986 23.884 92.2986 22.708C92.2986 21.532 92.0396 20.657 91.5216 20.083C91.0176 19.495 90.3526 19.201 89.5266 19.201C88.7006 19.201 88.0356 19.488 87.5316 20.062C87.0276 20.636 86.7756 21.511 86.7756 22.687C86.7756 23.863 87.0276 24.745 87.5316 25.333C88.0356 25.907 88.7006 26.194 89.5266 26.194ZM102.003 28.21C100.911 28.21 99.9661 27.986 99.1681 27.538C98.3701 27.09 97.7471 26.453 97.2991 25.627C96.8651 24.801 96.6481 23.821 96.6481 22.687C96.6481 21.553 96.8651 20.58 97.2991 19.768C97.7471 18.942 98.3701 18.305 99.1681 17.857C99.9661 17.409 100.911 17.185 102.003 17.185C103.095 17.185 104.04 17.409 104.838 17.857C105.65 18.305 106.273 18.942 106.707 19.768C107.155 20.58 107.379 21.553 107.379 22.687C107.379 23.821 107.155 24.801 106.707 25.627C106.273 26.453 105.65 27.09 104.838 27.538C104.04 27.986 103.095 28.21 102.003 28.21ZM102.003 26.194C102.829 26.194 103.487 25.907 103.977 25.333C104.467 24.745 104.712 23.863 104.712 22.687C104.712 21.511 104.467 20.636 103.977 20.062C103.487 19.488 102.829 19.201 102.003 19.201C101.177 19.201 100.519 19.488 100.029 20.062C99.5391 20.636 99.2941 21.511 99.2941 22.687C99.2941 23.863 99.5391 24.745 100.029 25.333C100.519 25.907 101.177 26.194 102.003 26.194ZM114.076 28.21C112.816 28.21 111.864 27.881 111.22 27.223C110.576 26.565 110.254 25.578 110.254 24.262V19.369H108.217V17.395H110.254V14.686L112.879 14.014V17.395H115.714V19.369H112.879V24.094C112.879 24.822 113.019 25.333 113.299 25.627C113.579 25.921 113.964 26.068 114.454 26.068C114.72 26.068 114.944 26.047 115.126 26.005C115.322 25.963 115.511 25.907 115.693 25.837V27.916C115.455 28.014 115.189 28.084 114.895 28.126C114.615 28.182 114.342 28.21 114.076 28.21Z" fill="white"/>
<path d="M16.5547 2.65625C16.5547 4.12326 15.4109 5.3125 14 5.3125C12.5891 5.3125 11.4453 4.12326 11.4453 2.65625C11.4453 1.18924 12.5891 0 14 0C15.4109 0 16.5547 1.18924 16.5547 2.65625Z" fill="#0478FE"/>
<path d="M13.0803 5.1H14.9197V10.2H13.0803V5.1Z" fill="#0478FE"/>
<path d="M10.8321 8.39375C10.8321 9.03923 11.3354 9.5625 11.9562 9.5625H16.0438C16.6646 9.5625 17.1679 9.03923 17.1679 8.39375C17.1679 7.74827 16.6646 7.225 16.0438 7.225H11.9562C11.3354 7.225 10.8321 7.74827 10.8321 8.39375Z" fill="#0478FE"/>
<path d="M0 34L3.98876 31.2916C4.65338 30.8403 5.43001 30.6 6.2238 30.6H23.9124C26.1699 30.6 28 28.6972 28 26.35V21.25H24.3212V25.2875C24.3212 26.2264 23.5891 26.9875 22.6861 26.9875H5.31387C4.41086 26.9875 3.67883 26.2264 3.67883 25.2875V13.8125C3.67883 12.8736 4.41086 12.1125 5.31387 12.1125H22.6861C23.5891 12.1125 24.3212 12.8736 24.3212 13.8125V17.85H28V12.75C28 10.4028 26.1699 8.5 23.9124 8.5H4.08759C1.83008 8.5 0 10.4028 0 12.75V34Z" fill="#0478FE"/>
<path d="M21.0511 19.0187C21.0511 20.4858 19.9073 21.675 18.4964 21.675C17.0854 21.675 15.9416 20.4858 15.9416 19.0187C15.9416 17.5517 17.0854 16.3625 18.4964 16.3625C19.9073 16.3625 21.0511 17.5517 21.0511 19.0187Z" fill="#0478FE"/>
<path d="M12.0584 19.0187C12.0584 20.4858 10.9146 21.675 9.50365 21.675C8.0927 21.675 6.94891 20.4858 6.94891 19.0187C6.94891 17.5517 8.0927 16.3625 9.50365 16.3625C10.9146 16.3625 12.0584 17.5517 12.0584 19.0187Z" fill="#0478FE"/>
</svg>
